rawline-600.ufo
<glyph name="exclam" format="2">
  <advance width="581"/>
  <unicode hex="0021"/>
  <outline>
    <contour>
      <point x="178" y="518" type="line"/>
      <point x="178" y="1468" type="line"/>
      <point x="403" y="1468" type="line"/>
      <point x="403" y="518" type="line"/>
    </contour>
    <contour>
      <point x="178" y="0" type="line"/>
      <point x="178" y="281" type="line"/>
      <point x="403" y="281" type="line"/>
      <point x="403" y="0" type="line"/>
    </contour>
  </outline>
</glyph>
<glyph name="quotedbl" format="2">
  <advance width="731"/>
  <unicode hex="0022"/>
  <outline>
    <contour>
      <point x="131" y="1026" type="line"/>
      <point x="131" y="1477" type="line"/>
      <point x="324" y="1477" type="line"/>
      <point x="324" y="1026" type="line"/>
    </contour>
    <contour>
      <point x="408" y="1026" type="line"/>
      <point x="408" y="1477" type="line"/>
      <point x="600" y="1477" type="line"/>
      <point x="600" y="1026" type="line"/>
    </contour>
  </outline>
</glyph>
<glyph name="numbersign" format="2">
  <advance width="1445"/>
  <unicode hex="0023"/>
  <outline>
    <contour>
      <point x="1370" y="893" type="line"/>
      <point x="1085" y="893" type="line"/>
      <point x="1008" y="569" type="line"/>
      <point x="1278" y="569" type="line"/>
      <point x="1278" y="397" type="line"/>
      <point x="967" y="397" type="line"/>
      <point x="870" y="0" type="line"/>
      <point x="686" y="0" type="line"/>
      <point x="784" y="397" type="line"/>
      <point x="487" y="397" type="line"/>
      <point x="391" y="0" type="line"/>
      <point x="207" y="0" type="line"/>
      <point x="307" y="397" type="line"/>
      <point x="76" y="397" type="line"/>
      <point x="76" y="569" type="line"/>
      <point x="346" y="569" type="line"/>
      <point x="424" y="893" type="line"/>
      <point x="168" y="893" type="line"/>
      <point x="168" y="1053" type="line"/>
      <point x="465" y="1053" type="line"/>
      <point x="561" y="1454" type="line"/>
      <point x="745" y="1454" type="line"/>
      <point x="647" y="1053" type="line"/>
      <point x="942" y="1053" type="line"/>
      <point x="1040" y="1454" type="line"/>
      <point x="1225" y="1454" type="line"/>
      <point x="1124" y="1053" type="line"/>
      <point x="1370" y="1053" type="line"/>
    </contour>
    <contour>
      <point x="825" y="569" type="line"/>
      <point x="903" y="893" type="line"/>
      <point x="606" y="893" type="line"/>
      <point x="528" y="569" type="line"/>
    </contour>
  </outline>
</glyph>
<glyph name="dollar" format="2">
  <advance width="1286"/>
  <unicode hex="0024"/>
  <anchor x="662" y="1473" name="Anchor-1"/>
  <anchor x="672" y="0" name="Anchor-0"/>
  <outline>
    <contour>
      <point x="1204" y="403" type="qcurve" smooth="yes"/>
      <point x="1204" y="299"/>
      <point x="1128" y="140"/>
      <point x="991" y="42"/>
      <point x="817" y="-10"/>
      <point x="711" y="-14" type="qcurve"/>
      <point x="711" y="-229" type="line"/>
      <point x="586" y="-229" type="line"/>
      <point x="586" y="-10" type="line"/>
      <point x="291" y="12"/>
      <point x="72" y="182" type="qcurve"/>
      <point x="176" y="379" type="line"/>
      <point x="229" y="324"/>
      <point x="467" y="213"/>
      <point x="600" y="197" type="qcurve"/>
      <point x="600" y="623" type="line"/>
      <point x="559" y="633" type="line" smooth="yes"/>
      <point x="444" y="663"/>
      <point x="294" y="725"/>
      <point x="179" y="815"/>
      <point x="127" y="938"/>
      <point x="127" y="1022" type="qcurve" smooth="yes"/>
      <point x="127" y="1214"/>
      <point x="381" y="1444"/>
      <point x="586" y="1462" type="qcurve"/>
      <point x="586" y="1669" type="line"/>
      <point x="711" y="1669" type="line"/>
      <point x="711" y="1462" type="line"/>
      <point x="951" y="1445"/>
      <point x="1147" y="1300" type="qcurve"/>
      <point x="1042" y="1112" type="line"/>
      <point x="1000" y="1158"/>
      <point x="804" y="1247"/>
      <point x="696" y="1257" type="qcurve"/>
      <point x="696" y="831" type="line"/>
      <point x="725" y="825" type="line" smooth="yes"/>
      <point x="821" y="802"/>
      <point x="957" y="757"/>
      <point x="1083" y="688"/>
      <point x="1159" y="603"/>
      <point x="1204" y="481"/>
    </contour>
    <contour>
      <point x="367" y="1059" type="qcurve" smooth="yes"/>
      <point x="367" y="978"/>
      <point x="474" y="892"/>
      <point x="600" y="858" type="qcurve"/>
      <point x="600" y="1257" type="line"/>
      <point x="367" y="1240"/>
    </contour>
    <contour>
      <point x="696" y="193" type="line"/>
      <point x="823" y="198"/>
      <point x="958" y="292"/>
      <point x="958" y="379" type="qcurve" smooth="yes"/>
      <point x="958" y="463"/>
      <point x="832" y="558"/>
      <point x="696" y="596" type="qcurve"/>
    </contour>
  </outline>
</glyph>
<glyph name="percent" format="2">
  <advance width="1552"/>
  <unicode hex="0025"/>
  <outline>
    <contour>
      <point x="74" y="1169" type="qcurve" smooth="yes"/>
      <point x="74" y="1296"/>
      <point x="264" y="1475"/>
      <point x="399" y="1475" type="qcurve" smooth="yes"/>
      <point x="535" y="1475"/>
      <point x="725" y="1297"/>
      <point x="725" y="1169" type="qcurve" smooth="yes"/>
      <point x="725" y="1043"/>
      <point x="535" y="866"/>
      <point x="399" y="866" type="qcurve" smooth="yes"/>
      <point x="264" y="866"/>
      <point x="74" y="1043"/>
    </contour>
    <contour>
      <point x="166" y="82" type="line"/>
      <point x="741" y="764" type="line"/>
      <point x="1282" y="1466" type="line"/>
      <point x="1389" y="1374" type="line"/>
      <point x="823" y="700" type="line"/>
      <point x="270" y="-12" type="line"/>
    </contour>
    <contour>
      <point x="565" y="1169" type="qcurve" smooth="yes"/>
      <point x="565" y="1247"/>
      <point x="467" y="1358"/>
      <point x="331" y="1358"/>
      <point x="233" y="1245"/>
      <point x="233" y="1093"/>
      <point x="331" y="983"/>
      <point x="467" y="983"/>
      <point x="565" y="1095"/>
    </contour>
    <contour>
      <point x="827" y="285" type="qcurve" smooth="yes"/>
      <point x="827" y="411"/>
      <point x="1018" y="588"/>
      <point x="1153" y="588" type="qcurve" smooth="yes"/>
      <point x="1289" y="588"/>
      <point x="1479" y="411"/>
      <point x="1479" y="285" type="qcurve" smooth="yes"/>
      <point x="1479" y="157"/>
      <point x="1289" y="-20"/>
      <point x="1153" y="-20" type="qcurve" smooth="yes"/>
      <point x="1018" y="-20"/>
      <point x="827" y="158"/>
    </contour>
    <contour>
      <point x="1319" y="285" type="qcurve" smooth="yes"/>
      <point x="1319" y="361"/>
      <point x="1220" y="471"/>
      <point x="1153" y="471" type="qcurve" smooth="yes"/>
      <point x="1085" y="471"/>
      <point x="987" y="359"/>
      <point x="987" y="285" type="qcurve" smooth="yes"/>
      <point x="987" y="207"/>
      <point x="1085" y="96"/>
      <point x="1153" y="96" type="qcurve" smooth="yes"/>
      <point x="1222" y="96"/>
      <point x="1319" y="208"/>
    </contour>
  </outline>
</glyph>
<glyph name="ampersand" format="2">
  <advance width="1425"/>
  <unicode hex="0026"/>
  <outline>
    <contour>
      <point x="1419" y="0" type="line"/>
      <point x="1122" y="0" type="line"/>
      <point x="991" y="139" type="line"/>
      <point x="805" y="-20"/>
      <point x="567" y="-20" type="qcurve" smooth="yes"/>
      <point x="358" y="-20"/>
      <point x="88" y="221"/>
      <point x="88" y="397" type="qcurve" smooth="yes"/>
      <point x="88" y="465"/>
      <point x="130" y="588"/>
      <point x="210" y="690"/>
      <point x="299" y="772"/>
      <point x="358" y="813" type="qcurve"/>
      <point x="263" y="918"/>
      <point x="188" y="1059"/>
      <point x="188" y="1135" type="qcurve" smooth="yes"/>
      <point x="188" y="1283"/>
      <point x="407" y="1473"/>
      <point x="573" y="1473" type="qcurve" smooth="yes"/>
      <point x="729" y="1473"/>
      <point x="944" y="1307"/>
      <point x="944" y="1163" type="qcurve" smooth="yes"/>
      <point x="944" y="1050"/>
      <point x="803" y="873"/>
      <point x="670" y="784" type="qcurve"/>
      <point x="997" y="442" type="line"/>
      <point x="1071" y="587"/>
      <point x="1071" y="772" type="qcurve"/>
      <point x="1255" y="772" type="line"/>
      <point x="1255" y="505"/>
      <point x="1128" y="303" type="qcurve"/>
    </contour>
    <contour>
      <point x="573" y="1305" type="qcurve" smooth="yes"/>
      <point x="496" y="1305"/>
      <point x="395" y="1210"/>
      <point x="395" y="1141" type="qcurve" smooth="yes"/>
      <point x="395" y="1101"/>
      <point x="449" y="1020"/>
      <point x="535" y="928" type="qcurve"/>
      <point x="640" y="995"/>
      <point x="737" y="1098"/>
      <point x="737" y="1159" type="qcurve" smooth="yes"/>
      <point x="737" y="1223"/>
      <point x="644" y="1305"/>
    </contour>
    <contour>
      <point x="592" y="158" type="qcurve" smooth="yes"/>
      <point x="742" y="158"/>
      <point x="868" y="268" type="qcurve"/>
      <point x="492" y="668" type="line"/>
      <point x="401" y="603"/>
      <point x="305" y="472"/>
      <point x="305" y="395" type="qcurve" smooth="yes"/>
      <point x="305" y="291"/>
      <point x="472" y="158"/>
    </contour>
  </outline>
</glyph>
<glyph name="quotesingle" format="2">
  <advance width="454"/>
  <unicode hex="0027"/>
  <outline>
    <contour>
      <point x="131" y="1024" type="line"/>
      <point x="131" y="1477" type="line"/>
      <point x="324" y="1477" type="line"/>
      <point x="324" y="1024" type="line"/>
    </contour>
  </outline>
</glyph>
<glyph name="parenleft" format="2">
  <advance width="606"/>
  <unicode hex="0028"/>
  <outline>
    <contour>
      <point x="375" y="1536" type="qcurve"/>
      <point x="549" y="1462" type="line"/>
      <point x="510" y="1404"/>
      <point x="425" y="1236"/>
      <point x="342" y="1030"/>
      <point x="289" y="799"/>
      <point x="289" y="702" type="qcurve" smooth="yes"/>
      <point x="289" y="400"/>
      <point x="543" y="-12" type="qcurve"/>
      <point x="379" y="-96" type="line"/>
      <point x="78" y="348"/>
      <point x="78" y="709" type="qcurve" smooth="yes"/>
      <point x="78" y="901"/>
      <point x="231" y="1292"/>
    </contour>
  </outline>
</glyph>
<glyph name="parenright" format="2">
  <advance width="606"/>
  <unicode hex="0029"/>
  <outline>
    <contour>
      <point x="227" y="-96" type="qcurve"/>
      <point x="61" y="-12" type="line"/>
      <point x="317" y="404"/>
      <point x="317" y="702" type="qcurve" smooth="yes"/>
      <point x="317" y="799"/>
      <point x="263" y="1030"/>
      <point x="180" y="1236"/>
      <point x="96" y="1403"/>
      <point x="57" y="1462" type="qcurve"/>
      <point x="229" y="1536" type="line"/>
      <point x="373" y="1292"/>
      <point x="526" y="901"/>
      <point x="526" y="709" type="qcurve" smooth="yes"/>
      <point x="526" y="346"/>
    </contour>
  </outline>
</glyph>
<glyph name="asterisk" format="2">
  <advance width="690"/>
  <unicode hex="002A"/>
  <outline>
    <contour>
      <point x="164" y="1085" type="line"/>
      <point x="256" y="1223" type="line"/>
      <point x="113" y="1268" type="line"/>
      <point x="145" y="1370" type="line"/>
      <point x="291" y="1311" type="line"/>
      <point x="283" y="1466" type="line"/>
      <point x="408" y="1466" type="line"/>
      <point x="399" y="1311" type="line"/>
      <point x="545" y="1370" type="line"/>
      <point x="575" y="1268" type="line"/>
      <point x="434" y="1223" type="line"/>
      <point x="526" y="1085" type="line"/>
      <point x="436" y="1024" type="line"/>
      <point x="346" y="1169" type="line"/>
      <point x="254" y="1024" type="line"/>
    </contour>
  </outline>
</glyph>
<glyph name="plus" format="2">
  <advance width="858"/>
  <unicode hex="002B"/>
  <outline>
    <contour>
      <point x="758" y="817" type="line"/>
      <point x="758" y="637" type="line"/>
      <point x="530" y="637" type="line"/>
      <point x="530" y="389" type="line"/>
      <point x="328" y="389" type="line"/>
      <point x="328" y="637" type="line"/>
      <point x="100" y="637" type="line"/>
      <point x="100" y="817" type="line"/>
      <point x="328" y="817" type="line"/>
      <point x="328" y="1065" type="line"/>
      <point x="530" y="1065" type="line"/>
      <point x="530" y="817" type="line"/>
    </contour>
  </outline>
</glyph>
<glyph name="comma" format="2">
  <advance width="452"/>
  <unicode hex="002C"/>
  <outline>
    <contour>
      <point x="150" y="-199" type="line"/>
      <point x="199" y="12" type="line"/>
      <point x="125" y="12" type="line"/>
      <point x="125" y="262" type="line"/>
      <point x="328" y="262" type="line"/>
      <point x="328" y="12" type="line"/>
      <point x="256" y="-199" type="line"/>
    </contour>
  </outline>
</glyph>
<glyph name="hyphen" format="2">
  <advance width="862"/>
  <unicode hex="002D"/>
  <outline>
    <contour>
      <point x="125" y="459" type="line"/>
      <point x="125" y="662" type="line"/>
      <point x="737" y="662" type="line"/>
      <point x="737" y="459" type="line"/>
    </contour>
  </outline>
</glyph>
<glyph name="period" format="2">
  <advance width="436"/>
  <unicode hex="002E"/>
  <outline>
    <contour>
      <point x="125" y="0" type="line"/>
      <point x="125" y="262" type="line"/>
      <point x="311" y="262" type="line"/>
      <point x="311" y="0" type="line"/>
    </contour>
  </outline>
</glyph>
<glyph name="zero" format="2">
  <advance width="1423"/>
  <unicode hex="0030"/>
  <outline>
    <contour>
      <point x="90" y="717" type="qcurve" smooth="yes"/>
      <point x="90" y="822"/>
      <point x="145" y="1033"/>
      <point x="253" y="1222"/>
      <point x="401" y="1368"/>
      <point x="601" y="1454"/>
      <point x="713" y="1454" type="qcurve" smooth="yes"/>
      <point x="831" y="1454"/>
      <point x="1037" y="1362"/>
      <point x="1181" y="1210"/>
      <point x="1284" y="1017"/>
      <point x="1333" y="814"/>
      <point x="1333" y="717" type="qcurve" smooth="yes"/>
      <point x="1333" y="611"/>
      <point x="1279" y="399"/>
      <point x="1171" y="212"/>
      <point x="1024" y="67"/>
      <point x="824" y="-19"/>
      <point x="713" y="-20" type="qcurve" smooth="yes"/>
      <point x="594" y="-18"/>
      <point x="388" y="73"/>
      <point x="244" y="222"/>
      <point x="140" y="413"/>
      <point x="90" y="617"/>
    </contour>
    <contour>
      <point x="713" y="186" type="qcurve" smooth="yes"/>
      <point x="790" y="186"/>
      <point x="920" y="253"/>
      <point x="1009" y="363"/>
      <point x="1071" y="503"/>
      <point x="1100" y="647"/>
      <point x="1100" y="717" type="qcurve" smooth="yes"/>
      <point x="1100" y="792"/>
      <point x="1068" y="942"/>
      <point x="1003" y="1079"/>
      <point x="912" y="1184"/>
      <point x="786" y="1247"/>
      <point x="713" y="1247" type="qcurve" smooth="yes"/>
      <point x="617" y="1247"/>
      <point x="463" y="1145"/>
      <point x="372" y="985"/>
      <point x="324" y="804"/>
      <point x="324" y="717" type="qcurve" smooth="yes"/>
      <point x="327" y="621"/>
      <point x="378" y="437"/>
      <point x="470" y="281"/>
      <point x="620" y="186"/>
    </contour>
  </outline>
</glyph>
<glyph name="one" format="2">
  <advance width="952"/>
  <unicode hex="0031"/>
  <outline>
    <contour>
      <point x="907" y="203" type="line"/>
      <point x="907" y="0" type="line"/>
      <point x="135" y="0" type="line"/>
      <point x="135" y="203" type="line"/>
      <point x="416" y="203" type="line"/>
      <point x="416" y="1239" type="line"/>
      <point x="378" y="1186"/>
      <point x="165" y="1063"/>
      <point x="88" y="1063" type="qcurve"/>
      <point x="88" y="1272" type="line"/>
      <point x="129" y="1272"/>
      <point x="225" y="1311"/>
      <point x="305" y="1366"/>
      <point x="375" y="1425"/>
      <point x="414" y="1464"/>
      <point x="416" y="1468" type="qcurve"/>
      <point x="647" y="1468" type="line"/>
      <point x="647" y="203" type="line"/>
    </contour>
  </outline>
</glyph>
<glyph name="three" format="2">
  <advance width="1198"/>
  <unicode hex="0033"/>
  <outline>
    <contour>
      <point x="567" y="-16" type="qcurve" smooth="yes"/>
      <point x="385" y="-16"/>
      <point x="126" y="137"/>
      <point x="82" y="270" type="qcurve"/>
      <point x="205" y="418" type="line"/>
      <point x="227" y="328"/>
      <point x="419" y="193"/>
      <point x="561" y="193" type="qcurve" smooth="yes"/>
      <point x="697" y="193"/>
      <point x="868" y="316"/>
      <point x="868" y="420" type="qcurve" smooth="yes"/>
      <point x="868" y="535"/>
      <point x="652" y="657"/>
      <point x="457" y="657" type="qcurve" smooth="yes"/>
      <point x="387" y="657" type="line"/>
      <point x="387" y="838" type="line"/>
      <point x="457" y="838" type="line" smooth="yes"/>
      <point x="631" y="838"/>
      <point x="829" y="950"/>
      <point x="829" y="1057" type="qcurve" smooth="yes"/>
      <point x="829" y="1156"/>
      <point x="675" y="1276"/>
      <point x="565" y="1276" type="qcurve" smooth="yes"/>
      <point x="452" y="1276"/>
      <point x="280" y="1173"/>
      <point x="238" y="1092" type="qcurve"/>
      <point x="90" y="1253" type="line"/>
      <point x="154" y="1353"/>
      <point x="421" y="1473"/>
      <point x="573" y="1473" type="qcurve" smooth="yes"/>
      <point x="788" y="1473"/>
      <point x="1069" y="1248"/>
      <point x="1069" y="1079" type="qcurve" smooth="yes"/>
      <point x="1069" y="956"/>
      <point x="922" y="787"/>
      <point x="791" y="758" type="qcurve"/>
      <point x="929" y="732"/>
      <point x="1100" y="525"/>
      <point x="1100" y="387" type="qcurve" smooth="yes"/>
      <point x="1100" y="263"/>
      <point x="954" y="77"/>
      <point x="714" y="-16"/>
    </contour>
  </outline>
</glyph>
<glyph name="eight" format="2">
  <advance width="1230"/>
  <unicode hex="0038"/>
  <outline>
    <contour>
      <point x="612" y="-16" type="qcurve" smooth="yes"/>
      <point x="392" y="-16"/>
      <point x="94" y="238"/>
      <point x="94" y="430" type="qcurve" smooth="yes"/>
      <point x="94" y="549"/>
      <point x="244" y="733"/>
      <point x="346" y="778" type="qcurve"/>
      <point x="259" y="816"/>
      <point x="143" y="971"/>
      <point x="143" y="1063" type="qcurve" smooth="yes"/>
      <point x="143" y="1154"/>
      <point x="228" y="1306"/>
      <point x="365" y="1401"/>
      <point x="530" y="1454"/>
      <point x="614" y="1454" type="qcurve" smooth="yes"/>
      <point x="699" y="1454"/>
      <point x="865" y="1402"/>
      <point x="1004" y="1307"/>
      <point x="1090" y="1156"/>
      <point x="1090" y="1065" type="qcurve" smooth="yes"/>
      <point x="1090" y="973"/>
      <point x="971" y="816"/>
      <point x="883" y="778" type="qcurve"/>
      <point x="991" y="730"/>
      <point x="1135" y="543"/>
      <point x="1135" y="420" type="qcurve" smooth="yes"/>
      <point x="1135" y="292"/>
      <point x="991" y="90"/>
      <point x="754" y="-16"/>
    </contour>
    <contour>
      <point x="614" y="856" type="qcurve" smooth="yes"/>
      <point x="708" y="856"/>
      <point x="860" y="967"/>
      <point x="860" y="1059" type="qcurve" smooth="yes"/>
      <point x="860" y="1145"/>
      <point x="715" y="1253"/>
      <point x="614" y="1253" type="qcurve" smooth="yes"/>
      <point x="514" y="1253"/>
      <point x="371" y="1143"/>
      <point x="371" y="1055" type="qcurve" smooth="yes"/>
      <point x="371" y="964"/>
      <point x="521" y="856"/>
    </contour>
    <contour>
      <point x="614" y="684" type="qcurve" smooth="yes"/>
      <point x="497" y="684"/>
      <point x="326" y="544"/>
      <point x="326" y="324"/>
      <point x="503" y="186"/>
      <point x="616" y="186" type="qcurve" smooth="yes"/>
      <point x="730" y="186"/>
      <point x="907" y="329"/>
      <point x="907" y="434" type="qcurve" smooth="yes"/>
      <point x="907" y="546"/>
      <point x="728" y="684"/>
    </contour>
  </outline>
</glyph>
<glyph name="nine" format="2">
  <advance width="1241"/>
  <unicode hex="0039"/>
  <outline>
    <contour>
      <point x="590" y="473" type="qcurve" smooth="yes"/>
      <point x="706" y="473"/>
      <point x="889" y="581"/>
      <point x="932" y="672" type="qcurve"/>
      <point x="931" y="439"/>
      <point x="747" y="178"/>
      <point x="592" y="178" type="qcurve" smooth="yes"/>
      <point x="494" y="178"/>
      <point x="325" y="279"/>
      <point x="279" y="365" type="qcurve"/>
      <point x="145" y="225" type="line"/>
      <point x="217" y="108"/>
      <point x="450" y="-20"/>
      <point x="590" y="-20" type="qcurve" smooth="yes"/>
      <point x="847" y="-20"/>
      <point x="1143" y="413"/>
      <point x="1143" y="821" type="qcurve" smooth="yes"/>
      <point x="1143" y="1121"/>
      <point x="855" y="1464"/>
      <point x="612" y="1464" type="qcurve" smooth="yes"/>
      <point x="466" y="1464"/>
      <point x="224" y="1331"/>
      <point x="86" y="1100"/>
      <point x="86" y="961" type="qcurve" smooth="yes"/>
      <point x="86" y="757"/>
      <point x="378" y="473"/>
    </contour>
    <contour>
      <point x="922" y="961" type="qcurve" smooth="yes"/>
      <point x="922" y="837"/>
      <point x="738" y="655"/>
      <point x="486" y="655"/>
      <point x="303" y="837"/>
      <point x="303" y="963" type="qcurve" smooth="yes"/>
      <point x="303" y="1091"/>
      <point x="484" y="1274"/>
      <point x="736" y="1274"/>
      <point x="922" y="1088"/>
    </contour>
  </outline>
</glyph>
<glyph name="colon" format="2">
  <advance width="456"/>
  <unicode hex="003A"/>
  <outline>
    <contour>
      <point x="135" y="801" type="line"/>
      <point x="135" y="1061" type="line"/>
      <point x="322" y="1061" type="line"/>
      <point x="322" y="801" type="line"/>
    </contour>
    <contour>
      <point x="135" y="0" type="line"/>
      <point x="135" y="262" type="line"/>
      <point x="322" y="262" type="line"/>
      <point x="322" y="0" type="line"/>
    </contour>
  </outline>
</glyph>
<glyph name="semicolon" format="2">
  <advance width="489"/>
  <unicode hex="003B"/>
  <outline>
    <contour>
      <point x="145" y="801" type="line"/>
      <point x="145" y="1061" type="line"/>
      <point x="330" y="1061" type="line"/>
      <point x="330" y="801" type="line"/>
    </contour>
    <contour>
      <point x="168" y="-199" type="line"/>
      <point x="217" y="12" type="line"/>
      <point x="143" y="12" type="line"/>
      <point x="143" y="262" type="line"/>
      <point x="346" y="262" type="line"/>
      <point x="346" y="12" type="line"/>
      <point x="274" y="-199" type="line"/>
    </contour>
  </outline>
</glyph>
<glyph name="less" format="2">
  <advance width="1048"/>
  <unicode hex="003C"/>
  <outline>
    <contour>
      <point x="68" y="582" type="line"/>
      <point x="928" y="1102" type="line"/>
      <point x="928" y="862" type="line"/>
      <point x="393" y="530" type="line"/>
      <point x="928" y="207" type="line"/>
      <point x="928" y="-43" type="line"/>
      <point x="68" y="469" type="line"/>
    </contour>
  </outline>
</glyph>
<glyph name="equal" format="2">
  <advance width="897"/>
  <unicode hex="003D"/>
  <outline>
    <contour>
      <point x="131" y="649" type="line"/>
      <point x="131" y="799" type="line"/>
      <point x="764" y="799" type="line"/>
      <point x="764" y="649" type="line"/>
    </contour>
    <contour>
      <point x="131" y="332" type="line"/>
      <point x="131" y="481" type="line"/>
      <point x="764" y="481" type="line"/>
      <point x="764" y="332" type="line"/>
    </contour>
  </outline>
</glyph>
<glyph name="greater" format="2">
  <advance width="1048"/>
  <unicode hex="003E"/>
  <outline>
    <contour>
      <point x="983" y="469" type="line"/>
      <point x="121" y="-43" type="line"/>
      <point x="121" y="207" type="line"/>
      <point x="655" y="530" type="line"/>
      <point x="121" y="862" type="line"/>
      <point x="121" y="1102" type="line"/>
      <point x="983" y="582" type="line"/>
    </contour>
  </outline>
</glyph>
<glyph name="question" format="2">
  <advance width="987"/>
  <unicode hex="003F"/>
  <outline>
    <contour>
      <point x="272" y="453" type="line"/>
      <point x="272" y="565"/>
      <point x="349" y="724"/>
      <point x="442" y="782" type="qcurve" smooth="yes"/>
      <point x="453" y="789"/>
      <point x="533" y="833"/>
      <point x="578" y="860"/>
      <point x="648" y="915"/>
      <point x="687" y="966"/>
      <point x="717" y="1040"/>
      <point x="717" y="1081" type="qcurve" smooth="yes"/>
      <point x="717" y="1176"/>
      <point x="584" y="1288"/>
      <point x="492" y="1288" type="qcurve" smooth="yes"/>
      <point x="402" y="1288"/>
      <point x="260" y="1184"/>
      <point x="217" y="1108" type="qcurve"/>
      <point x="70" y="1208" type="line"/>
      <point x="125" y="1332"/>
      <point x="358" y="1473"/>
      <point x="498" y="1473" type="qcurve" smooth="yes"/>
      <point x="577" y="1473"/>
      <point x="722" y="1425"/>
      <point x="842" y="1331"/>
      <point x="913" y="1174"/>
      <point x="913" y="1073" type="qcurve" smooth="yes"/>
      <point x="913" y="1004"/>
      <point x="879" y="895"/>
      <point x="809" y="813"/>
      <point x="733" y="755"/>
      <point x="676" y="723" type="qcurve" smooth="yes"/>
      <point x="670" y="720"/>
      <point x="605" y="682"/>
      <point x="590" y="672"/>
      <point x="537" y="636"/>
      <point x="520" y="615"/>
      <point x="485" y="573"/>
      <point x="473" y="536"/>
      <point x="461" y="483"/>
      <point x="461" y="453" type="qcurve"/>
    </contour>
    <contour>
      <point x="279" y="0" type="line"/>
      <point x="279" y="258" type="line"/>
      <point x="465" y="258" type="line"/>
      <point x="465" y="0" type="line"/>
    </contour>
  </outline>
</glyph>
<glyph name="at" format="2">
  <advance width="1726"/>
  <unicode hex="0040"/>
  <outline>
    <contour>
      <point x="1620" y="455" type="qcurve" smooth="yes"/>
      <point x="1620" y="423"/>
      <point x="1616" y="358"/>
      <point x="1601" y="257"/>
      <point x="1576" y="169"/>
      <point x="1529" y="76"/>
      <point x="1466" y="10"/>
      <point x="1368" y="-33"/>
      <point x="1309" y="-33" type="qcurve" smooth="yes"/>
      <point x="1258" y="-33"/>
      <point x="1185" y="-4"/>
      <point x="1145" y="50"/>
      <point x="1126" y="107"/>
      <point x="1122" y="143" type="qcurve"/>
      <point x="1060" y="78"/>
      <point x="877" y="0"/>
      <point x="774" y="0" type="qcurve" smooth="yes"/>
      <point x="627" y="0"/>
      <point x="463" y="157"/>
      <point x="463" y="283" type="qcurve" smooth="yes"/>
      <point x="463" y="346"/>
      <point x="508" y="448"/>
      <point x="581" y="512"/>
      <point x="682" y="555"/>
      <point x="787" y="573"/>
      <point x="844" y="573" type="qcurve" smooth="yes"/>
      <point x="972" y="573"/>
      <point x="1087" y="528" type="qcurve"/>
      <point x="1087" y="664"/>
      <point x="982" y="807"/>
      <point x="846" y="807" type="qcurve" smooth="yes"/>
      <point x="683" y="807"/>
      <point x="567" y="715" type="qcurve"/>
      <point x="522" y="838" type="line"/>
      <point x="677" y="940"/>
      <point x="866" y="940" type="qcurve" smooth="yes"/>
      <point x="936" y="940"/>
      <point x="1047" y="912"/>
      <point x="1122" y="867"/>
      <point x="1176" y="797"/>
      <point x="1206" y="728"/>
      <point x="1223" y="635"/>
      <point x="1227" y="563"/>
      <point x="1227" y="516" type="qcurve" smooth="yes"/>
      <point x="1227" y="295" type="line" smooth="yes"/>
      <point x="1227" y="253"/>
      <point x="1230" y="197"/>
      <point x="1242" y="134"/>
      <point x="1263" y="98"/>
      <point x="1302" y="74"/>
      <point x="1329" y="74" type="qcurve" smooth="yes"/>
      <point x="1384" y="74"/>
      <point x="1464" y="156"/>
      <point x="1503" y="284"/>
      <point x="1520" y="403"/>
      <point x="1520" y="459" type="qcurve" smooth="yes"/>
      <point x="1520" y="651"/>
      <point x="1351" y="962"/>
      <point x="1045" y="1141"/>
      <point x="854" y="1141" type="qcurve" smooth="yes"/>
      <point x="713" y="1141"/>
      <point x="467" y="1040"/>
      <point x="291" y="863"/>
      <point x="190" y="614"/>
      <point x="190" y="471" type="qcurve" smooth="yes"/>
      <point x="190" y="332"/>
      <point x="286" y="84"/>
      <point x="454" y="-98"/>
      <point x="696" y="-205"/>
      <point x="836" y="-205" type="qcurve" smooth="yes"/>
      <point x="923" y="-205"/>
      <point x="1066" y="-166"/>
      <point x="1153" y="-127" type="qcurve"/>
      <point x="1186" y="-217" type="line"/>
      <point x="1018" y="-299"/>
      <point x="834" y="-299" type="qcurve" smooth="yes"/>
      <point x="682" y="-299"/>
      <point x="409" y="-185"/>
      <point x="208" y="16"/>
      <point x="90" y="305"/>
      <point x="90" y="471" type="qcurve" smooth="yes"/>
      <point x="90" y="611"/>
      <point x="172" y="856"/>
      <point x="318" y="1037"/>
      <point x="512" y="1169"/>
      <point x="739" y="1235"/>
      <point x="860" y="1235" type="qcurve" smooth="yes"/>
      <point x="1012" y="1235"/>
      <point x="1286" y="1128"/>
      <point x="1496" y="933"/>
      <point x="1620" y="634"/>
    </contour>
    <contour>
      <point x="1085" y="340" type="qcurve" smooth="yes"/>
      <point x="1085" y="418" type="line"/>
      <point x="1083" y="418"/>
      <point x="991" y="445"/>
      <point x="894" y="461"/>
      <point x="844" y="461" type="qcurve" smooth="yes"/>
      <point x="735" y="461"/>
      <point x="602" y="379"/>
      <point x="602" y="289" type="qcurve" smooth="yes"/>
      <point x="602" y="216"/>
      <point x="701" y="123"/>
      <point x="786" y="123" type="qcurve" smooth="yes"/>
      <point x="880" y="123"/>
      <point x="971" y="166" type="qcurve" smooth="yes"/>
      <point x="1085" y="220"/>
    </contour>
  </outline>
</glyph>
<glyph name="A" format="2">
  <advance width="1382"/>
  <unicode hex="0041"/>
  <anchor x="0" y="0" name="Anchor-11"/>
  <anchor x="0" y="0" name="Anchor-10"/>
  <anchor x="692" y="1450" name="Anchor-9"/>
  <anchor x="1366" y="0" name="Anchor-8"/>
  <anchor x="711" y="0" name="Anchor-7"/>
  <outline>
    <contour>
      <point x="584" y="1454" type="line"/>
      <point x="801" y="1454" type="line"/>
      <point x="1366" y="0" type="line"/>
      <point x="1124" y="0" type="line"/>
      <point x="971" y="395" type="line"/>
      <point x="410" y="395" type="line"/>
      <point x="258" y="0" type="line"/>
      <point x="14" y="0" type="line"/>
    </contour>
    <contour>
      <point x="926" y="565" type="line"/>
      <point x="692" y="1202" type="line"/>
      <point x="451" y="565" type="line"/>
    </contour>
  </outline>
</glyph>
<glyph name="B" format="2">
  <advance width="1382"/>
  <unicode hex="0042"/>
  <outline>
    <contour>
      <point x="858" y="0" type="qcurve" smooth="yes"/>
      <point x="164" y="0" type="line"/>
      <point x="164" y="1454" type="line"/>
      <point x="913" y="1454" type="line" smooth="yes"/>
      <point x="1011" y="1454"/>
      <point x="1167" y="1343"/>
      <point x="1245" y="1176"/>
      <point x="1245" y="1083" type="qcurve" smooth="yes"/>
      <point x="1245" y="974"/>
      <point x="1133" y="788"/>
      <point x="1036" y="745" type="qcurve"/>
      <point x="1162" y="708"/>
      <point x="1307" y="512"/>
      <point x="1307" y="375" type="qcurve" smooth="yes"/>
      <point x="1307" y="205"/>
      <point x="1048" y="0"/>
    </contour>
    <contour>
      <point x="393" y="1255" type="line"/>
      <point x="393" y="827" type="line"/>
      <point x="815" y="827" type="line" smooth="yes"/>
      <point x="900" y="827"/>
      <point x="1016" y="948"/>
      <point x="1016" y="1040" type="qcurve" smooth="yes"/>
      <point x="1016" y="1134"/>
      <point x="909" y="1255"/>
      <point x="827" y="1255" type="qcurve" smooth="yes"/>
    </contour>
    <contour>
      <point x="872" y="643" type="qcurve" smooth="yes"/>
      <point x="393" y="643" type="line"/>
      <point x="393" y="199" type="line"/>
      <point x="858" y="199" type="line" smooth="yes"/>
      <point x="948" y="199"/>
      <point x="1071" y="328"/>
      <point x="1071" y="418" type="qcurve" smooth="yes"/>
      <point x="1071" y="509"/>
      <point x="957" y="643"/>
    </contour>
  </outline>
</glyph>
<glyph name="C" format="2">
  <advance width="1400"/>
  <unicode hex="0043"/>
  <anchor x="0" y="0" name="Anchor-11"/>
  <anchor x="0" y="0" name="Anchor-10"/>
  <anchor x="774" y="1450" name="Anchor-9"/>
  <anchor x="0" y="0" name="Anchor-8"/>
  <anchor x="766" y="0" name="Anchor-7"/>
  <outline>
    <contour>
      <point x="776" y="1462" type="qcurve" smooth="yes"/>
      <point x="967" y="1462"/>
      <point x="1256" y="1289"/>
      <point x="1329" y="1145" type="qcurve"/>
      <point x="1149" y="1024" type="line"/>
      <point x="1120" y="1087"/>
      <point x="1032" y="1180"/>
      <point x="928" y="1231"/>
      <point x="823" y="1255"/>
      <point x="768" y="1255" type="qcurve" smooth="yes"/>
      <point x="680" y="1255"/>
      <point x="528" y="1194"/>
      <point x="420" y="1092"/>
      <point x="342" y="956"/>
      <point x="305" y="806"/>
      <point x="305" y="729" type="qcurve" smooth="yes"/>
      <point x="305" y="588"/>
      <point x="424" y="344"/>
      <point x="642" y="195"/>
      <point x="774" y="195" type="qcurve" smooth="yes"/>
      <point x="849" y="195"/>
      <point x="992" y="242"/>
      <point x="1125" y="353"/>
      <point x="1161" y="434" type="qcurve"/>
      <point x="1352" y="326" type="line"/>
      <point x="1309" y="222"/>
      <point x="1115" y="64"/>
      <point x="883" y="-12"/>
      <point x="766" y="-12" type="qcurve" smooth="yes"/>
      <point x="618" y="-12"/>
      <point x="355" y="118"/>
      <point x="176" y="330"/>
      <point x="72" y="599"/>
      <point x="72" y="737" type="qcurve" smooth="yes"/>
      <point x="72" y="843"/>
      <point x="132" y="1052"/>
      <point x="253" y="1237"/>
      <point x="419" y="1379"/>
      <point x="647" y="1462"/>
    </contour>
  </outline>
</glyph>
<glyph name="D" format="2">
  <advance width="1466"/>
  <unicode hex="0044"/>
  <anchor x="0" y="0" name="Anchor-11"/>
  <anchor x="733" y="727" name="Anchor-10"/>
  <anchor x="686" y="1450" name="Anchor-9"/>
  <anchor x="0" y="0" name="Anchor-8"/>
  <anchor x="733" y="0" name="Anchor-7"/>
  <outline>
    <contour>
      <point x="164" y="0" type="line"/>
      <point x="164" y="1454" type="line"/>
      <point x="680" y="1454" type="line" smooth="yes"/>
      <point x="851" y="1454"/>
      <point x="1124" y="1341"/>
      <point x="1298" y="1142"/>
      <point x="1389" y="881"/>
      <point x="1389" y="729" type="qcurve" smooth="yes"/>
      <point x="1389" y="399"/>
      <point x="1002" y="0"/>
      <point x="680" y="0" type="qcurve" smooth="yes"/>
    </contour>
    <contour>
      <point x="680" y="1251" type="qcurve" smooth="yes"/>
      <point x="393" y="1251" type="line"/>
      <point x="393" y="203" type="line"/>
      <point x="680" y="203" type="line" smooth="yes"/>
      <point x="830" y="203"/>
      <point x="1047" y="342"/>
      <point x="1155" y="578"/>
      <point x="1155" y="729" type="qcurve" smooth="yes"/>
      <point x="1155" y="962"/>
      <point x="902" y="1251"/>
    </contour>
  </outline>
</glyph>
<glyph name="G" format="2">
  <advance width="1472"/>
  <unicode hex="0047"/>
  <anchor x="0" y="0" name="Anchor-11"/>
  <anchor x="0" y="0" name="Anchor-10"/>
  <anchor x="764" y="1450" name="Anchor-9"/>
  <anchor x="0" y="0" name="Anchor-8"/>
  <anchor x="764" y="0" name="Anchor-7"/>
  <outline>
    <contour>
      <point x="877" y="735" type="line"/>
      <point x="1374" y="735" type="line"/>
      <point x="1374" y="0" type="line"/>
      <point x="1182" y="0" type="line"/>
      <point x="1182" y="180" type="line"/>
      <point x="1001" y="-10"/>
      <point x="758" y="-10" type="qcurve" smooth="yes"/>
      <point x="617" y="-10"/>
      <point x="362" y="112"/>
      <point x="181" y="314"/>
      <point x="74" y="587"/>
      <point x="74" y="879"/>
      <point x="180" y="1148"/>
      <point x="361" y="1346"/>
      <point x="620" y="1464"/>
      <point x="766" y="1464" type="qcurve" smooth="yes"/>
      <point x="967" y="1464"/>
      <point x="1254" y="1295"/>
      <point x="1329" y="1147" type="qcurve"/>
      <point x="1153" y="1020" type="line"/>
      <point x="1094" y="1136"/>
      <point x="888" y="1257"/>
      <point x="760" y="1257" type="qcurve" smooth="yes"/>
      <point x="627" y="1257"/>
      <point x="417" y="1108"/>
      <point x="307" y="867"/>
      <point x="307" y="727" type="qcurve" smooth="yes"/>
      <point x="307" y="506"/>
      <point x="577" y="197"/>
      <point x="776" y="197" type="qcurve" smooth="yes"/>
      <point x="1002" y="197"/>
      <point x="1182" y="410" type="qcurve"/>
      <point x="1182" y="565" type="line"/>
      <point x="877" y="565" type="line"/>
    </contour>
  </outline>
</glyph>
<glyph name="M" format="2">
  <advance width="1781"/>
  <unicode hex="004D"/>
  <anchor x="0" y="0" name="Anchor-11"/>
  <anchor x="0" y="0" name="Anchor-10"/>
  <anchor x="891" y="1454" name="Anchor-9"/>
  <anchor x="0" y="0" name="Anchor-8"/>
  <anchor x="891" y="0" name="Anchor-7"/>
  <outline>
    <contour>
      <point x="1386" y="0" type="line"/>
      <point x="1386" y="1036" type="line"/>
      <point x="958" y="250" type="line"/>
      <point x="823" y="250" type="line"/>
      <point x="393" y="1036" type="line"/>
      <point x="393" y="0" type="line"/>
      <point x="164" y="0" type="line"/>
      <point x="164" y="1454" type="line"/>
      <point x="410" y="1454" type="line"/>
      <point x="891" y="565" type="line"/>
      <point x="1372" y="1454" type="line"/>
      <point x="1618" y="1454" type="line"/>
      <point x="1618" y="0" type="line"/>
    </contour>
  </outline>
</glyph>
<glyph name="N" format="2">
  <advance width="1570"/>
  <unicode hex="004E"/>
  <anchor x="0" y="0" name="Anchor-11"/>
  <anchor x="0" y="0" name="Anchor-10"/>
  <anchor x="786" y="1450" name="Anchor-9"/>
  <anchor x="0" y="0" name="Anchor-8"/>
  <anchor x="786" y="0" name="Anchor-7"/>
  <outline>
    <contour>
      <point x="393" y="1028" type="line"/>
      <point x="393" y="0" type="line"/>
      <point x="164" y="0" type="line"/>
      <point x="164" y="1454" type="line"/>
      <point x="352" y="1454" type="line"/>
      <point x="1176" y="403" type="line"/>
      <point x="1176" y="1452" type="line"/>
      <point x="1407" y="1452" type="line"/>
      <point x="1407" y="0" type="line"/>
      <point x="1206" y="0" type="line"/>
    </contour>
  </outline>
</glyph>
<glyph name="T" format="2">
  <advance width="1261"/>
  <unicode hex="0054"/>
  <anchor x="0" y="0" name="Anchor-11"/>
  <anchor x="0" y="0" name="Anchor-10"/>
  <anchor x="639" y="1450" name="Anchor-9"/>
  <anchor x="0" y="0" name="Anchor-8"/>
  <anchor x="635" y="0" name="Anchor-7"/>
  <outline>
    <contour>
      <point x="1231" y="1251" type="line"/>
      <point x="748" y="1251" type="line"/>
      <point x="748" y="0" type="line"/>
      <point x="516" y="0" type="line"/>
      <point x="516" y="1251" type="line"/>
      <point x="31" y="1251" type="line"/>
      <point x="31" y="1454" type="line"/>
      <point x="1231" y="1454" type="line"/>
    </contour>
  </outline>
</glyph>
<glyph name="V" format="2">
  <advance width="1388"/>
  <unicode hex="0056"/>
  <outline>
    <contour>
      <point x="256" y="1454" type="line"/>
      <point x="694" y="281" type="line"/>
      <point x="1130" y="1454" type="line"/>
      <point x="1374" y="1454" type="line"/>
      <point x="803" y="0" type="line"/>
      <point x="586" y="0" type="line"/>
      <point x="12" y="1454" type="line"/>
    </contour>
  </outline>
</glyph>
<glyph name="bracketleft" format="2">
  <advance width="598"/>
  <unicode hex="005B"/>
  <outline>
    <contour>
      <point x="170" y="-82" type="line"/>
      <point x="170" y="1516" type="line"/>
      <point x="504" y="1516" type="line"/>
      <point x="504" y="1333" type="line"/>
      <point x="379" y="1333" type="line"/>
      <point x="379" y="100" type="line"/>
      <point x="504" y="100" type="line"/>
      <point x="504" y="-82" type="line"/>
    </contour>
  </outline>
</glyph>
<glyph name="backslash" format="2">
  <advance width="1253"/>
  <unicode hex="005C"/>
  <outline>
    <contour>
      <point x="307" y="1454" type="line"/>
      <point x="1198" y="0" type="line"/>
      <point x="948" y="0" type="line"/>
      <point x="55" y="1454" type="line"/>
    </contour>
  </outline>
</glyph>
<glyph name="bracketright" format="2">
  <advance width="598"/>
  <unicode hex="005D"/>
  <outline>
    <contour>
      <point x="94" y="-82" type="line"/>
      <point x="94" y="100" type="line"/>
      <point x="219" y="100" type="line"/>
      <point x="219" y="1333" type="line"/>
      <point x="94" y="1333" type="line"/>
      <point x="94" y="1516" type="line"/>
      <point x="428" y="1516" type="line"/>
      <point x="428" y="-82" type="line"/>
    </contour>
  </outline>
</glyph>
<glyph name="asciicircum" format="2">
  <advance width="1165"/>
  <unicode hex="005E"/>
  <outline>
    <contour>
      <point x="84" y="621" type="line"/>
      <point x="489" y="1454" type="line"/>
      <point x="678" y="1454" type="line"/>
      <point x="1081" y="621" type="line"/>
      <point x="893" y="621" type="line"/>
      <point x="584" y="1260" type="line"/>
      <point x="268" y="621" type="line"/>
    </contour>
  </outline>
</glyph>
<glyph name="underscore" format="2">
  <advance width="1003"/>
  <unicode hex="005F"/>
  <outline>
    <contour>
      <point x="121" y="-203" type="line"/>
      <point x="121" y="0" type="line"/>
      <point x="883" y="0" type="line"/>
      <point x="883" y="-203" type="line"/>
    </contour>
  </outline>
</glyph>
<glyph name="grave" format="2">
  <advance width="497"/>
  <unicode hex="0060"/>
  <outline>
    <contour>
      <point x="96" y="1495" type="line"/>
      <point x="311" y="1495" type="line"/>
      <point x="428" y="1270" type="line"/>
      <point x="285" y="1225" type="line"/>
    </contour>
  </outline>
</glyph>
<glyph name="b" format="2">
  <advance width="1286"/>
  <unicode hex="0062"/>
  <outline>
    <contour>
      <point x="334" y="195" type="qcurve"/>
      <point x="334" y="0" type="line"/>
      <point x="135" y="0" type="line"/>
      <point x="135" y="1495" type="line"/>
      <point x="360" y="1495" type="line"/>
      <point x="360" y="868" type="line"/>
      <point x="425" y="973"/>
      <point x="619" y="1090"/>
      <point x="743" y="1090" type="qcurve" smooth="yes"/>
      <point x="848" y="1090"/>
      <point x="1028" y="998"/>
      <point x="1150" y="843"/>
      <point x="1219" y="640"/>
      <point x="1219" y="530" type="qcurve" smooth="yes"/>
      <point x="1219" y="379"/>
      <point x="1087" y="127"/>
      <point x="854" y="-20"/>
      <point x="713" y="-20" type="qcurve" smooth="yes"/>
      <point x="592" y="-20"/>
      <point x="392" y="95"/>
    </contour>
    <contour>
      <point x="987" y="530" type="qcurve" smooth="yes"/>
      <point x="987" y="679"/>
      <point x="806" y="897"/>
      <point x="670" y="897" type="qcurve" smooth="yes"/>
      <point x="571" y="897"/>
      <point x="405" y="766"/>
      <point x="360" y="666" type="qcurve"/>
      <point x="360" y="383" type="line"/>
      <point x="384" y="294"/>
      <point x="562" y="172"/>
      <point x="653" y="172" type="qcurve" smooth="yes"/>
      <point x="797" y="172"/>
      <point x="987" y="385"/>
    </contour>
  </outline>
</glyph>
<glyph name="d" format="2">
  <advance width="1304"/>
  <unicode hex="0064"/>
  <anchor x="1253" y="1071" name="Anchor-11"/>
  <anchor x="653" y="535" name="Anchor-10"/>
  <anchor x="653" y="1071" name="Anchor-9"/>
  <anchor x="0" y="0" name="Anchor-8"/>
  <anchor x="653" y="0" name="Anchor-7"/>
  <outline>
    <contour>
      <point x="68" y="535" type="qcurve" smooth="yes"/>
      <point x="68" y="687"/>
      <point x="190" y="940"/>
      <point x="413" y="1090"/>
      <point x="551" y="1090" type="qcurve" smooth="yes"/>
      <point x="670" y="1090"/>
      <point x="870" y="967"/>
      <point x="928" y="868" type="qcurve"/>
      <point x="928" y="1495" type="line"/>
      <point x="1153" y="1495" type="line"/>
      <point x="1153" y="254" type="line" smooth="yes"/>
      <point x="1153" y="215"/>
      <point x="1181" y="181"/>
      <point x="1214" y="180" type="qcurve"/>
      <point x="1214" y="0" type="line"/>
      <point x="1155" y="-10"/>
      <point x="1116" y="-10" type="qcurve" smooth="yes"/>
      <point x="1053" y="-10"/>
      <point x="966" y="62"/>
      <point x="963" y="115" type="qcurve" smooth="yes"/>
      <point x="961" y="195" type="line"/>
      <point x="900" y="94"/>
      <point x="694" y="-20"/>
      <point x="578" y="-20" type="qcurve" smooth="yes"/>
      <point x="433" y="-20"/>
      <point x="198" y="131"/>
      <point x="68" y="384"/>
    </contour>
    <contour>
      <point x="928" y="385" type="qcurve"/>
      <point x="928" y="666" type="line"/>
      <point x="893" y="763"/>
      <point x="711" y="897"/>
      <point x="618" y="897" type="qcurve" smooth="yes"/>
      <point x="526" y="897"/>
      <point x="379" y="792"/>
      <point x="301" y="625"/>
      <point x="301" y="530" type="qcurve" smooth="yes"/>
      <point x="301" y="381"/>
      <point x="494" y="172"/>
      <point x="635" y="172" type="qcurve" smooth="yes"/>
      <point x="726" y="172"/>
      <point x="905" y="297"/>
    </contour>
  </outline>
</glyph>
<glyph name="f" format="2">
  <advance width="729"/>
  <unicode hex="0066"/>
  <outline>
    <contour>
      <point x="197" y="0" type="line"/>
      <point x="197" y="870" type="line"/>
      <point x="53" y="870" type="line"/>
      <point x="53" y="1044" type="line"/>
      <point x="197" y="1044" type="line"/>
      <point x="197" y="1087" type="line" smooth="yes"/>
      <point x="197" y="1284"/>
      <point x="382" y="1516"/>
      <point x="539" y="1516" type="qcurve" smooth="yes"/>
      <point x="666" y="1516"/>
      <point x="788" y="1450" type="qcurve"/>
      <point x="739" y="1282" type="line"/>
      <point x="668" y="1325"/>
      <point x="586" y="1325" type="qcurve" smooth="yes"/>
      <point x="506" y="1325"/>
      <point x="422" y="1206"/>
      <point x="422" y="1094" type="qcurve" smooth="yes"/>
      <point x="422" y="1044" type="line"/>
      <point x="696" y="1044" type="line"/>
      <point x="696" y="870" type="line"/>
      <point x="422" y="870" type="line"/>
      <point x="422" y="0" type="line"/>
    </contour>
  </outline>
</glyph>
<glyph name="k" format="2">
  <advance width="1122"/>
  <unicode hex="006B"/>
  <anchor x="0" y="0" name="Anchor-11"/>
  <anchor x="0" y="0" name="Anchor-10"/>
  <anchor x="0" y="0" name="Anchor-9"/>
  <anchor x="0" y="0" name="Anchor-8"/>
  <anchor x="582" y="0" name="Anchor-7"/>
  <outline>
    <contour>
      <point x="881" y="0" type="line"/>
      <point x="537" y="494" type="line"/>
      <point x="360" y="326" type="line"/>
      <point x="360" y="0" type="line"/>
      <point x="135" y="0" type="line"/>
      <point x="135" y="1495" type="line"/>
      <point x="360" y="1495" type="line"/>
      <point x="360" y="553" type="line"/>
      <point x="856" y="1069" type="line"/>
      <point x="1098" y="1069" type="line"/>
      <point x="682" y="621" type="line"/>
      <point x="1120" y="0" type="line"/>
    </contour>
  </outline>
</glyph>
<glyph name="m" format="2">
  <advance width="1898"/>
  <unicode hex="006D"/>
  <anchor x="0" y="0" name="Anchor-11"/>
  <anchor x="0" y="0" name="Anchor-10"/>
  <anchor x="950" y="1071" name="Anchor-9"/>
  <anchor x="0" y="0" name="Anchor-8"/>
  <anchor x="950" y="0" name="Anchor-7"/>
  <outline>
    <contour>
      <point x="1774" y="0" type="line"/>
      <point x="1548" y="0" type="line"/>
      <point x="1548" y="600" type="line" smooth="yes"/>
      <point x="1548" y="889"/>
      <point x="1356" y="889" type="qcurve" smooth="yes"/>
      <point x="1261" y="889"/>
      <point x="1101" y="748"/>
      <point x="1067" y="635" type="qcurve"/>
      <point x="1067" y="0" type="line"/>
      <point x="842" y="0" type="line"/>
      <point x="842" y="600" type="line" smooth="yes"/>
      <point x="842" y="889"/>
      <point x="651" y="889" type="qcurve" smooth="yes"/>
      <point x="556" y="889"/>
      <point x="394" y="749"/>
      <point x="360" y="637" type="qcurve"/>
      <point x="360" y="0" type="line"/>
      <point x="135" y="0" type="line"/>
      <point x="135" y="1071" type="line"/>
      <point x="340" y="1071" type="line"/>
      <point x="340" y="856" type="line"/>
      <point x="403" y="969"/>
      <point x="611" y="1090"/>
      <point x="743" y="1090" type="qcurve" smooth="yes"/>
      <point x="870" y="1090"/>
      <point x="1029" y="955"/>
      <point x="1049" y="846" type="qcurve"/>
      <point x="1117" y="965"/>
      <point x="1322" y="1090"/>
      <point x="1452" y="1090" type="qcurve" smooth="yes"/>
      <point x="1774" y="1090"/>
      <point x="1774" y="653" type="qcurve" smooth="yes"/>
    </contour>
  </outline>
</glyph>
<glyph name="q" format="2">
  <advance width="1286"/>
  <unicode hex="0071"/>
  <outline>
    <contour>
      <point x="70" y="537" type="qcurve" smooth="yes"/>
      <point x="70" y="688"/>
      <point x="201" y="941"/>
      <point x="432" y="1090"/>
      <point x="573" y="1090" type="qcurve" smooth="yes"/>
      <point x="693" y="1090"/>
      <point x="892" y="974"/>
      <point x="952" y="877" type="qcurve"/>
      <point x="952" y="1071" type="line"/>
      <point x="1151" y="1071" type="line"/>
      <point x="1151" y="-436" type="line"/>
      <point x="926" y="-436" type="line"/>
      <point x="926" y="201" type="line"/>
      <point x="792" y="-20"/>
      <point x="543" y="-20" type="qcurve" smooth="yes"/>
      <point x="407" y="-20"/>
      <point x="188" y="133"/>
      <point x="70" y="387"/>
    </contour>
    <contour>
      <point x="926" y="377" type="qcurve"/>
      <point x="926" y="659" type="line"/>
      <point x="906" y="754"/>
      <point x="722" y="897"/>
      <point x="625" y="897" type="qcurve" smooth="yes"/>
      <point x="533" y="897"/>
      <point x="381" y="792"/>
      <point x="299" y="624"/>
      <point x="299" y="530" type="qcurve" smooth="yes"/>
      <point x="299" y="380"/>
      <point x="484" y="172"/>
      <point x="625" y="172" type="qcurve" smooth="yes"/>
      <point x="810" y="172"/>
    </contour>
  </outline>
</glyph>
<glyph name="v" format="2">
  <advance width="1114"/>
  <unicode hex="0076"/>
  <outline>
    <contour>
      <point x="434" y="0" type="line"/>
      <point x="27" y="1071" type="line"/>
      <point x="260" y="1071" type="line"/>
      <point x="565" y="209" type="line"/>
      <point x="870" y="1071" type="line"/>
      <point x="1087" y="1071" type="line"/>
      <point x="680" y="0" type="line"/>
    </contour>
  </outline>
</glyph>
<glyph name="x" format="2">
  <advance width="1069"/>
  <unicode hex="0078"/>
  <outline>
    <contour>
      <point x="262" y="1071" type="line"/>
      <point x="516" y="705" type="line"/>
      <point x="535" y="670" type="line"/>
      <point x="553" y="705" type="line"/>
      <point x="805" y="1071" type="line"/>
      <point x="1049" y="1071" type="line"/>
      <point x="664" y="535" type="line"/>
      <point x="1053" y="0" type="line"/>
      <point x="809" y="0" type="line"/>
      <point x="553" y="365" type="line"/>
      <point x="535" y="397" type="line"/>
      <point x="516" y="365" type="line"/>
      <point x="260" y="0" type="line"/>
      <point x="16" y="0" type="line"/>
      <point x="406" y="532" type="line"/>
      <point x="20" y="1071" type="line"/>
    </contour>
  </outline>
</glyph>
<glyph name="braceleft" format="2">
  <advance width="600"/>
  <unicode hex="007B"/>
  <outline>
    <contour>
      <point x="389" y="1333" type="line"/>
      <point x="389" y="874" type="line" smooth="yes"/>
      <point x="389" y="796"/>
      <point x="324" y="737" type="qcurve"/>
      <point x="354" y="710"/>
      <point x="389" y="635"/>
      <point x="389" y="600" type="qcurve" smooth="yes"/>
      <point x="389" y="119" type="line"/>
      <point x="502" y="119" type="line"/>
      <point x="502" y="-63" type="line"/>
      <point x="231" y="-63" type="line" smooth="yes"/>
      <point x="214" y="-63"/>
      <point x="184" y="-34"/>
      <point x="184" y="-2" type="qcurve" smooth="yes"/>
      <point x="184" y="530" type="line" smooth="yes"/>
      <point x="184" y="579"/>
      <point x="130" y="651"/>
      <point x="90" y="659" type="qcurve"/>
      <point x="90" y="819" type="line"/>
      <point x="130" y="819"/>
      <point x="184" y="902"/>
      <point x="184" y="944" type="qcurve" smooth="yes"/>
      <point x="184" y="1454" type="line" smooth="yes"/>
      <point x="184" y="1487"/>
      <point x="215" y="1516"/>
      <point x="231" y="1516" type="qcurve" smooth="yes"/>
      <point x="502" y="1516" type="line"/>
      <point x="502" y="1333" type="line"/>
    </contour>
  </outline>
</glyph>
<glyph name="bar" format="2">
  <advance width="524"/>
  <unicode hex="007C"/>
  <outline>
    <contour>
      <point x="166" y="-266" type="line"/>
      <point x="166" y="1587" type="line"/>
      <point x="358" y="1587" type="line"/>
      <point x="358" y="-266" type="line"/>
    </contour>
  </outline>
</glyph>
<glyph name="braceright" format="2">
  <advance width="600"/>
  <unicode hex="007D"/>
  <outline>
    <contour>
      <point x="100" y="1333" type="line"/>
      <point x="100" y="1516" type="line"/>
      <point x="369" y="1516" type="line" smooth="yes"/>
      <point x="384" y="1516"/>
      <point x="416" y="1487"/>
      <point x="416" y="1454" type="qcurve" smooth="yes"/>
      <point x="416" y="944" type="line" smooth="yes"/>
      <point x="416" y="902"/>
      <point x="470" y="819"/>
      <point x="510" y="819" type="qcurve"/>
      <point x="510" y="659" type="line"/>
      <point x="469" y="651"/>
      <point x="416" y="579"/>
      <point x="416" y="530" type="qcurve" smooth="yes"/>
      <point x="416" y="-2" type="line" smooth="yes"/>
      <point x="416" y="-34"/>
      <point x="386" y="-63"/>
      <point x="369" y="-63" type="qcurve" smooth="yes"/>
      <point x="100" y="-63" type="line"/>
      <point x="100" y="119" type="line"/>
      <point x="213" y="119" type="line"/>
      <point x="213" y="600" type="line" smooth="yes"/>
      <point x="213" y="636"/>
      <point x="245" y="711"/>
      <point x="276" y="737" type="qcurve"/>
      <point x="213" y="794"/>
      <point x="213" y="874" type="qcurve" smooth="yes"/>
      <point x="213" y="1333" type="line"/>
    </contour>
  </outline>
</glyph>
<glyph name="asciitilde" format="2">
  <advance width="1124"/>
  <unicode hex="007E"/>
  <outline>
    <contour>
      <point x="385" y="725" type="qcurve" smooth="yes"/>
      <point x="432" y="725"/>
      <point x="531" y="690"/>
      <point x="602" y="647"/>
      <point x="694" y="612"/>
      <point x="733" y="612" type="qcurve" smooth="yes"/>
      <point x="764" y="612"/>
      <point x="816" y="632"/>
      <point x="846" y="661"/>
      <point x="866" y="693"/>
      <point x="874" y="713"/>
      <point x="874" y="717" type="qcurve"/>
      <point x="1004" y="717" type="line"/>
      <point x="1004" y="708"/>
      <point x="988" y="660"/>
      <point x="946" y="587"/>
      <point x="888" y="522"/>
      <point x="789" y="475"/>
      <point x="731" y="475" type="qcurve" smooth="yes"/>
      <point x="683" y="475"/>
      <point x="581" y="510"/>
      <point x="509" y="553"/>
      <point x="420" y="588"/>
      <point x="383" y="588" type="qcurve" smooth="yes"/>
      <point x="353" y="588"/>
      <point x="305" y="565"/>
      <point x="277" y="534"/>
      <point x="258" y="499"/>
      <point x="252" y="478"/>
      <point x="252" y="475" type="qcurve"/>
      <point x="125" y="475" type="line"/>
      <point x="125" y="490"/>
      <point x="141" y="544"/>
      <point x="181" y="617"/>
      <point x="237" y="681"/>
      <point x="330" y="725"/>
    </contour>
  </outline>
</glyph>
<glyph name="exclamdown" format="2">
  <advance width="577"/>
  <unicode hex="00A1"/>
  <outline>
    <contour>
      <point x="401" y="1460" type="line"/>
      <point x="401" y="1180" type="line"/>
      <point x="176" y="1180" type="line"/>
      <point x="176" y="1460" type="line"/>
    </contour>
    <contour>
      <point x="401" y="942" type="line"/>
      <point x="401" y="-8" type="line"/>
      <point x="176" y="-8" type="line"/>
      <point x="176" y="942" type="line"/>
    </contour>
  </outline>
</glyph>
<glyph name="cent" format="2">
  <advance width="1187"/>
  <unicode hex="00A2"/>
  <outline>
    <contour>
      <point x="565" y="-246" type="line"/>
      <point x="565" y="-18" type="line"/>
      <point x="428" y="-7"/>
      <point x="204" y="157"/>
      <point x="84" y="398"/>
      <point x="84" y="528" type="qcurve" smooth="yes"/>
      <point x="84" y="667"/>
      <point x="195" y="905"/>
      <point x="417" y="1068"/>
      <point x="565" y="1087" type="qcurve"/>
      <point x="565" y="1321" type="line"/>
      <point x="672" y="1321" type="line"/>
      <point x="672" y="1087" type="line"/>
      <point x="818" y="1083"/>
      <point x="1041" y="946"/>
      <point x="1104" y="823" type="qcurve"/>
      <point x="887" y="754" type="line"/>
      <point x="851" y="816"/>
      <point x="738" y="884"/>
      <point x="672" y="889" type="qcurve"/>
      <point x="672" y="178" type="line"/>
      <point x="741" y="186"/>
      <point x="874" y="264"/>
      <point x="893" y="319" type="qcurve"/>
      <point x="1112" y="254" type="line"/>
      <point x="1077" y="168"/>
      <point x="917" y="39"/>
      <point x="747" y="-20"/>
      <point x="672" y="-20" type="qcurve"/>
      <point x="672" y="-246" type="line"/>
    </contour>
    <contour>
      <point x="565" y="188" type="qcurve"/>
      <point x="565" y="881" type="line"/>
      <point x="451" y="863"/>
      <point x="315" y="657"/>
      <point x="315" y="528" type="qcurve" smooth="yes"/>
      <point x="315" y="407"/>
      <point x="456" y="214"/>
    </contour>
  </outline>
</glyph>
<glyph name="sterling" format="2">
  <advance width="1081"/>
  <unicode hex="00A3"/>
  <outline>
    <contour>
      <point x="946" y="197" type="qcurve"/>
      <point x="1001" y="29" type="line"/>
      <point x="891" y="-31"/>
      <point x="770" y="-31" type="qcurve" smooth="yes"/>
      <point x="709" y="-31"/>
      <point x="471" y="25"/>
      <point x="406" y="25" type="qcurve" smooth="yes"/>
      <point x="291" y="25"/>
      <point x="160" y="-16" type="qcurve"/>
      <point x="106" y="145" type="line"/>
      <point x="226" y="251"/>
      <point x="338" y="446"/>
      <point x="338" y="545" type="qcurve" smooth="yes"/>
      <point x="338" y="566"/>
      <point x="334" y="602" type="qcurve"/>
      <point x="113" y="602" type="line"/>
      <point x="113" y="774" type="line"/>
      <point x="276" y="774" type="line"/>
      <point x="267" y="793"/>
      <point x="206" y="912"/>
      <point x="182" y="967"/>
      <point x="156" y="1063"/>
      <point x="156" y="1106" type="qcurve" smooth="yes"/>
      <point x="156" y="1255"/>
      <point x="393" y="1464"/>
      <point x="561" y="1464" type="qcurve" smooth="yes"/>
      <point x="679" y="1464"/>
      <point x="894" y="1349"/>
      <point x="965" y="1249" type="qcurve"/>
      <point x="844" y="1110" type="line"/>
      <point x="795" y="1186"/>
      <point x="635" y="1280"/>
      <point x="557" y="1280" type="qcurve" smooth="yes"/>
      <point x="472" y="1280"/>
      <point x="360" y="1168"/>
      <point x="360" y="1085" type="qcurve" smooth="yes"/>
      <point x="360" y="1039"/>
      <point x="395" y="945"/>
      <point x="468" y="809"/>
      <point x="483" y="774" type="qcurve"/>
      <point x="856" y="774" type="line"/>
      <point x="856" y="602" type="line"/>
      <point x="532" y="602" type="line"/>
      <point x="535" y="581"/>
      <point x="535" y="555" type="qcurve" smooth="yes"/>
      <point x="535" y="458"/>
      <point x="449" y="285"/>
      <point x="346" y="176" type="qcurve"/>
      <point x="436" y="199"/>
      <point x="500" y="199" type="qcurve" smooth="yes"/>
      <point x="553" y="199"/>
      <point x="735" y="162"/>
      <point x="782" y="162" type="qcurve" smooth="yes"/>
      <point x="846" y="162"/>
    </contour>
  </outline>
</glyph>
<glyph name="currency" format="2">
  <advance width="1116"/>
  <unicode hex="00A4"/>
  <outline>
    <contour>
      <point x="338" y="1006" type="line"/>
      <point x="432" y="1071"/>
      <point x="559" y="1071" type="qcurve" smooth="yes"/>
      <point x="681" y="1071"/>
      <point x="778" y="1006" type="qcurve"/>
      <point x="922" y="1151" type="line"/>
      <point x="1020" y="1055" type="line"/>
      <point x="874" y="911" type="line"/>
      <point x="942" y="815"/>
      <point x="942" y="690" type="qcurve" smooth="yes"/>
      <point x="942" y="567"/>
      <point x="872" y="469" type="qcurve"/>
      <point x="1020" y="326" type="line"/>
      <point x="932" y="240" type="line"/>
      <point x="782" y="379" type="line"/>
      <point x="684" y="311"/>
      <point x="559" y="311" type="qcurve" smooth="yes"/>
      <point x="433" y="311"/>
      <point x="332" y="379" type="qcurve"/>
      <point x="182" y="240" type="line"/>
      <point x="96" y="326" type="line"/>
      <point x="242" y="471" type="line"/>
      <point x="174" y="571"/>
      <point x="174" y="690" type="qcurve" smooth="yes"/>
      <point x="174" y="815"/>
      <point x="240" y="909" type="qcurve"/>
      <point x="96" y="1055" type="line"/>
      <point x="193" y="1151" type="line"/>
    </contour>
    <contour>
      <point x="647" y="459"/>
      <point x="768" y="593"/>
      <point x="768" y="791"/>
      <point x="647" y="922"/>
      <point x="471" y="922"/>
      <point x="350" y="789"/>
      <point x="350" y="688" type="qcurve" smooth="yes"/>
      <point x="350" y="591"/>
      <point x="471" y="459"/>
    </contour>
  </outline>
</glyph>
<glyph name="yen" format="2">
  <advance width="1431"/>
  <unicode hex="00A5"/>
  <outline>
    <contour>
      <point x="979" y="797" type="line"/>
      <point x="1137" y="797" type="line"/>
      <point x="1137" y="647" type="line"/>
      <point x="899" y="647" type="line"/>
      <point x="827" y="520" type="line"/>
      <point x="827" y="461" type="line"/>
      <point x="1139" y="461" type="line"/>
      <point x="1139" y="311" type="line"/>
      <point x="827" y="311" type="line"/>
      <point x="827" y="0" type="line"/>
      <point x="596" y="0" type="line"/>
      <point x="596" y="311" type="line"/>
      <point x="289" y="311" type="line"/>
      <point x="289" y="461" type="line"/>
      <point x="596" y="461" type="line"/>
      <point x="596" y="524" type="line"/>
      <point x="528" y="647" type="line"/>
      <point x="289" y="647" type="line"/>
      <point x="289" y="797" type="line"/>
      <point x="451" y="797" type="line"/>
      <point x="59" y="1454" type="line"/>
      <point x="311" y="1454" type="line"/>
      <point x="713" y="725" type="line"/>
      <point x="1118" y="1454" type="line"/>
      <point x="1370" y="1454" type="line"/>
    </contour>
  </outline>
</glyph>
<glyph name="section" format="2">
  <advance width="1073"/>
  <unicode hex="00A7"/>
  <outline>
    <contour>
      <point x="987" y="215" type="qcurve" smooth="yes"/>
      <point x="987" y="134"/>
      <point x="931" y="-1"/>
      <point x="841" y="-90"/>
      <point x="724" y="-153"/>
      <point x="605" y="-180"/>
      <point x="547" y="-180" type="qcurve" smooth="yes"/>
      <point x="474" y="-180"/>
      <point x="335" y="-141"/>
      <point x="226" y="-75"/>
      <point x="149" y="-12"/>
      <point x="117" y="23" type="qcurve"/>
      <point x="262" y="162" type="line"/>
      <point x="386" y="35"/>
      <point x="537" y="35" type="qcurve" smooth="yes"/>
      <point x="624" y="35"/>
      <point x="754" y="128"/>
      <point x="754" y="207" type="qcurve" smooth="yes"/>
      <point x="754" y="241"/>
      <point x="729" y="291"/>
      <point x="693" y="319"/>
      <point x="635" y="337"/>
      <point x="588" y="344"/>
      <point x="555" y="346" type="qcurve" smooth="yes"/>
      <point x="361" y="358"/>
      <point x="139" y="543"/>
      <point x="139" y="698" type="qcurve" smooth="yes"/>
      <point x="139" y="793"/>
      <point x="184" y="858" type="qcurve"/>
      <point x="146" y="891"/>
      <point x="92" y="1014"/>
      <point x="92" y="1090" type="qcurve" smooth="yes"/>
      <point x="92" y="1245"/>
      <point x="343" y="1464"/>
      <point x="512" y="1464" type="qcurve" smooth="yes"/>
      <point x="593" y="1464"/>
      <point x="730" y="1422"/>
      <point x="831" y="1347"/>
      <point x="897" y="1278"/>
      <point x="928" y="1233" type="qcurve"/>
      <point x="754" y="1151" type="line"/>
      <point x="723" y="1206"/>
      <point x="600" y="1264"/>
      <point x="526" y="1264" type="qcurve" smooth="yes"/>
      <point x="440" y="1264"/>
      <point x="319" y="1169"/>
      <point x="319" y="1092" type="qcurve" smooth="yes"/>
      <point x="319" y="1007"/>
      <point x="428" y="938"/>
      <point x="526" y="936" type="qcurve" smooth="yes"/>
      <point x="589" y="935"/>
      <point x="707" y="912"/>
      <point x="821" y="862"/>
      <point x="905" y="787"/>
      <point x="956" y="672"/>
      <point x="956" y="600" type="qcurve" smooth="yes"/>
      <point x="956" y="545"/>
      <point x="927" y="451"/>
      <point x="907" y="426" type="qcurve"/>
      <point x="987" y="362"/>
    </contour>
    <contour>
      <point x="696" y="483" type="qcurve"/>
      <point x="717" y="500"/>
      <point x="743" y="563"/>
      <point x="743" y="596" type="qcurve" smooth="yes"/>
      <point x="743" y="638"/>
      <point x="704" y="703"/>
      <point x="641" y="737"/>
      <point x="571" y="754"/>
      <point x="535" y="754" type="qcurve" smooth="yes"/>
      <point x="445" y="754"/>
      <point x="399" y="776" type="qcurve"/>
      <point x="358" y="738"/>
      <point x="358" y="670" type="qcurve" smooth="yes"/>
      <point x="358" y="615"/>
      <point x="407" y="545"/>
      <point x="489" y="517"/>
      <point x="573" y="505"/>
      <point x="671" y="493"/>
    </contour>
  </outline>
</glyph>
<glyph name="dieresis" format="2">
  <advance width="841"/>
  <unicode hex="00A8"/>
  <anchor x="420" y="1475" name="Anchor-13"/>
  <outline>
    <contour>
      <point x="145" y="1260" type="line"/>
      <point x="145" y="1485" type="line"/>
      <point x="334" y="1485" type="line"/>
      <point x="334" y="1260" type="line"/>
    </contour>
    <contour>
      <point x="508" y="1260" type="line"/>
      <point x="508" y="1485" type="line"/>
      <point x="696" y="1485" type="line"/>
      <point x="696" y="1260" type="line"/>
    </contour>
  </outline>
</glyph>
<glyph name="copyright" format="2">
  <advance width="1716"/>
  <unicode hex="00A9"/>
  <outline>
    <contour>
      <point x="92" y="727" type="qcurve" smooth="yes"/>
      <point x="92" y="883"/>
      <point x="208" y="1157"/>
      <point x="409" y="1352"/>
      <point x="692" y="1464"/>
      <point x="854" y="1464" type="qcurve" smooth="yes"/>
      <point x="1017" y="1464"/>
      <point x="1304" y="1352"/>
      <point x="1508" y="1157"/>
      <point x="1626" y="883"/>
      <point x="1626" y="727" type="qcurve" smooth="yes"/>
      <point x="1626" y="570"/>
      <point x="1508" y="295"/>
      <point x="1304" y="99"/>
      <point x="1017" y="-14"/>
      <point x="854" y="-14" type="qcurve" smooth="yes"/>
      <point x="692" y="-14"/>
      <point x="409" y="99"/>
      <point x="208" y="295"/>
      <point x="92" y="570"/>
    </contour>
    <contour>
      <point x="1520" y="723" type="qcurve" smooth="yes"/>
      <point x="1520" y="903"/>
      <point x="1347" y="1198"/>
      <point x="1042" y="1366"/>
      <point x="854" y="1366" type="qcurve" smooth="yes"/>
      <point x="716" y="1366"/>
      <point x="471" y="1267"/>
      <point x="298" y="1096"/>
      <point x="197" y="859"/>
      <point x="197" y="725" type="qcurve" smooth="yes"/>
      <point x="197" y="592"/>
      <point x="297" y="355"/>
      <point x="470" y="184"/>
      <point x="715" y="84"/>
      <point x="854" y="84" type="qcurve" smooth="yes"/>
      <point x="1039" y="84"/>
      <point x="1343" y="245"/>
      <point x="1520" y="538"/>
    </contour>
    <contour>
      <point x="373" y="727" type="qcurve" smooth="yes"/>
      <point x="373" y="800"/>
      <point x="411" y="938"/>
      <point x="491" y="1062"/>
      <point x="605" y="1154"/>
      <point x="767" y="1208"/>
      <point x="862" y="1208" type="qcurve" smooth="yes"/>
      <point x="1012" y="1208"/>
      <point x="1237" y="1077"/>
      <point x="1290" y="961" type="qcurve"/>
      <point x="1075" y="893" type="line"/>
      <point x="1043" y="960"/>
      <point x="926" y="1018"/>
      <point x="862" y="1018" type="qcurve" smooth="yes"/>
      <point x="740" y="1018"/>
      <point x="600" y="847"/>
      <point x="600" y="727" type="qcurve" smooth="yes"/>
      <point x="600" y="597"/>
      <point x="764" y="438"/>
      <point x="866" y="438" type="qcurve" smooth="yes"/>
      <point x="932" y="438"/>
      <point x="1055" y="508"/>
      <point x="1085" y="567" type="qcurve"/>
      <point x="1300" y="502" type="line"/>
      <point x="1256" y="400"/>
      <point x="1025" y="248"/>
      <point x="870" y="248" type="qcurve" smooth="yes"/>
      <point x="657" y="248"/>
      <point x="373" y="519"/>
    </contour>
  </outline>
</glyph>
<glyph name="ordfeminine" format="2">
  <advance width="903"/>
  <unicode hex="00AA"/>
  <anchor x="0" y="0" name="Anchor-11"/>
  <anchor x="0" y="0" name="Anchor-10"/>
  <anchor x="516" y="1063" name="Anchor-9"/>
  <anchor x="0" y="0" name="Anchor-8"/>
  <anchor x="911" y="23" name="Anchor-7"/>
  <outline>
    <contour>
      <point x="88" y="930" type="qcurve" smooth="yes"/>
      <point x="88" y="1034"/>
      <point x="259" y="1165"/>
      <point x="393" y="1165" type="qcurve" smooth="yes"/>
      <point x="500" y="1165"/>
      <point x="578" y="1133" type="qcurve"/>
      <point x="578" y="1178" type="line" smooth="yes"/>
      <point x="578" y="1254"/>
      <point x="492" y="1337"/>
      <point x="410" y="1337" type="qcurve" smooth="yes"/>
      <point x="307" y="1337"/>
      <point x="180" y="1255" type="qcurve"/>
      <point x="127" y="1364" type="line"/>
      <point x="270" y="1458"/>
      <point x="426" y="1458" type="qcurve" smooth="yes"/>
      <point x="580" y="1458"/>
      <point x="750" y="1302"/>
      <point x="750" y="1157" type="qcurve" smooth="yes"/>
      <point x="750" y="915" type="line" smooth="yes"/>
      <point x="750" y="888"/>
      <point x="772" y="864"/>
      <point x="797" y="862" type="qcurve"/>
      <point x="797" y="713" type="line"/>
      <point x="756" y="705"/>
      <point x="721" y="705" type="qcurve" smooth="yes"/>
      <point x="621" y="705"/>
      <point x="608" y="791" type="qcurve"/>
      <point x="606" y="834" type="line"/>
      <point x="502" y="700"/>
      <point x="334" y="700" type="qcurve" smooth="yes"/>
      <point x="230" y="700"/>
      <point x="88" y="832"/>
    </contour>
    <contour>
      <point x="551" y="895" type="qcurve"/>
      <point x="578" y="916"/>
      <point x="578" y="948" type="qcurve" smooth="yes"/>
      <point x="578" y="1036" type="line"/>
      <point x="513" y="1065"/>
      <point x="424" y="1065" type="qcurve" smooth="yes"/>
      <point x="347" y="1065"/>
      <point x="250" y="998"/>
      <point x="250" y="944" type="qcurve" smooth="yes"/>
      <point x="250" y="894"/>
      <point x="326" y="827"/>
      <point x="383" y="827" type="qcurve" smooth="yes"/>
      <point x="434" y="827"/>
      <point x="525" y="864"/>
    </contour>
  </outline>
</glyph>
<glyph name="guillemotleft" format="2">
  <advance width="1271"/>
  <unicode hex="00AB"/>
  <outline>
    <contour>
      <point x="78" y="582" type="line"/>
      <point x="606" y="961" type="line"/>
      <point x="606" y="774" type="line"/>
      <point x="258" y="530" type="line"/>
      <point x="606" y="295" type="line"/>
      <point x="606" y="111" type="line"/>
      <point x="78" y="469" type="line"/>
    </contour>
    <contour>
      <point x="621" y="582" type="line"/>
      <point x="1151" y="961" type="line"/>
      <point x="1151" y="774" type="line"/>
      <point x="801" y="530" type="line"/>
      <point x="1151" y="295" type="line"/>
      <point x="1151" y="111" type="line"/>
      <point x="621" y="469" type="line"/>
    </contour>
  </outline>
</glyph>
<glyph name="logicalnot" format="2">
  <advance width="1230"/>
  <unicode hex="00AC"/>
  <outline>
    <contour>
      <point x="1092" y="793" type="line"/>
      <point x="1092" y="231" type="line"/>
      <point x="899" y="231" type="line"/>
      <point x="899" y="590" type="line"/>
      <point x="129" y="590" type="line"/>
      <point x="129" y="793" type="line"/>
    </contour>
  </outline>
</glyph>
<glyph name="sfthyphen" format="2">
  <advance width="1212"/>
  <unicode hex="00AD"/>
  <outline>
    <contour>
      <point x="125" y="459" type="line"/>
      <point x="125" y="662" type="line"/>
      <point x="1087" y="662" type="line"/>
      <point x="1087" y="459" type="line"/>
    </contour>
  </outline>
</glyph>
<glyph name="registered" format="2">
  <advance width="1716"/>
  <unicode hex="00AE"/>
  <outline>
    <contour>
      <point x="92" y="727" type="qcurve" smooth="yes"/>
      <point x="92" y="883"/>
      <point x="208" y="1157"/>
      <point x="409" y="1352"/>
      <point x="694" y="1464"/>
      <point x="856" y="1464" type="qcurve" smooth="yes"/>
      <point x="1019" y="1464"/>
      <point x="1305" y="1352"/>
      <point x="1508" y="1157"/>
      <point x="1626" y="883"/>
      <point x="1626" y="727" type="qcurve" smooth="yes"/>
      <point x="1626" y="570"/>
      <point x="1508" y="295"/>
      <point x="1305" y="99"/>
      <point x="1019" y="-14"/>
      <point x="856" y="-14" type="qcurve" smooth="yes"/>
      <point x="694" y="-14"/>
      <point x="409" y="99"/>
      <point x="208" y="295"/>
      <point x="92" y="570"/>
    </contour>
    <contour>
      <point x="1516" y="725" type="qcurve" smooth="yes"/>
      <point x="1516" y="858"/>
      <point x="1416" y="1095"/>
      <point x="1242" y="1266"/>
      <point x="996" y="1366"/>
      <point x="856" y="1366" type="qcurve" smooth="yes"/>
      <point x="670" y="1366"/>
      <point x="370" y="1196"/>
      <point x="203" y="904"/>
      <point x="203" y="727" type="qcurve" smooth="yes"/>
      <point x="203" y="548"/>
      <point x="370" y="253"/>
      <point x="670" y="82"/>
      <point x="856" y="82" type="qcurve" smooth="yes"/>
      <point x="1040" y="82"/>
      <point x="1341" y="244"/>
      <point x="1516" y="539"/>
    </contour>
    <contour>
      <point x="532" y="1182" type="line"/>
      <point x="928" y="1182" type="line" smooth="yes"/>
      <point x="1007" y="1182"/>
      <point x="1139" y="1094"/>
      <point x="1210" y="958"/>
      <point x="1210" y="885" type="qcurve" smooth="yes"/>
      <point x="1210" y="794"/>
      <point x="1109" y="644"/>
      <point x="1028" y="618" type="qcurve"/>
      <point x="1247" y="272" type="line"/>
      <point x="1065" y="272" type="line"/>
      <point x="864" y="590" type="line"/>
      <point x="694" y="590" type="line"/>
      <point x="694" y="272" type="line"/>
      <point x="532" y="272" type="line"/>
    </contour>
    <contour>
      <point x="918" y="729" type="line" smooth="yes"/>
      <point x="980" y="729"/>
      <point x="1051" y="814"/>
      <point x="1051" y="956"/>
      <point x="971" y="1040"/>
      <point x="911" y="1040" type="qcurve" smooth="yes"/>
      <point x="694" y="1040" type="line"/>
      <point x="694" y="729" type="line"/>
    </contour>
  </outline>
</glyph>
<glyph name="macron" format="2">
  <advance width="841"/>
  <unicode hex="00AF"/>
  <anchor x="422" y="1462" name="Anchor-13"/>
  <outline>
    <contour>
      <point x="119" y="1319" type="line"/>
      <point x="119" y="1462" type="line"/>
      <point x="725" y="1462" type="line"/>
      <point x="725" y="1319" type="line"/>
    </contour>
  </outline>
</glyph>
<glyph name="degree" format="2">
  <advance width="569"/>
  <unicode hex="00B0"/>
  <outline>
    <contour>
      <point x="285" y="1483" type="qcurve" smooth="yes"/>
      <point x="369" y="1483"/>
      <point x="479" y="1374"/>
      <point x="479" y="1292" type="qcurve" smooth="yes"/>
      <point x="479" y="1203"/>
      <point x="370" y="1092"/>
      <point x="285" y="1092" type="qcurve" smooth="yes"/>
      <point x="202" y="1092"/>
      <point x="90" y="1206"/>
      <point x="90" y="1292" type="qcurve" smooth="yes"/>
      <point x="90" y="1374"/>
      <point x="202" y="1483"/>
    </contour>
    <contour>
      <point x="203" y="1288" type="qcurve" smooth="yes"/>
      <point x="203" y="1255"/>
      <point x="227" y="1231" type="qcurve" smooth="yes"/>
      <point x="249" y="1206"/>
      <point x="285" y="1206" type="qcurve" smooth="yes"/>
      <point x="323" y="1206"/>
      <point x="342" y="1231" type="qcurve"/>
      <point x="367" y="1256"/>
      <point x="367" y="1288" type="qcurve" smooth="yes"/>
      <point x="367" y="1317"/>
      <point x="342" y="1346" type="qcurve" smooth="yes"/>
      <point x="326" y="1368"/>
      <point x="285" y="1368" type="qcurve" smooth="yes"/>
      <point x="249" y="1368"/>
      <point x="227" y="1346" type="qcurve" smooth="yes"/>
      <point x="203" y="1319"/>
    </contour>
  </outline>
</glyph>
<glyph name="plusminus" format="2">
  <advance width="960"/>
  <unicode hex="00B1"/>
  <outline>
    <contour>
      <point x="831" y="854" type="line"/>
      <point x="831" y="672" type="line"/>
      <point x="582" y="672" type="line"/>
      <point x="582" y="401" type="line"/>
      <point x="379" y="401" type="line"/>
      <point x="379" y="672" type="line"/>
      <point x="129" y="672" type="line"/>
      <point x="129" y="854" type="line"/>
      <point x="379" y="854" type="line"/>
      <point x="379" y="1122" type="line"/>
      <point x="582" y="1122" type="line"/>
      <point x="582" y="854" type="line"/>
    </contour>
    <contour>
      <point x="129" y="82" type="line"/>
      <point x="129" y="264" type="line"/>
      <point x="829" y="264" type="line"/>
      <point x="829" y="82" type="line"/>
    </contour>
  </outline>
</glyph>
<glyph name="twosuperior" format="2">
  <advance width="831"/>
  <unicode hex="00B2"/>
  <outline>
    <contour>
      <point x="66" y="809" type="line"/>
      <point x="66" y="968"/>
      <point x="185" y="1141"/>
      <point x="330" y="1200" type="qcurve" smooth="yes"/>
      <point x="345" y="1206"/>
      <point x="422" y="1234"/>
      <point x="459" y="1250"/>
      <point x="521" y="1278"/>
      <point x="554" y="1304"/>
      <point x="590" y="1339"/>
      <point x="606" y="1381"/>
      <point x="606" y="1405" type="qcurve" smooth="yes"/>
      <point x="606" y="1464"/>
      <point x="507" y="1536"/>
      <point x="418" y="1536" type="qcurve" smooth="yes"/>
      <point x="266" y="1536"/>
      <point x="162" y="1427" type="qcurve"/>
      <point x="74" y="1526" type="line"/>
      <point x="111" y="1573"/>
      <point x="303" y="1665"/>
      <point x="436" y="1665" type="qcurve" smooth="yes"/>
      <point x="591" y="1665"/>
      <point x="758" y="1525"/>
      <point x="758" y="1407" type="qcurve" smooth="yes"/>
      <point x="758" y="1357"/>
      <point x="719" y="1272"/>
      <point x="666" y="1219"/>
      <point x="583" y="1172"/>
      <point x="522" y="1149"/>
      <point x="481" y="1137" type="qcurve" smooth="yes"/>
      <point x="287" y="1074"/>
      <point x="287" y="942" type="qcurve"/>
      <point x="748" y="942" type="line"/>
      <point x="748" y="809" type="line"/>
    </contour>
  </outline>
</glyph>
<glyph name="threesuperior" format="2">
  <advance width="819"/>
  <unicode hex="00B3"/>
  <outline>
    <contour>
      <point x="61" y="965" type="qcurve"/>
      <point x="137" y="1059" type="line"/>
      <point x="154" y="1012"/>
      <point x="292" y="932"/>
      <point x="389" y="932" type="qcurve" smooth="yes"/>
      <point x="481" y="932"/>
      <point x="604" y="998"/>
      <point x="604" y="1055" type="qcurve" smooth="yes"/>
      <point x="604" y="1117"/>
      <point x="455" y="1182"/>
      <point x="317" y="1182" type="qcurve" smooth="yes"/>
      <point x="268" y="1182" type="line"/>
      <point x="268" y="1307" type="line"/>
      <point x="315" y="1307" type="line" smooth="yes"/>
      <point x="575" y="1307"/>
      <point x="575" y="1421" type="qcurve" smooth="yes"/>
      <point x="575" y="1478"/>
      <point x="464" y="1540"/>
      <point x="387" y="1540" type="qcurve" smooth="yes"/>
      <point x="227" y="1540"/>
      <point x="154" y="1436" type="qcurve"/>
      <point x="66" y="1540" type="line"/>
      <point x="107" y="1598"/>
      <point x="289" y="1665"/>
      <point x="391" y="1665" type="qcurve" smooth="yes"/>
      <point x="537" y="1665"/>
      <point x="725" y="1533"/>
      <point x="725" y="1432" type="qcurve" smooth="yes"/>
      <point x="725" y="1362"/>
      <point x="631" y="1268"/>
      <point x="543" y="1251" type="qcurve"/>
      <point x="636" y="1238"/>
      <point x="748" y="1117"/>
      <point x="748" y="1034" type="qcurve" smooth="yes"/>
      <point x="748" y="957"/>
      <point x="647" y="847"/>
      <point x="490" y="797"/>
      <point x="395" y="797" type="qcurve" smooth="yes"/>
      <point x="266" y="797"/>
      <point x="85" y="886"/>
    </contour>
  </outline>
</glyph>
<glyph name="acute" format="2">
  <advance width="497"/>
  <unicode hex="00B4"/>
  <anchor x="262" y="1495" name="Anchor-13"/>
  <outline>
    <contour>
      <point x="244" y="1225" type="line"/>
      <point x="96" y="1270" type="line"/>
      <point x="213" y="1495" type="line"/>
      <point x="428" y="1495" type="line"/>
    </contour>
  </outline>
</glyph>
<glyph name="mu" format="2">
  <advance width="1320"/>
  <unicode hex="00B5"/>
  <outline>
    <contour>
      <point x="158" y="1071" type="line"/>
      <point x="383" y="1071" type="line"/>
      <point x="383" y="461" type="line" smooth="yes"/>
      <point x="383" y="172"/>
      <point x="592" y="172" type="qcurve" smooth="yes"/>
      <point x="687" y="172"/>
      <point x="859" y="294"/>
      <point x="905" y="403" type="qcurve"/>
      <point x="905" y="1071" type="line"/>
      <point x="1130" y="1071" type="line"/>
      <point x="1130" y="266" type="line" smooth="yes"/>
      <point x="1130" y="228"/>
      <point x="1161" y="195"/>
      <point x="1196" y="193" type="qcurve"/>
      <point x="1196" y="0" type="line"/>
      <point x="1135" y="-10"/>
      <point x="1092" y="-10" type="qcurve" smooth="yes"/>
      <point x="1027" y="-10"/>
      <point x="943" y="64"/>
      <point x="940" y="119" type="qcurve" smooth="yes"/>
      <point x="938" y="217" type="line"/>
      <point x="894" y="124"/>
      <point x="689" y="-20"/>
      <point x="580" y="-20" type="qcurve" smooth="yes"/>
      <point x="499" y="-20"/>
      <point x="392" y="61"/>
      <point x="371" y="119" type="qcurve"/>
      <point x="383" y="-434" type="line"/>
      <point x="158" y="-434" type="line"/>
    </contour>
  </outline>
</glyph>
<glyph name="paragraph" format="2">
  <advance width="1304"/>
  <unicode hex="00B6"/>
  <outline>
    <contour>
      <point x="649" y="1454" type="qcurve" smooth="yes"/>
      <point x="1212" y="1454" type="line"/>
      <point x="1212" y="1282" type="line"/>
      <point x="1069" y="1282" type="line"/>
      <point x="1069" y="-164" type="line"/>
      <point x="877" y="-164" type="line"/>
      <point x="877" y="442" type="line"/>
      <point x="756" y="442" type="line"/>
      <point x="756" y="-164" type="line"/>
      <point x="561" y="-164" type="line"/>
      <point x="561" y="442" type="line"/>
      <point x="338" y="445"/>
      <point x="72" y="717"/>
      <point x="72" y="944" type="qcurve" smooth="yes"/>
      <point x="72" y="1186"/>
      <point x="375" y="1454"/>
    </contour>
    <contour>
      <point x="561" y="614" type="qcurve"/>
      <point x="561" y="1282" type="line"/>
      <point x="418" y="1279"/>
      <point x="260" y="1099"/>
      <point x="260" y="797"/>
      <point x="431" y="624"/>
    </contour>
    <contour>
      <point x="877" y="1282" type="line"/>
      <point x="756" y="1282" type="line"/>
      <point x="756" y="614" type="line"/>
      <point x="877" y="614" type="line"/>
    </contour>
  </outline>
</glyph>
<glyph name="cedilla" format="2">
  <advance width="634"/>
  <unicode hex="00B8"/>
  <outline>
    <contour>
      <point x="305" y="-395" type="qcurve" smooth="yes"/>
      <point x="178" y="-395"/>
      <point x="63" y="-336" type="qcurve"/>
      <point x="121" y="-215" type="line"/>
      <point x="199" y="-258"/>
      <point x="266" y="-258" type="qcurve" smooth="yes"/>
      <point x="324" y="-258"/>
      <point x="389" y="-209"/>
      <point x="389" y="-162" type="qcurve" smooth="yes"/>
      <point x="389" y="-116"/>
      <point x="326" y="-40"/>
      <point x="262" y="0" type="qcurve"/>
      <point x="340" y="53" type="line"/>
      <point x="433" y="-6"/>
      <point x="528" y="-123"/>
      <point x="528" y="-203" type="qcurve" smooth="yes"/>
      <point x="528" y="-291"/>
      <point x="411" y="-395"/>
    </contour>
  </outline>
</glyph>
<glyph name="onesuperior" format="2">
  <advance width="591"/>
  <unicode hex="00B9"/>
  <outline>
    <contour>
      <point x="549" y="944" type="line"/>
      <point x="549" y="809" type="line"/>
      <point x="100" y="809" type="line"/>
      <point x="100" y="944" type="line"/>
      <point x="262" y="944" type="line"/>
      <point x="262" y="1516" type="line"/>
      <point x="237" y="1484"/>
      <point x="114" y="1413"/>
      <point x="68" y="1413" type="qcurve"/>
      <point x="68" y="1550" type="line"/>
      <point x="92" y="1550"/>
      <point x="149" y="1573"/>
      <point x="197" y="1605"/>
      <point x="238" y="1639"/>
      <point x="261" y="1663"/>
      <point x="262" y="1665" type="qcurve" smooth="yes"/>
      <point x="399" y="1665" type="line"/>
      <point x="399" y="944" type="line"/>
    </contour>
  </outline>
</glyph>
<glyph name="ordmasculine" format="2">
  <advance width="913"/>
  <unicode hex="00BA"/>
  <anchor x="0" y="0" name="Anchor-11"/>
  <anchor x="0" y="0" name="Anchor-10"/>
  <anchor x="582" y="1063" name="Anchor-9"/>
  <anchor x="0" y="0" name="Anchor-8"/>
  <anchor x="580" y="0" name="Anchor-7"/>
  <outline>
    <contour>
      <point x="80" y="1077" type="qcurve" smooth="yes"/>
      <point x="80" y="1237"/>
      <point x="288" y="1458"/>
      <point x="626" y="1458"/>
      <point x="834" y="1237"/>
      <point x="834" y="1077" type="qcurve" smooth="yes"/>
      <point x="834" y="921"/>
      <point x="625" y="700"/>
      <point x="289" y="700"/>
      <point x="80" y="921"/>
    </contour>
    <contour>
      <point x="542" y="848"/>
      <point x="659" y="980"/>
      <point x="659" y="1178"/>
      <point x="542" y="1309"/>
      <point x="372" y="1309"/>
      <point x="254" y="1176"/>
      <point x="254" y="1077" type="qcurve" smooth="yes"/>
      <point x="254" y="979"/>
      <point x="372" y="848"/>
    </contour>
  </outline>
</glyph>
<glyph name="guillemotright" format="2">
  <advance width="1271"/>
  <unicode hex="00BB"/>
  <outline>
    <contour>
      <point x="651" y="469" type="line"/>
      <point x="123" y="111" type="line"/>
      <point x="123" y="295" type="line"/>
      <point x="471" y="530" type="line"/>
      <point x="123" y="774" type="line"/>
      <point x="123" y="961" type="line"/>
      <point x="651" y="582" type="line"/>
    </contour>
    <contour>
      <point x="1194" y="469" type="line"/>
      <point x="666" y="111" type="line"/>
      <point x="666" y="295" type="line"/>
      <point x="1016" y="530" type="line"/>
      <point x="666" y="774" type="line"/>
      <point x="666" y="961" type="line"/>
      <point x="1194" y="582" type="line"/>
    </contour>
  </outline>
</glyph>
<glyph name="onequarter" format="2">
  <advance width="1748"/>
  <unicode hex="00BC"/>
  <outline>
    <contour>
      <point x="549" y="776" type="line"/>
      <point x="549" y="641" type="line"/>
      <point x="100" y="641" type="line"/>
      <point x="100" y="776" type="line"/>
      <point x="262" y="776" type="line"/>
      <point x="262" y="1348" type="line"/>
      <point x="237" y="1316"/>
      <point x="114" y="1245"/>
      <point x="68" y="1245" type="qcurve"/>
      <point x="68" y="1380" type="line"/>
      <point x="92" y="1380"/>
      <point x="149" y="1403"/>
      <point x="197" y="1436"/>
      <point x="238" y="1470"/>
      <point x="261" y="1495"/>
      <point x="262" y="1497" type="qcurve" smooth="yes"/>
      <point x="399" y="1497" type="line"/>
      <point x="399" y="776" type="line"/>
    </contour>
    <contour>
      <point x="168" y="82" type="line"/>
      <point x="743" y="764" type="line"/>
      <point x="1284" y="1466" type="line"/>
      <point x="1391" y="1374" type="line"/>
      <point x="825" y="700" type="line"/>
      <point x="272" y="-12" type="line"/>
    </contour>
    <contour>
      <point x="1430" y="0" type="line"/>
      <point x="1430" y="203" type="line"/>
      <point x="975" y="203" type="line"/>
      <point x="975" y="330" type="line"/>
      <point x="1475" y="848" type="line"/>
      <point x="1573" y="848" type="line"/>
      <point x="1573" y="328" type="line"/>
      <point x="1692" y="328" type="line"/>
      <point x="1692" y="203" type="line"/>
      <point x="1573" y="203" type="line"/>
      <point x="1573" y="0" type="line"/>
    </contour>
    <contour>
      <point x="1112" y="328" type="line"/>
      <point x="1434" y="328" type="line"/>
      <point x="1434" y="666" type="line"/>
    </contour>
  </outline>
</glyph>
<glyph name="onehalf" format="2">
  <advance width="1783"/>
  <unicode hex="00BD"/>
  <outline>
    <contour>
      <point x="549" y="776" type="line"/>
      <point x="549" y="641" type="line"/>
      <point x="100" y="641" type="line"/>
      <point x="100" y="776" type="line"/>
      <point x="262" y="776" type="line"/>
      <point x="262" y="1348" type="line"/>
      <point x="237" y="1316"/>
      <point x="114" y="1245"/>
      <point x="68" y="1245" type="qcurve"/>
      <point x="68" y="1380" type="line"/>
      <point x="92" y="1380"/>
      <point x="149" y="1403"/>
      <point x="197" y="1436"/>
      <point x="238" y="1470"/>
      <point x="261" y="1495"/>
      <point x="262" y="1497" type="qcurve" smooth="yes"/>
      <point x="399" y="1497" type="line"/>
      <point x="399" y="776" type="line"/>
    </contour>
    <contour>
      <point x="168" y="82" type="line"/>
      <point x="743" y="764" type="line"/>
      <point x="1284" y="1466" type="line"/>
      <point x="1391" y="1374" type="line"/>
      <point x="825" y="700" type="line"/>
      <point x="272" y="-12" type="line"/>
    </contour>
    <contour>
      <point x="1032" y="0" type="line"/>
      <point x="1032" y="159"/>
      <point x="1148" y="332"/>
      <point x="1288" y="391" type="qcurve" smooth="yes"/>
      <point x="1306" y="398"/>
      <point x="1393" y="432"/>
      <point x="1435" y="450"/>
      <point x="1501" y="486"/>
      <point x="1533" y="518"/>
      <point x="1559" y="566"/>
      <point x="1559" y="594" type="qcurve" smooth="yes"/>
      <point x="1559" y="654"/>
      <point x="1461" y="727"/>
      <point x="1374" y="727" type="qcurve" smooth="yes"/>
      <point x="1223" y="727"/>
      <point x="1126" y="616" type="qcurve"/>
      <point x="1040" y="717" type="line"/>
      <point x="1076" y="765"/>
      <point x="1263" y="856"/>
      <point x="1393" y="856" type="qcurve" smooth="yes"/>
      <point x="1544" y="856"/>
      <point x="1706" y="716"/>
      <point x="1706" y="596" type="qcurve" smooth="yes"/>
      <point x="1706" y="546"/>
      <point x="1669" y="462"/>
      <point x="1618" y="409"/>
      <point x="1537" y="363"/>
      <point x="1478" y="341"/>
      <point x="1438" y="328" type="qcurve" smooth="yes"/>
      <point x="1247" y="266"/>
      <point x="1247" y="133" type="qcurve"/>
      <point x="1708" y="133" type="line"/>
      <point x="1708" y="0" type="line"/>
    </contour>
  </outline>
</glyph>
<glyph name="questiondown" format="2">
  <advance width="974"/>
  <unicode hex="00BF"/>
  <outline>
    <contour>
      <point x="700" y="1036" type="line"/>
      <point x="700" y="778" type="line"/>
      <point x="514" y="778" type="line"/>
      <point x="514" y="1036" type="line"/>
    </contour>
    <contour>
      <point x="707" y="584" type="line"/>
      <point x="707" y="472"/>
      <point x="630" y="311"/>
      <point x="537" y="254" type="qcurve" smooth="yes"/>
      <point x="526" y="247"/>
      <point x="446" y="203"/>
      <point x="401" y="176"/>
      <point x="331" y="121"/>
      <point x="292" y="70"/>
      <point x="262" y="-4"/>
      <point x="262" y="-45" type="qcurve" smooth="yes"/>
      <point x="262" y="-140"/>
      <point x="395" y="-252"/>
      <point x="487" y="-252" type="qcurve" smooth="yes"/>
      <point x="577" y="-252"/>
      <point x="719" y="-148"/>
      <point x="762" y="-72" type="qcurve"/>
      <point x="909" y="-172" type="line"/>
      <point x="854" y="-296"/>
      <point x="622" y="-436"/>
      <point x="481" y="-436" type="qcurve" smooth="yes"/>
      <point x="401" y="-436"/>
      <point x="257" y="-388"/>
      <point x="137" y="-295"/>
      <point x="66" y="-138"/>
      <point x="66" y="-37" type="qcurve" smooth="yes"/>
      <point x="66" y="32"/>
      <point x="100" y="141"/>
      <point x="170" y="223"/>
      <point x="246" y="281"/>
      <point x="303" y="313" type="qcurve" smooth="yes"/>
      <point x="310" y="317"/>
      <point x="364" y="348"/>
      <point x="381" y="359"/>
      <point x="427" y="389"/>
      <point x="445" y="407"/>
      <point x="479" y="441"/>
      <point x="493" y="471"/>
      <point x="511" y="511"/>
      <point x="518" y="558"/>
      <point x="518" y="584" type="qcurve"/>
    </contour>
  </outline>
</glyph>
<glyph name="Agrave" format="2">
  <advance width="1382"/>
  <unicode hex="00C0"/>
  <anchor x="0" y="0" name="Anchor-11"/>
  <anchor x="0" y="0" name="Anchor-10"/>
  <anchor x="625" y="1876" name="Anchor-9"/>
  <anchor x="1366" y="0" name="Anchor-8"/>
  <anchor x="711" y="0" name="Anchor-7"/>
  <outline>
    <contour>
      <point x="459" y="1876" type="line"/>
      <point x="674" y="1876" type="line"/>
      <point x="791" y="1651" type="line"/>
      <point x="647" y="1606" type="line"/>
    </contour>
    <contour>
      <point x="584" y="1454" type="line"/>
      <point x="801" y="1454" type="line"/>
      <point x="1366" y="0" type="line"/>
      <point x="1124" y="0" type="line"/>
      <point x="971" y="395" type="line"/>
      <point x="410" y="395" type="line"/>
      <point x="258" y="0" type="line"/>
      <point x="14" y="0" type="line"/>
    </contour>
    <contour>
      <point x="926" y="565" type="line"/>
      <point x="692" y="1202" type="line"/>
      <point x="451" y="565" type="line"/>
    </contour>
  </outline>
</glyph>
<glyph name="Acircumflex" format="2">
  <advance width="1382"/>
  <unicode hex="00C2"/>
  <anchor x="0" y="0" name="Anchor-11"/>
  <anchor x="0" y="0" name="Anchor-10"/>
  <anchor x="692" y="1874" name="Anchor-9"/>
  <anchor x="1366" y="0" name="Anchor-8"/>
  <anchor x="711" y="0" name="Anchor-7"/>
  <outline>
    <contour>
      <point x="399" y="1679" type="line"/>
      <point x="612" y="1874" type="line"/>
      <point x="774" y="1874" type="line"/>
      <point x="987" y="1679" type="line"/>
      <point x="866" y="1622" type="line"/>
      <point x="692" y="1751" type="line"/>
      <point x="518" y="1622" type="line"/>
    </contour>
    <contour>
      <point x="584" y="1454" type="line"/>
      <point x="801" y="1454" type="line"/>
      <point x="1366" y="0" type="line"/>
      <point x="1124" y="0" type="line"/>
      <point x="971" y="395" type="line"/>
      <point x="410" y="395" type="line"/>
      <point x="258" y="0" type="line"/>
      <point x="14" y="0" type="line"/>
    </contour>
    <contour>
      <point x="926" y="565" type="line"/>
      <point x="692" y="1202" type="line"/>
      <point x="451" y="565" type="line"/>
    </contour>
  </outline>
</glyph>
<glyph name="Atilde" format="2">
  <advance width="1382"/>
  <unicode hex="00C3"/>
  <anchor x="0" y="0" name="Anchor-11"/>
  <anchor x="0" y="0" name="Anchor-10"/>
  <anchor x="692" y="1874" name="Anchor-9"/>
  <anchor x="1366" y="0" name="Anchor-8"/>
  <anchor x="711" y="0" name="Anchor-7"/>
  <outline>
    <contour>
      <point x="557" y="1726" type="qcurve" smooth="yes"/>
      <point x="525" y="1726"/>
      <point x="481" y="1699"/>
      <point x="463" y="1660"/>
      <point x="457" y="1635"/>
      <point x="457" y="1628" type="qcurve"/>
      <point x="330" y="1628" type="line"/>
      <point x="330" y="1643"/>
      <point x="342" y="1695"/>
      <point x="375" y="1764"/>
      <point x="422" y="1823"/>
      <point x="501" y="1864"/>
      <point x="549" y="1864" type="qcurve" smooth="yes"/>
      <point x="600" y="1864"/>
      <point x="692" y="1819"/>
      <point x="776" y="1774"/>
      <point x="817" y="1774" type="qcurve" smooth="yes"/>
      <point x="845" y="1774"/>
      <point x="888" y="1794"/>
      <point x="911" y="1820"/>
      <point x="925" y="1851"/>
      <point x="928" y="1869"/>
      <point x="928" y="1874" type="qcurve"/>
      <point x="1057" y="1874" type="line"/>
      <point x="1057" y="1861"/>
      <point x="1044" y="1811"/>
      <point x="1009" y="1741"/>
      <point x="959" y="1681"/>
      <point x="874" y="1638"/>
      <point x="823" y="1638" type="qcurve" smooth="yes"/>
      <point x="770" y="1638"/>
      <point x="674" y="1682"/>
      <point x="593" y="1726"/>
    </contour>
    <contour>
      <point x="584" y="1454" type="line"/>
      <point x="801" y="1454" type="line"/>
      <point x="1366" y="0" type="line"/>
      <point x="1124" y="0" type="line"/>
      <point x="971" y="395" type="line"/>
      <point x="410" y="395" type="line"/>
      <point x="258" y="0" type="line"/>
      <point x="14" y="0" type="line"/>
    </contour>
    <contour>
      <point x="926" y="565" type="line"/>
      <point x="692" y="1202" type="line"/>
      <point x="451" y="565" type="line"/>
    </contour>
  </outline>
</glyph>
<glyph name="Adieresis" format="2">
  <advance width="1382"/>
  <unicode hex="00C4"/>
  <anchor x="0" y="0" name="Anchor-11"/>
  <anchor x="0" y="0" name="Anchor-10"/>
  <anchor x="692" y="1855" name="Anchor-9"/>
  <anchor x="1366" y="0" name="Anchor-8"/>
  <anchor x="711" y="0" name="Anchor-7"/>
  <outline>
    <contour>
      <point x="418" y="1640" type="line"/>
      <point x="418" y="1866" type="line"/>
      <point x="606" y="1866" type="line"/>
      <point x="606" y="1640" type="line"/>
    </contour>
    <contour>
      <point x="780" y="1640" type="line"/>
      <point x="780" y="1866" type="line"/>
      <point x="969" y="1866" type="line"/>
      <point x="969" y="1640" type="line"/>
    </contour>
    <contour>
      <point x="584" y="1454" type="line"/>
      <point x="801" y="1454" type="line"/>
      <point x="1366" y="0" type="line"/>
      <point x="1124" y="0" type="line"/>
      <point x="971" y="395" type="line"/>
      <point x="410" y="395" type="line"/>
      <point x="258" y="0" type="line"/>
      <point x="14" y="0" type="line"/>
    </contour>
    <contour>
      <point x="926" y="565" type="line"/>
      <point x="692" y="1202" type="line"/>
      <point x="451" y="565" type="line"/>
    </contour>
  </outline>
</glyph>
<glyph name="Aring" format="2">
  <advance width="1382"/>
  <unicode hex="00C5"/>
  <anchor x="0" y="0" name="Anchor-11"/>
  <anchor x="0" y="0" name="Anchor-10"/>
  <anchor x="692" y="1911" name="Anchor-9"/>
  <anchor x="1366" y="0" name="Anchor-8"/>
  <anchor x="711" y="0" name="Anchor-7"/>
  <outline>
    <contour>
      <point x="692" y="1915" type="qcurve" smooth="yes"/>
      <point x="784" y="1915"/>
      <point x="897" y="1814"/>
      <point x="897" y="1731" type="qcurve" smooth="yes"/>
      <point x="897" y="1650"/>
      <point x="785" y="1552"/>
      <point x="692" y="1552" type="qcurve" smooth="yes"/>
      <point x="602" y="1552"/>
      <point x="489" y="1650"/>
      <point x="489" y="1731" type="qcurve" smooth="yes"/>
      <point x="489" y="1814"/>
      <point x="602" y="1915"/>
    </contour>
    <contour>
      <point x="600" y="1731" type="qcurve" smooth="yes"/>
      <point x="600" y="1692"/>
      <point x="653" y="1638"/>
      <point x="731" y="1638"/>
      <point x="788" y="1692"/>
      <point x="788" y="1731" type="qcurve" smooth="yes"/>
      <point x="788" y="1774"/>
      <point x="734" y="1825"/>
      <point x="692" y="1825" type="qcurve" smooth="yes"/>
      <point x="653" y="1825"/>
      <point x="600" y="1774"/>
    </contour>
    <contour>
      <point x="584" y="1454" type="line"/>
      <point x="801" y="1454" type="line"/>
      <point x="1366" y="0" type="line"/>
      <point x="1124" y="0" type="line"/>
      <point x="971" y="395" type="line"/>
      <point x="410" y="395" type="line"/>
      <point x="258" y="0" type="line"/>
      <point x="14" y="0" type="line"/>
    </contour>
    <contour>
      <point x="926" y="565" type="line"/>
      <point x="692" y="1202" type="line"/>
      <point x="451" y="565" type="line"/>
    </contour>
  </outline>
</glyph>
<glyph name="AE" format="2">
  <advance width="1972"/>
  <unicode hex="00C6"/>
  <anchor x="0" y="0" name="Anchor-11"/>
  <anchor x="0" y="0" name="Anchor-10"/>
  <anchor x="1243" y="1450" name="Anchor-9"/>
  <anchor x="0" y="0" name="Anchor-8"/>
  <anchor x="0" y="0" name="Anchor-7"/>
  <outline>
    <contour>
      <point x="866" y="1454" type="line"/>
      <point x="1882" y="1454" type="line"/>
      <point x="1882" y="1251" type="line"/>
      <point x="1157" y="1251" type="line"/>
      <point x="1157" y="842" type="line"/>
      <point x="1772" y="842" type="line"/>
      <point x="1772" y="639" type="line"/>
      <point x="1157" y="639" type="line"/>
      <point x="1157" y="203" type="line"/>
      <point x="1901" y="203" type="line"/>
      <point x="1901" y="0" type="line"/>
      <point x="928" y="0" type="line"/>
      <point x="928" y="395" type="line"/>
      <point x="438" y="395" type="line"/>
      <point x="197" y="0" type="line"/>
      <point x="-51" y="0" type="line"/>
    </contour>
    <contour>
      <point x="911" y="600" type="line"/>
      <point x="911" y="1190" type="line"/>
      <point x="539" y="600" type="line"/>
    </contour>
  </outline>
</glyph>
<glyph name="Eacute" format="2">
  <advance width="1234"/>
  <unicode hex="00C9"/>
  <anchor x="0" y="0" name="Anchor-11"/>
  <anchor x="0" y="0" name="Anchor-10"/>
  <anchor x="772" y="1874" name="Anchor-9"/>
  <anchor x="1161" y="0" name="Anchor-8"/>
  <anchor x="676" y="0" name="Anchor-7"/>
  <outline>
    <contour>
      <point x="754" y="1604" type="line"/>
      <point x="606" y="1649" type="line"/>
      <point x="723" y="1874" type="line"/>
      <point x="938" y="1874" type="line"/>
    </contour>
    <contour>
      <point x="1161" y="203" type="line"/>
      <point x="1161" y="0" type="line"/>
      <point x="164" y="0" type="line"/>
      <point x="164" y="1454" type="line"/>
      <point x="1143" y="1454" type="line"/>
      <point x="1143" y="1251" type="line"/>
      <point x="393" y="1251" type="line"/>
      <point x="393" y="838" type="line"/>
      <point x="1042" y="838" type="line"/>
      <point x="1042" y="647" type="line"/>
      <point x="393" y="647" type="line"/>
      <point x="393" y="203" type="line"/>
    </contour>
  </outline>
</glyph>
<glyph name="Edieresis" format="2">
  <advance width="1234"/>
  <unicode hex="00CB"/>
  <anchor x="0" y="0" name="Anchor-11"/>
  <anchor x="0" y="0" name="Anchor-10"/>
  <anchor x="676" y="1855" name="Anchor-9"/>
  <anchor x="1161" y="0" name="Anchor-8"/>
  <anchor x="676" y="0" name="Anchor-7"/>
  <outline>
    <contour>
      <point x="401" y="1640" type="line"/>
      <point x="401" y="1866" type="line"/>
      <point x="590" y="1866" type="line"/>
      <point x="590" y="1640" type="line"/>
    </contour>
    <contour>
      <point x="764" y="1640" type="line"/>
      <point x="764" y="1866" type="line"/>
      <point x="952" y="1866" type="line"/>
      <point x="952" y="1640" type="line"/>
    </contour>
    <contour>
      <point x="1161" y="203" type="line"/>
      <point x="1161" y="0" type="line"/>
      <point x="164" y="0" type="line"/>
      <point x="164" y="1454" type="line"/>
      <point x="1143" y="1454" type="line"/>
      <point x="1143" y="1251" type="line"/>
      <point x="393" y="1251" type="line"/>
      <point x="393" y="838" type="line"/>
      <point x="1042" y="838" type="line"/>
      <point x="1042" y="647" type="line"/>
      <point x="393" y="647" type="line"/>
      <point x="393" y="203" type="line"/>
    </contour>
  </outline>
</glyph>
<glyph name="Igrave" format="2">
  <advance width="557"/>
  <unicode hex="00CC"/>
  <anchor x="0" y="0" name="Anchor-11"/>
  <anchor x="0" y="0" name="Anchor-10"/>
  <anchor x="211" y="1876" name="Anchor-9"/>
  <anchor x="393" y="0" name="Anchor-8"/>
  <anchor x="279" y="0" name="Anchor-7"/>
  <outline>
    <contour>
      <point x="45" y="1876" type="line"/>
      <point x="260" y="1876" type="line"/>
      <point x="377" y="1651" type="line"/>
      <point x="233" y="1606" type="line"/>
    </contour>
    <contour>
      <point x="164" y="0" type="line"/>
      <point x="164" y="1454" type="line"/>
      <point x="393" y="1454" type="line"/>
      <point x="393" y="0" type="line"/>
    </contour>
  </outline>
</glyph>
<glyph name="Iacute" format="2">
  <advance width="557"/>
  <unicode hex="00CD"/>
  <anchor x="0" y="0" name="Anchor-11"/>
  <anchor x="0" y="0" name="Anchor-10"/>
  <anchor x="375" y="1874" name="Anchor-9"/>
  <anchor x="393" y="0" name="Anchor-8"/>
  <anchor x="279" y="0" name="Anchor-7"/>
  <outline>
    <contour>
      <point x="356" y="1604" type="line"/>
      <point x="209" y="1649" type="line"/>
      <point x="326" y="1874" type="line"/>
      <point x="541" y="1874" type="line"/>
    </contour>
    <contour>
      <point x="164" y="0" type="line"/>
      <point x="164" y="1454" type="line"/>
      <point x="393" y="1454" type="line"/>
      <point x="393" y="0" type="line"/>
    </contour>
  </outline>
</glyph>
<glyph name="Icircumflex" format="2">
  <advance width="557"/>
  <unicode hex="00CE"/>
  <anchor x="0" y="0" name="Anchor-11"/>
  <anchor x="0" y="0" name="Anchor-10"/>
  <anchor x="279" y="1874" name="Anchor-9"/>
  <anchor x="393" y="0" name="Anchor-8"/>
  <anchor x="279" y="0" name="Anchor-7"/>
  <outline>
    <contour>
      <point x="-14" y="1679" type="line"/>
      <point x="199" y="1874" type="line"/>
      <point x="360" y="1874" type="line"/>
      <point x="573" y="1679" type="line"/>
      <point x="453" y="1622" type="line"/>
      <point x="279" y="1751" type="line"/>
      <point x="104" y="1622" type="line"/>
    </contour>
    <contour>
      <point x="164" y="0" type="line"/>
      <point x="164" y="1454" type="line"/>
      <point x="393" y="1454" type="line"/>
      <point x="393" y="0" type="line"/>
    </contour>
  </outline>
</glyph>
<glyph name="Idieresis" format="2">
  <advance width="557"/>
  <unicode hex="00CF"/>
  <anchor x="0" y="0" name="Anchor-11"/>
  <anchor x="0" y="0" name="Anchor-10"/>
  <anchor x="279" y="1855" name="Anchor-9"/>
  <anchor x="393" y="0" name="Anchor-8"/>
  <anchor x="279" y="0" name="Anchor-7"/>
  <outline>
    <contour>
      <point x="4" y="1640" type="line"/>
      <point x="4" y="1866" type="line"/>
      <point x="193" y="1866" type="line"/>
      <point x="193" y="1640" type="line"/>
    </contour>
    <contour>
      <point x="367" y="1640" type="line"/>
      <point x="367" y="1866" type="line"/>
      <point x="555" y="1866" type="line"/>
      <point x="555" y="1640" type="line"/>
    </contour>
    <contour>
      <point x="164" y="0" type="line"/>
      <point x="164" y="1454" type="line"/>
      <point x="393" y="1454" type="line"/>
      <point x="393" y="0" type="line"/>
    </contour>
  </outline>
</glyph>
<glyph name="Ntilde" format="2">
  <advance width="1570"/>
  <unicode hex="00D1"/>
  <anchor x="0" y="0" name="Anchor-11"/>
  <anchor x="0" y="0" name="Anchor-10"/>
  <anchor x="786" y="1874" name="Anchor-9"/>
  <anchor x="0" y="0" name="Anchor-8"/>
  <anchor x="786" y="0" name="Anchor-7"/>
  <outline>
    <contour>
      <point x="651" y="1726" type="qcurve" smooth="yes"/>
      <point x="619" y="1726"/>
      <point x="575" y="1699"/>
      <point x="557" y="1660"/>
      <point x="551" y="1635"/>
      <point x="551" y="1628" type="qcurve"/>
      <point x="424" y="1628" type="line"/>
      <point x="424" y="1643"/>
      <point x="436" y="1695"/>
      <point x="469" y="1764"/>
      <point x="516" y="1823"/>
      <point x="595" y="1864"/>
      <point x="643" y="1864" type="qcurve" smooth="yes"/>
      <point x="694" y="1864"/>
      <point x="786" y="1819"/>
      <point x="870" y="1774"/>
      <point x="911" y="1774" type="qcurve" smooth="yes"/>
      <point x="939" y="1774"/>
      <point x="982" y="1794"/>
      <point x="1005" y="1820"/>
      <point x="1019" y="1851"/>
      <point x="1022" y="1869"/>
      <point x="1022" y="1874" type="qcurve"/>
      <point x="1151" y="1874" type="line"/>
      <point x="1151" y="1861"/>
      <point x="1138" y="1811"/>
      <point x="1104" y="1741"/>
      <point x="1054" y="1681"/>
      <point x="969" y="1638"/>
      <point x="918" y="1638" type="qcurve" smooth="yes"/>
      <point x="865" y="1638"/>
      <point x="769" y="1682"/>
      <point x="687" y="1726"/>
    </contour>
    <contour>
      <point x="393" y="1028" type="line"/>
      <point x="393" y="0" type="line"/>
      <point x="164" y="0" type="line"/>
      <point x="164" y="1454" type="line"/>
      <point x="352" y="1454" type="line"/>
      <point x="1176" y="403" type="line"/>
      <point x="1176" y="1452" type="line"/>
      <point x="1407" y="1452" type="line"/>
      <point x="1407" y="0" type="line"/>
      <point x="1206" y="0" type="line"/>
    </contour>
  </outline>
</glyph>
<glyph name="multiply" format="2">
  <advance width="962"/>
  <unicode hex="00D7"/>
  <outline>
    <contour>
      <point x="848" y="336" type="line"/>
      <point x="707" y="197" type="line"/>
      <point x="481" y="420" type="line"/>
      <point x="256" y="197" type="line"/>
      <point x="117" y="338" type="line"/>
      <point x="338" y="561" type="line"/>
      <point x="123" y="780" type="line"/>
      <point x="264" y="920" type="line"/>
      <point x="481" y="702" type="line"/>
      <point x="700" y="922" type="line"/>
      <point x="840" y="780" type="line"/>
      <point x="623" y="561" type="line"/>
    </contour>
  </outline>
</glyph>
<glyph name="Ucircumflex" format="2">
  <advance width="1540"/>
  <unicode hex="00DB"/>
  <anchor x="1423" y="1319" name="Anchor-11"/>
  <anchor x="0" y="0" name="Anchor-10"/>
  <anchor x="770" y="1874" name="Anchor-9"/>
  <anchor x="915" y="4" name="Anchor-8"/>
  <anchor x="770" y="0" name="Anchor-7"/>
  <outline>
    <contour>
      <point x="477" y="1679" type="line"/>
      <point x="690" y="1874" type="line"/>
      <point x="852" y="1874" type="line"/>
      <point x="1065" y="1679" type="line"/>
      <point x="944" y="1622" type="line"/>
      <point x="770" y="1751" type="line"/>
      <point x="596" y="1622" type="line"/>
    </contour>
    <contour>
      <point x="770" y="-10" type="qcurve" smooth="yes"/>
      <point x="635" y="-10"/>
      <point x="420" y="70"/>
      <point x="278" y="204"/>
      <point x="184" y="393"/>
      <point x="143" y="600"/>
      <point x="143" y="717" type="qcurve" smooth="yes"/>
      <point x="143" y="1454" type="line"/>
      <point x="373" y="1454" type="line"/>
      <point x="373" y="717" type="line" smooth="yes"/>
      <point x="373" y="634"/>
      <point x="397" y="487"/>
      <point x="456" y="351"/>
      <point x="544" y="255"/>
      <point x="682" y="197"/>
      <point x="770" y="197" type="qcurve" smooth="yes"/>
      <point x="859" y="197"/>
      <point x="998" y="256"/>
      <point x="1086" y="354"/>
      <point x="1144" y="490"/>
      <point x="1167" y="635"/>
      <point x="1167" y="717" type="qcurve" smooth="yes"/>
      <point x="1167" y="1454" type="line"/>
      <point x="1399" y="1454" type="line"/>
      <point x="1399" y="717" type="line" smooth="yes"/>
      <point x="1399" y="564"/>
      <point x="1327" y="307"/>
      <point x="1180" y="104"/>
      <point x="933" y="-10"/>
    </contour>
  </outline>
</glyph>
<glyph name="Thorn" format="2">
  <advance width="1236"/>
  <unicode hex="00DE"/>
  <outline>
    <contour>
      <point x="1190" y="709" type="qcurve" smooth="yes"/>
      <point x="1190" y="585"/>
      <point x="1082" y="369"/>
      <point x="878" y="233"/>
      <point x="750" y="233" type="qcurve" smooth="yes"/>
      <point x="393" y="233" type="line"/>
      <point x="393" y="0" type="line"/>
      <point x="164" y="0" type="line"/>
      <point x="164" y="1454" type="line"/>
      <point x="393" y="1454" type="line"/>
      <point x="393" y="1182" type="line"/>
      <point x="739" y="1182" type="line" smooth="yes"/>
      <point x="865" y="1182"/>
      <point x="1076" y="1042"/>
      <point x="1190" y="826"/>
    </contour>
    <contour>
      <point x="958" y="709" type="qcurve" smooth="yes"/>
      <point x="958" y="822"/>
      <point x="822" y="979"/>
      <point x="727" y="979" type="qcurve" smooth="yes"/>
      <point x="393" y="979" type="line"/>
      <point x="393" y="438" type="line"/>
      <point x="739" y="438" type="line" smooth="yes"/>
      <point x="835" y="438"/>
      <point x="958" y="598"/>
    </contour>
  </outline>
</glyph>
<glyph name="germandbls" format="2">
  <advance width="1136"/>
  <unicode hex="00DF"/>
  <outline>
    <contour>
      <point x="500" y="195" type="line"/>
      <point x="656" y="198"/>
      <point x="838" y="324"/>
      <point x="838" y="451" type="qcurve" smooth="yes"/>
      <point x="838" y="568"/>
      <point x="684" y="707"/>
      <point x="565" y="707" type="qcurve" smooth="yes"/>
      <point x="524" y="707" type="line"/>
      <point x="524" y="911" type="line"/>
      <point x="563" y="911" type="line" smooth="yes"/>
      <point x="649" y="911"/>
      <point x="754" y="1012"/>
      <point x="754" y="1094" type="qcurve" smooth="yes"/>
      <point x="754" y="1182"/>
      <point x="639" y="1270"/>
      <point x="561" y="1270" type="qcurve" smooth="yes"/>
      <point x="455" y="1270"/>
      <point x="350" y="1127"/>
      <point x="350" y="1026" type="qcurve" smooth="yes"/>
      <point x="350" y="0" type="line"/>
      <point x="135" y="0" type="line"/>
      <point x="135" y="1065" type="line" smooth="yes"/>
      <point x="135" y="1238"/>
      <point x="383" y="1462"/>
      <point x="573" y="1462" type="qcurve" smooth="yes"/>
      <point x="744" y="1462"/>
      <point x="967" y="1278"/>
      <point x="967" y="1128" type="qcurve" smooth="yes"/>
      <point x="967" y="1022"/>
      <point x="855" y="848"/>
      <point x="776" y="823" type="qcurve"/>
      <point x="913" y="789"/>
      <point x="1073" y="575"/>
      <point x="1073" y="428" type="qcurve" smooth="yes"/>
      <point x="1073" y="320"/>
      <point x="984" y="151"/>
      <point x="826" y="47"/>
      <point x="622" y="-9"/>
      <point x="500" y="-12" type="qcurve"/>
    </contour>
  </outline>
</glyph>
<glyph name="ecircumflex" format="2">
  <advance width="1218"/>
  <unicode hex="00EA"/>
  <anchor x="0" y="0" name="Anchor-11"/>
  <anchor x="0" y="0" name="Anchor-10"/>
  <anchor x="616" y="1495" name="Anchor-9"/>
  <anchor x="776" y="0" name="Anchor-8"/>
  <anchor x="618" y="0" name="Anchor-7"/>
  <outline>
    <contour>
      <point x="324" y="1300" type="line"/>
      <point x="537" y="1495" type="line"/>
      <point x="698" y="1495" type="line"/>
      <point x="911" y="1300" type="line"/>
      <point x="791" y="1243" type="line"/>
      <point x="616" y="1372" type="line"/>
      <point x="442" y="1243" type="line"/>
    </contour>
    <contour>
      <point x="621" y="-20" type="qcurve" smooth="yes"/>
      <point x="458" y="-20"/>
      <point x="202" y="132"/>
      <point x="66" y="382"/>
      <point x="66" y="532" type="qcurve" smooth="yes"/>
      <point x="66" y="645"/>
      <point x="147" y="849"/>
      <point x="289" y="1001"/>
      <point x="500" y="1090"/>
      <point x="746" y="1090"/>
      <point x="953" y="1000"/>
      <point x="1092" y="849"/>
      <point x="1169" y="651"/>
      <point x="1169" y="543" type="qcurve" smooth="yes"/>
      <point x="1169" y="515"/>
      <point x="1163" y="461" type="qcurve"/>
      <point x="305" y="461" type="line"/>
      <point x="315" y="322"/>
      <point x="502" y="145"/>
      <point x="629" y="145" type="qcurve" smooth="yes"/>
      <point x="721" y="145"/>
      <point x="879" y="236"/>
      <point x="909" y="309" type="qcurve"/>
      <point x="1102" y="254" type="line"/>
      <point x="1045" y="131"/>
      <point x="787" y="-20"/>
    </contour>
    <contour>
      <point x="299" y="610" type="qcurve"/>
      <point x="946" y="610" type="line"/>
      <point x="934" y="749"/>
      <point x="751" y="924"/>
      <point x="621" y="924" type="qcurve" smooth="yes"/>
      <point x="492" y="924"/>
      <point x="308" y="747"/>
    </contour>
  </outline>
</glyph>
<glyph name="igrave" format="2">
  <advance width="495"/>
  <unicode hex="00EC"/>
  <anchor x="0" y="0" name="Anchor-11"/>
  <anchor x="0" y="0" name="Anchor-10"/>
  <anchor x="180" y="1497" name="Anchor-9"/>
  <anchor x="0" y="0" name="Anchor-8"/>
  <anchor x="0" y="0" name="Anchor-7"/>
  <outline>
    <contour>
      <point x="14" y="1497" type="line"/>
      <point x="229" y="1497" type="line"/>
      <point x="346" y="1272" type="line"/>
      <point x="203" y="1227" type="line"/>
    </contour>
    <contour>
      <point x="135" y="0" type="line"/>
      <point x="135" y="1071" type="line"/>
      <point x="360" y="1071" type="line"/>
      <point x="360" y="0" type="line"/>
    </contour>
  </outline>
</glyph>
<glyph name="iacute" format="2">
  <advance width="495"/>
  <unicode hex="00ED"/>
  <anchor x="0" y="0" name="Anchor-11"/>
  <anchor x="0" y="0" name="Anchor-10"/>
  <anchor x="344" y="1495" name="Anchor-9"/>
  <anchor x="0" y="0" name="Anchor-8"/>
  <anchor x="0" y="0" name="Anchor-7"/>
  <outline>
    <contour>
      <point x="326" y="1225" type="line"/>
      <point x="178" y="1270" type="line"/>
      <point x="295" y="1495" type="line"/>
      <point x="510" y="1495" type="line"/>
    </contour>
    <contour>
      <point x="135" y="0" type="line"/>
      <point x="135" y="1071" type="line"/>
      <point x="360" y="1071" type="line"/>
      <point x="360" y="0" type="line"/>
    </contour>
  </outline>
</glyph>
<glyph name="icircumflex" format="2">
  <advance width="495"/>
  <unicode hex="00EE"/>
  <anchor x="0" y="0" name="Anchor-11"/>
  <anchor x="0" y="0" name="Anchor-10"/>
  <anchor x="248" y="1495" name="Anchor-9"/>
  <anchor x="0" y="0" name="Anchor-8"/>
  <anchor x="0" y="0" name="Anchor-7"/>
  <outline>
    <contour>
      <point x="-45" y="1300" type="line"/>
      <point x="168" y="1495" type="line"/>
      <point x="330" y="1495" type="line"/>
      <point x="543" y="1300" type="line"/>
      <point x="422" y="1243" type="line"/>
      <point x="248" y="1372" type="line"/>
      <point x="74" y="1243" type="line"/>
    </contour>
    <contour>
      <point x="135" y="0" type="line"/>
      <point x="135" y="1071" type="line"/>
      <point x="360" y="1071" type="line"/>
      <point x="360" y="0" type="line"/>
    </contour>
  </outline>
</glyph>
<glyph name="idieresis" format="2">
  <advance width="495"/>
  <unicode hex="00EF"/>
  <anchor x="0" y="0" name="Anchor-11"/>
  <anchor x="0" y="0" name="Anchor-10"/>
  <anchor x="248" y="1477" name="Anchor-9"/>
  <anchor x="0" y="0" name="Anchor-8"/>
  <anchor x="0" y="0" name="Anchor-7"/>
  <outline>
    <contour>
      <point x="-27" y="1262" type="line"/>
      <point x="-27" y="1487" type="line"/>
      <point x="162" y="1487" type="line"/>
      <point x="162" y="1262" type="line"/>
    </contour>
    <contour>
      <point x="336" y="1262" type="line"/>
      <point x="336" y="1487" type="line"/>
      <point x="524" y="1487" type="line"/>
      <point x="524" y="1262" type="line"/>
    </contour>
    <contour>
      <point x="135" y="0" type="line"/>
      <point x="135" y="1071" type="line"/>
      <point x="360" y="1071" type="line"/>
      <point x="360" y="0" type="line"/>
    </contour>
  </outline>
</glyph>
<glyph name="eth" format="2">
  <advance width="1247"/>
  <unicode hex="00F0"/>
  <outline>
    <contour>
      <point x="903" y="1282" type="line"/>
      <point x="1040" y="1132"/>
      <point x="1174" y="768"/>
      <point x="1174" y="594" type="qcurve" smooth="yes"/>
      <point x="1174" y="454"/>
      <point x="1086" y="221"/>
      <point x="935" y="66"/>
      <point x="730" y="-20"/>
      <point x="614" y="-20" type="qcurve" smooth="yes"/>
      <point x="465" y="-20"/>
      <point x="217" y="110"/>
      <point x="72" y="339"/>
      <point x="72" y="477" type="qcurve" smooth="yes"/>
      <point x="72" y="680"/>
      <point x="363" y="969"/>
      <point x="569" y="969" type="qcurve" smooth="yes"/>
      <point x="686" y="969"/>
      <point x="886" y="865"/>
      <point x="942" y="778" type="qcurve"/>
      <point x="894" y="1021"/>
      <point x="731" y="1200" type="qcurve"/>
      <point x="524" y="1079" type="line"/>
      <point x="459" y="1171" type="line"/>
      <point x="647" y="1280" type="line"/>
      <point x="525" y="1391"/>
      <point x="332" y="1495" type="qcurve"/>
      <point x="633" y="1495" type="line"/>
      <point x="732" y="1442"/>
      <point x="821" y="1362" type="qcurve"/>
      <point x="989" y="1460" type="line"/>
      <point x="1055" y="1368" type="line"/>
    </contour>
    <contour>
      <point x="618" y="172" type="qcurve" smooth="yes"/>
      <point x="755" y="172"/>
      <point x="942" y="357"/>
      <point x="942" y="487" type="qcurve" smooth="yes"/>
      <point x="942" y="614"/>
      <point x="759" y="786"/>
      <point x="625" y="786" type="qcurve" smooth="yes"/>
      <point x="489" y="786"/>
      <point x="303" y="606"/>
      <point x="303" y="348"/>
      <point x="486" y="172"/>
    </contour>
  </outline>
</glyph>
<glyph name="ntilde" format="2">
  <advance width="1222"/>
  <unicode hex="00F1"/>
  <anchor x="0" y="0" name="Anchor-11"/>
  <anchor x="0" y="0" name="Anchor-10"/>
  <anchor x="633" y="1495" name="Anchor-9"/>
  <anchor x="0" y="0" name="Anchor-8"/>
  <anchor x="610" y="0" name="Anchor-7"/>
  <outline>
    <contour>
      <point x="498" y="1348" type="qcurve" smooth="yes"/>
      <point x="472" y="1348"/>
      <point x="433" y="1329"/>
      <point x="412" y="1303"/>
      <point x="400" y="1271"/>
      <point x="397" y="1254"/>
      <point x="397" y="1249" type="qcurve"/>
      <point x="270" y="1249" type="line"/>
      <point x="270" y="1264"/>
      <point x="282" y="1316"/>
      <point x="315" y="1385"/>
      <point x="362" y="1444"/>
      <point x="441" y="1485"/>
      <point x="489" y="1485" type="qcurve" smooth="yes"/>
      <point x="530" y="1485"/>
      <point x="606" y="1457"/>
      <point x="657" y="1423"/>
      <point x="725" y="1395"/>
      <point x="758" y="1395" type="qcurve" smooth="yes"/>
      <point x="786" y="1395"/>
      <point x="829" y="1415"/>
      <point x="851" y="1441"/>
      <point x="865" y="1472"/>
      <point x="868" y="1490"/>
      <point x="868" y="1495" type="qcurve"/>
      <point x="997" y="1495" type="line"/>
      <point x="997" y="1482"/>
      <point x="984" y="1432"/>
      <point x="950" y="1363"/>
      <point x="900" y="1302"/>
      <point x="815" y="1260"/>
      <point x="764" y="1260" type="qcurve" smooth="yes"/>
      <point x="711" y="1260"/>
      <point x="615" y="1304"/>
      <point x="534" y="1348"/>
    </contour>
    <contour>
      <point x="1096" y="0" type="line"/>
      <point x="870" y="0" type="line"/>
      <point x="870" y="600" type="line" smooth="yes"/>
      <point x="870" y="749"/>
      <point x="775" y="889"/>
      <point x="680" y="889" type="qcurve" smooth="yes"/>
      <point x="582" y="889"/>
      <point x="395" y="744"/>
      <point x="360" y="637" type="qcurve"/>
      <point x="360" y="0" type="line"/>
      <point x="135" y="0" type="line"/>
      <point x="135" y="1071" type="line"/>
      <point x="340" y="1071" type="line"/>
      <point x="340" y="856" type="line"/>
      <point x="402" y="964"/>
      <point x="636" y="1090"/>
      <point x="776" y="1090" type="qcurve" smooth="yes"/>
      <point x="851" y="1090"/>
      <point x="964" y="1044"/>
      <point x="1035" y="966"/>
      <point x="1079" y="851"/>
      <point x="1096" y="728"/>
      <point x="1096" y="653" type="qcurve" smooth="yes"/>
    </contour>
  </outline>
</glyph>
<glyph name="oacute" format="2">
  <advance width="1232"/>
  <unicode hex="00F3"/>
  <anchor x="909" y="936" name="Anchor-11"/>
  <anchor x="618" y="535" name="Anchor-10"/>
  <anchor x="713" y="1495" name="Anchor-9"/>
  <anchor x="770" y="0" name="Anchor-8"/>
  <anchor x="616" y="0" name="Anchor-7"/>
  <outline>
    <contour>
      <point x="694" y="1225" type="line"/>
      <point x="547" y="1270" type="line"/>
      <point x="664" y="1495" type="line"/>
      <point x="879" y="1495" type="line"/>
    </contour>
    <contour>
      <point x="66" y="646"/>
      <point x="146" y="848"/>
      <point x="286" y="1000"/>
      <point x="495" y="1090"/>
      <point x="616" y="1090" type="qcurve" smooth="yes"/>
      <point x="778" y="1090"/>
      <point x="1033" y="936"/>
      <point x="1167" y="684"/>
      <point x="1167" y="386"/>
      <point x="1033" y="134"/>
      <point x="778" y="-20"/>
      <point x="616" y="-20" type="qcurve" smooth="yes"/>
      <point x="493" y="-20"/>
      <point x="284" y="70"/>
      <point x="144" y="222"/>
      <point x="66" y="424"/>
    </contour>
    <contour>
      <point x="750" y="172"/>
      <point x="936" y="382"/>
      <point x="936" y="688"/>
      <point x="750" y="897"/>
      <point x="616" y="897" type="qcurve" smooth="yes"/>
      <point x="483" y="897"/>
      <point x="297" y="685"/>
      <point x="297" y="532" type="qcurve" smooth="yes"/>
      <point x="297" y="378"/>
      <point x="482" y="172"/>
    </contour>
  </outline>
</glyph>
<glyph name="otilde" format="2">
  <advance width="1232"/>
  <unicode hex="00F5"/>
  <anchor x="909" y="936" name="Anchor-11"/>
  <anchor x="618" y="535" name="Anchor-10"/>
  <anchor x="616" y="1495" name="Anchor-9"/>
  <anchor x="770" y="0" name="Anchor-8"/>
  <anchor x="616" y="0" name="Anchor-7"/>
  <outline>
    <contour>
      <point x="481" y="1348" type="qcurve" smooth="yes"/>
      <point x="449" y="1348"/>
      <point x="405" y="1321"/>
      <point x="387" y="1281"/>
      <point x="381" y="1256"/>
      <point x="381" y="1249" type="qcurve"/>
      <point x="254" y="1249" type="line"/>
      <point x="254" y="1264"/>
      <point x="266" y="1316"/>
      <point x="299" y="1385"/>
      <point x="346" y="1444"/>
      <point x="425" y="1485"/>
      <point x="473" y="1485" type="qcurve" smooth="yes"/>
      <point x="524" y="1485"/>
      <point x="616" y="1440"/>
      <point x="700" y="1395"/>
      <point x="741" y="1395" type="qcurve" smooth="yes"/>
      <point x="769" y="1395"/>
      <point x="812" y="1415"/>
      <point x="835" y="1441"/>
      <point x="849" y="1472"/>
      <point x="852" y="1490"/>
      <point x="852" y="1495" type="qcurve"/>
      <point x="981" y="1495" type="line"/>
      <point x="981" y="1482"/>
      <point x="968" y="1432"/>
      <point x="934" y="1363"/>
      <point x="884" y="1302"/>
      <point x="799" y="1260"/>
      <point x="748" y="1260" type="qcurve" smooth="yes"/>
      <point x="695" y="1260"/>
      <point x="599" y="1304"/>
      <point x="517" y="1348"/>
    </contour>
    <contour>
      <point x="66" y="646"/>
      <point x="146" y="848"/>
      <point x="286" y="1000"/>
      <point x="495" y="1090"/>
      <point x="616" y="1090" type="qcurve" smooth="yes"/>
      <point x="778" y="1090"/>
      <point x="1033" y="936"/>
      <point x="1167" y="684"/>
      <point x="1167" y="386"/>
      <point x="1033" y="134"/>
      <point x="778" y="-20"/>
      <point x="616" y="-20" type="qcurve" smooth="yes"/>
      <point x="493" y="-20"/>
      <point x="284" y="70"/>
      <point x="144" y="222"/>
      <point x="66" y="424"/>
    </contour>
    <contour>
      <point x="750" y="172"/>
      <point x="936" y="382"/>
      <point x="936" y="688"/>
      <point x="750" y="897"/>
      <point x="616" y="897" type="qcurve" smooth="yes"/>
      <point x="483" y="897"/>
      <point x="297" y="685"/>
      <point x="297" y="532" type="qcurve" smooth="yes"/>
      <point x="297" y="378"/>
      <point x="482" y="172"/>
    </contour>
  </outline>
</glyph>
<glyph name="divide" format="2">
  <advance width="1071"/>
  <unicode hex="00F7"/>
  <outline>
    <contour>
      <point x="440" y="842" type="line"/>
      <point x="440" y="1077" type="line"/>
      <point x="631" y="1077" type="line"/>
      <point x="631" y="842" type="line"/>
    </contour>
    <contour>
      <point x="123" y="508" type="line"/>
      <point x="123" y="688" type="line"/>
      <point x="948" y="688" type="line"/>
      <point x="948" y="508" type="line"/>
    </contour>
    <contour>
      <point x="440" y="119" type="line"/>
      <point x="440" y="352" type="line"/>
      <point x="631" y="352" type="line"/>
      <point x="631" y="119" type="line"/>
    </contour>
  </outline>
</glyph>
<glyph name="oslash" format="2">
  <advance width="1232"/>
  <unicode hex="00F8"/>
  <outline>
    <contour>
      <point x="1004" y="938" type="line"/>
      <point x="1082" y="861"/>
      <point x="1167" y="652"/>
      <point x="1167" y="535" type="qcurve" smooth="yes"/>
      <point x="1167" y="386"/>
      <point x="1033" y="134"/>
      <point x="778" y="-20"/>
      <point x="616" y="-20" type="qcurve" smooth="yes"/>
      <point x="457" y="-20"/>
      <point x="326" y="55" type="qcurve"/>
      <point x="274" y="-6" type="line"/>
      <point x="111" y="-6" type="line"/>
      <point x="225" y="135" type="line"/>
      <point x="149" y="211"/>
      <point x="66" y="419"/>
      <point x="66" y="535" type="qcurve" smooth="yes"/>
      <point x="66" y="646"/>
      <point x="146" y="848"/>
      <point x="286" y="1000"/>
      <point x="495" y="1090"/>
      <point x="616" y="1090" type="qcurve" smooth="yes"/>
      <point x="773" y="1090"/>
      <point x="899" y="1016" type="qcurve"/>
      <point x="948" y="1077" type="line"/>
      <point x="1116" y="1077" type="line"/>
    </contour>
    <contour>
      <point x="616" y="897" type="qcurve" smooth="yes"/>
      <point x="483" y="897"/>
      <point x="297" y="685"/>
      <point x="297" y="532" type="qcurve" smooth="yes"/>
      <point x="297" y="401"/>
      <point x="371" y="297" type="qcurve"/>
      <point x="770" y="854" type="line"/>
      <point x="703" y="897"/>
    </contour>
    <contour>
      <point x="616" y="172" type="qcurve" smooth="yes"/>
      <point x="750" y="172"/>
      <point x="936" y="382"/>
      <point x="936" y="535" type="qcurve" smooth="yes"/>
      <point x="936" y="670"/>
      <point x="860" y="772" type="qcurve"/>
      <point x="459" y="217" type="line"/>
      <point x="529" y="172"/>
    </contour>
  </outline>
</glyph>
<glyph name="thorn" format="2">
  <advance width="1232"/>
  <unicode hex="00FE"/>
  <outline>
    <contour>
      <point x="635" y="-43" type="qcurve" smooth="yes"/>
      <point x="543" y="-43"/>
      <point x="399" y="36"/>
      <point x="367" y="90" type="qcurve"/>
      <point x="367" y="-436" type="line"/>
      <point x="135" y="-436" type="line"/>
      <point x="135" y="1454" type="line"/>
      <point x="367" y="1454" type="line"/>
      <point x="367" y="952" type="line"/>
      <point x="468" y="1098"/>
      <point x="653" y="1098" type="qcurve" smooth="yes"/>
      <point x="768" y="1098"/>
      <point x="966" y="996"/>
      <point x="1095" y="832"/>
      <point x="1169" y="629"/>
      <point x="1169" y="526" type="qcurve" smooth="yes"/>
      <point x="1167" y="377"/>
      <point x="1025" y="115"/>
      <point x="779" y="-43"/>
    </contour>
    <contour>
      <point x="639" y="895" type="qcurve" smooth="yes"/>
      <point x="467" y="895"/>
      <point x="367" y="696" type="qcurve"/>
      <point x="367" y="356" type="line" smooth="yes"/>
      <point x="367" y="287"/>
      <point x="540" y="162"/>
      <point x="629" y="162" type="qcurve" smooth="yes"/>
      <point x="761" y="162"/>
      <point x="938" y="379"/>
      <point x="938" y="528" type="qcurve" smooth="yes"/>
      <point x="938" y="679"/>
      <point x="772" y="895"/>
    </contour>
  </outline>
</glyph>
<glyph name="ydieresis" format="2">
  <advance width="1120"/>
  <unicode hex="00FF"/>
  <anchor x="0" y="0" name="Anchor-11"/>
  <anchor x="0" y="0" name="Anchor-10"/>
  <anchor x="582" y="1477" name="Anchor-9"/>
  <anchor x="0" y="0" name="Anchor-8"/>
  <anchor x="836" y="0" name="Anchor-7"/>
  <outline>
    <contour>
      <point x="307" y="1262" type="line"/>
      <point x="307" y="1487" type="line"/>
      <point x="496" y="1487" type="line"/>
      <point x="496" y="1262" type="line"/>
    </contour>
    <contour>
      <point x="670" y="1262" type="line"/>
      <point x="670" y="1487" type="line"/>
      <point x="858" y="1487" type="line"/>
      <point x="858" y="1262" type="line"/>
    </contour>
    <contour>
      <point x="172" y="-252" type="line"/>
      <point x="244" y="-266"/>
      <point x="281" y="-266" type="qcurve" smooth="yes"/>
      <point x="333" y="-266"/>
      <point x="400" y="-165"/>
      <point x="459" y="0" type="qcurve"/>
      <point x="18" y="1071" type="line"/>
      <point x="254" y="1071" type="line"/>
      <point x="582" y="229" type="line"/>
      <point x="872" y="1071" type="line"/>
      <point x="1090" y="1071" type="line"/>
      <point x="604" y="-248" type="line" smooth="yes"/>
      <point x="570" y="-344"/>
      <point x="403" y="-465"/>
      <point x="283" y="-465" type="qcurve" smooth="yes"/>
      <point x="229" y="-465"/>
      <point x="172" y="-449" type="qcurve"/>
    </contour>
  </outline>
</glyph>
<glyph name="Amacron" format="2">
  <advance width="1382"/>
  <unicode hex="0100"/>
  <anchor x="0" y="0" name="Anchor-11"/>
  <anchor x="0" y="0" name="Anchor-10"/>
  <anchor x="694" y="1841" name="Anchor-9"/>
  <anchor x="1366" y="0" name="Anchor-8"/>
  <anchor x="711" y="0" name="Anchor-7"/>
  <outline>
    <contour>
      <point x="391" y="1698" type="line"/>
      <point x="391" y="1841" type="line"/>
      <point x="997" y="1841" type="line"/>
      <point x="997" y="1698" type="line"/>
    </contour>
    <contour>
      <point x="584" y="1454" type="line"/>
      <point x="801" y="1454" type="line"/>
      <point x="1366" y="0" type="line"/>
      <point x="1124" y="0" type="line"/>
      <point x="971" y="395" type="line"/>
      <point x="410" y="395" type="line"/>
      <point x="258" y="0" type="line"/>
      <point x="14" y="0" type="line"/>
    </contour>
    <contour>
      <point x="926" y="565" type="line"/>
      <point x="692" y="1202" type="line"/>
      <point x="451" y="565" type="line"/>
    </contour>
  </outline>
</glyph>
<glyph name="Aogonek" format="2">
  <advance width="1382"/>
  <unicode hex="0104"/>
  <anchor x="0" y="0" name="Anchor-11"/>
  <anchor x="0" y="0" name="Anchor-10"/>
  <anchor x="692" y="1450" name="Anchor-9"/>
  <anchor x="1366" y="0" name="Anchor-8"/>
  <anchor x="711" y="0" name="Anchor-7"/>
  <outline>
    <contour>
      <point x="1208" y="-258"/>
      <point x="1364" y="-264" type="qcurve"/>
      <point x="1317" y="-397" type="line"/>
      <point x="1177" y="-386"/>
      <point x="1061" y="-289"/>
      <point x="1061" y="-223" type="qcurve" smooth="yes"/>
      <point x="1061" y="-106"/>
      <point x="1200" y="0" type="qcurve"/>
      <point x="1124" y="0" type="line"/>
      <point x="971" y="395" type="line"/>
      <point x="410" y="395" type="line"/>
      <point x="258" y="0" type="line"/>
      <point x="14" y="0" type="line"/>
      <point x="584" y="1454" type="line"/>
      <point x="801" y="1454" type="line"/>
      <point x="1366" y="0" type="line"/>
      <point x="1208" y="-114"/>
    </contour>
    <contour>
      <point x="451" y="565" type="line"/>
      <point x="926" y="565" type="line"/>
      <point x="692" y="1202" type="line"/>
    </contour>
  </outline>
</glyph>
<glyph name="aogonek" format="2">
  <advance width="1155"/>
  <unicode hex="0105"/>
  <anchor x="0" y="0" name="Anchor-11"/>
  <anchor x="0" y="0" name="Anchor-10"/>
  <anchor x="551" y="1071" name="Anchor-9"/>
  <anchor x="1077" y="0" name="Anchor-8"/>
  <anchor x="612" y="0" name="Anchor-7"/>
  <outline>
    <contour>
      <point x="1077" y="0" type="line"/>
      <point x="920" y="-113"/>
      <point x="920" y="-186" type="qcurve" smooth="yes"/>
      <point x="920" y="-258"/>
      <point x="1075" y="-264" type="qcurve"/>
      <point x="1028" y="-397" type="line"/>
      <point x="888" y="-386"/>
      <point x="772" y="-289"/>
      <point x="772" y="-223" type="qcurve" smooth="yes"/>
      <point x="772" y="-106"/>
      <point x="913" y="0" type="qcurve"/>
      <point x="839" y="29"/>
      <point x="829" y="106" type="qcurve" smooth="yes"/>
      <point x="823" y="168" type="line"/>
      <point x="754" y="79"/>
      <point x="539" y="-20"/>
      <point x="426" y="-20" type="qcurve" smooth="yes"/>
      <point x="266" y="-20"/>
      <point x="57" y="171"/>
      <point x="57" y="313" type="qcurve" smooth="yes"/>
      <point x="57" y="466"/>
      <point x="311" y="653"/>
      <point x="514" y="653" type="qcurve" smooth="yes"/>
      <point x="677" y="653"/>
      <point x="793" y="610" type="qcurve"/>
      <point x="793" y="678" type="line" smooth="yes"/>
      <point x="793" y="791"/>
      <point x="655" y="918"/>
      <point x="530" y="918" type="qcurve" smooth="yes"/>
      <point x="444" y="918"/>
      <point x="284" y="858"/>
      <point x="190" y="797" type="qcurve"/>
      <point x="115" y="948" type="line"/>
      <point x="328" y="1090"/>
      <point x="555" y="1090" type="qcurve" smooth="yes"/>
      <point x="772" y="1090"/>
      <point x="1018" y="861"/>
      <point x="1018" y="653" type="qcurve" smooth="yes"/>
      <point x="1018" y="254" type="line" smooth="yes"/>
      <point x="1018" y="216"/>
      <point x="1045" y="181"/>
      <point x="1077" y="180" type="qcurve"/>
    </contour>
    <contour>
      <point x="793" y="348" type="qcurve" smooth="yes"/>
      <point x="793" y="471" type="line"/>
      <point x="675" y="516"/>
      <point x="547" y="516" type="qcurve" smooth="yes"/>
      <point x="423" y="516"/>
      <point x="270" y="416"/>
      <point x="270" y="332" type="qcurve" smooth="yes"/>
      <point x="270" y="256"/>
      <point x="387" y="145"/>
      <point x="489" y="145" type="qcurve" smooth="yes"/>
      <point x="559" y="145"/>
      <point x="695" y="203"/>
      <point x="739" y="248" type="qcurve" smooth="yes"/>
      <point x="793" y="302"/>
    </contour>
  </outline>
</glyph>
<glyph name="ccaron" format="2">
  <advance width="1144"/>
  <unicode hex="010D"/>
  <anchor x="0" y="0" name="Anchor-11"/>
  <anchor x="0" y="0" name="Anchor-10"/>
  <anchor x="618" y="1495" name="Anchor-9"/>
  <anchor x="0" y="0" name="Anchor-8"/>
  <anchor x="621" y="0" name="Anchor-7"/>
  <outline>
    <contour>
      <point x="444" y="1495" type="line"/>
      <point x="618" y="1366" type="line"/>
      <point x="793" y="1495" type="line"/>
      <point x="913" y="1438" type="line"/>
      <point x="700" y="1243" type="line"/>
      <point x="539" y="1243" type="line"/>
      <point x="326" y="1438" type="line"/>
    </contour>
    <contour>
      <point x="621" y="-20" type="qcurve" smooth="yes"/>
      <point x="459" y="-20"/>
      <point x="202" y="134"/>
      <point x="66" y="387"/>
      <point x="66" y="537" type="qcurve" smooth="yes"/>
      <point x="66" y="650"/>
      <point x="145" y="851"/>
      <point x="287" y="1002"/>
      <point x="497" y="1090"/>
      <point x="621" y="1090" type="qcurve" smooth="yes"/>
      <point x="783" y="1090"/>
      <point x="1023" y="946"/>
      <point x="1085" y="823" type="qcurve"/>
      <point x="866" y="754" type="line"/>
      <point x="828" y="821"/>
      <point x="696" y="897"/>
      <point x="616" y="897" type="qcurve" smooth="yes"/>
      <point x="480" y="897"/>
      <point x="297" y="694"/>
      <point x="297" y="537" type="qcurve" smooth="yes"/>
      <point x="297" y="383"/>
      <point x="485" y="172"/>
      <point x="618" y="172" type="qcurve" smooth="yes"/>
      <point x="701" y="172"/>
      <point x="847" y="257"/>
      <point x="872" y="319" type="qcurve"/>
      <point x="1094" y="254" type="line"/>
      <point x="1040" y="131"/>
      <point x="786" y="-20"/>
    </contour>
  </outline>
</glyph>
<glyph name="Dcaron" format="2">
  <advance width="1466"/>
  <unicode hex="010E"/>
  <anchor x="0" y="0" name="Anchor-11"/>
  <anchor x="733" y="727" name="Anchor-10"/>
  <anchor x="686" y="1874" name="Anchor-9"/>
  <anchor x="0" y="0" name="Anchor-8"/>
  <anchor x="733" y="0" name="Anchor-7"/>
  <outline>
    <contour>
      <point x="512" y="1874" type="line"/>
      <point x="686" y="1745" type="line"/>
      <point x="860" y="1874" type="line"/>
      <point x="981" y="1817" type="line"/>
      <point x="768" y="1622" type="line"/>
      <point x="606" y="1622" type="line"/>
      <point x="393" y="1817" type="line"/>
    </contour>
    <contour>
      <point x="164" y="0" type="line"/>
      <point x="164" y="1454" type="line"/>
      <point x="680" y="1454" type="line" smooth="yes"/>
      <point x="851" y="1454"/>
      <point x="1124" y="1341"/>
      <point x="1298" y="1142"/>
      <point x="1389" y="881"/>
      <point x="1389" y="729" type="qcurve" smooth="yes"/>
      <point x="1389" y="399"/>
      <point x="1002" y="0"/>
      <point x="680" y="0" type="qcurve" smooth="yes"/>
    </contour>
    <contour>
      <point x="680" y="1251" type="qcurve" smooth="yes"/>
      <point x="393" y="1251" type="line"/>
      <point x="393" y="203" type="line"/>
      <point x="680" y="203" type="line" smooth="yes"/>
      <point x="830" y="203"/>
      <point x="1047" y="342"/>
      <point x="1155" y="578"/>
      <point x="1155" y="729" type="qcurve" smooth="yes"/>
      <point x="1155" y="962"/>
      <point x="902" y="1251"/>
    </contour>
  </outline>
</glyph>
<glyph name="Dcroat" format="2">
  <advance width="1478"/>
  <unicode hex="0110"/>
  <anchor x="0" y="0" name="Anchor-11"/>
  <anchor x="745" y="727" name="Anchor-10"/>
  <anchor x="698" y="1450" name="Anchor-9"/>
  <anchor x="0" y="0" name="Anchor-8"/>
  <anchor x="745" y="0" name="Anchor-7"/>
  <outline>
    <contour>
      <point x="692" y="1454" type="line" smooth="yes"/>
      <point x="863" y="1454"/>
      <point x="1136" y="1341"/>
      <point x="1310" y="1142"/>
      <point x="1401" y="881"/>
      <point x="1401" y="729" type="qcurve" smooth="yes"/>
      <point x="1401" y="399"/>
      <point x="1014" y="0"/>
      <point x="692" y="0" type="qcurve" smooth="yes"/>
      <point x="176" y="0" type="line"/>
      <point x="176" y="645" type="line"/>
      <point x="68" y="645" type="line"/>
      <point x="68" y="817" type="line"/>
      <point x="176" y="817" type="line"/>
      <point x="176" y="1454" type="line"/>
    </contour>
    <contour>
      <point x="692" y="203" type="line" smooth="yes"/>
      <point x="842" y="203"/>
      <point x="1059" y="342"/>
      <point x="1167" y="578"/>
      <point x="1167" y="729" type="qcurve" smooth="yes"/>
      <point x="1167" y="962"/>
      <point x="914" y="1251"/>
      <point x="692" y="1251" type="qcurve" smooth="yes"/>
      <point x="406" y="1251" type="line"/>
      <point x="406" y="817" type="line"/>
      <point x="715" y="817" type="line"/>
      <point x="715" y="645" type="line"/>
      <point x="406" y="645" type="line"/>
      <point x="406" y="203" type="line"/>
    </contour>
  </outline>
</glyph>
<glyph name="Emacron" format="2">
  <advance width="1234"/>
  <unicode hex="0112"/>
  <anchor x="0" y="0" name="Anchor-11"/>
  <anchor x="0" y="0" name="Anchor-10"/>
  <anchor x="678" y="1841" name="Anchor-9"/>
  <anchor x="1161" y="0" name="Anchor-8"/>
  <anchor x="676" y="0" name="Anchor-7"/>
  <outline>
    <contour>
      <point x="375" y="1698" type="line"/>
      <point x="375" y="1841" type="line"/>
      <point x="981" y="1841" type="line"/>
      <point x="981" y="1698" type="line"/>
    </contour>
    <contour>
      <point x="1161" y="203" type="line"/>
      <point x="1161" y="0" type="line"/>
      <point x="164" y="0" type="line"/>
      <point x="164" y="1454" type="line"/>
      <point x="1143" y="1454" type="line"/>
      <point x="1143" y="1251" type="line"/>
      <point x="393" y="1251" type="line"/>
      <point x="393" y="838" type="line"/>
      <point x="1042" y="838" type="line"/>
      <point x="1042" y="647" type="line"/>
      <point x="393" y="647" type="line"/>
      <point x="393" y="203" type="line"/>
    </contour>
  </outline>
</glyph>
<glyph name="Ebreve" format="2">
  <advance width="1234"/>
  <unicode hex="0114"/>
  <anchor x="0" y="0" name="Anchor-11"/>
  <anchor x="0" y="0" name="Anchor-10"/>
  <anchor x="676" y="1874" name="Anchor-9"/>
  <anchor x="1161" y="0" name="Anchor-8"/>
  <anchor x="676" y="0" name="Anchor-7"/>
  <outline>
    <contour>
      <point x="795" y="1874" type="qcurve"/>
      <point x="920" y="1874" type="line"/>
      <point x="920" y="1767"/>
      <point x="780" y="1624"/>
      <point x="572" y="1624"/>
      <point x="432" y="1767"/>
      <point x="432" y="1874" type="qcurve"/>
      <point x="557" y="1874" type="line"/>
      <point x="557" y="1816"/>
      <point x="629" y="1729"/>
      <point x="676" y="1729" type="qcurve" smooth="yes"/>
      <point x="721" y="1729"/>
      <point x="789" y="1811"/>
    </contour>
    <contour>
      <point x="1161" y="203" type="line"/>
      <point x="1161" y="0" type="line"/>
      <point x="164" y="0" type="line"/>
      <point x="164" y="1454" type="line"/>
      <point x="1143" y="1454" type="line"/>
      <point x="1143" y="1251" type="line"/>
      <point x="393" y="1251" type="line"/>
      <point x="393" y="838" type="line"/>
      <point x="1042" y="838" type="line"/>
      <point x="1042" y="647" type="line"/>
      <point x="393" y="647" type="line"/>
      <point x="393" y="203" type="line"/>
    </contour>
  </outline>
</glyph>
<glyph name="Eogonek" format="2">
  <advance width="1234"/>
  <unicode hex="0118"/>
  <anchor x="0" y="0" name="Anchor-11"/>
  <anchor x="0" y="0" name="Anchor-10"/>
  <anchor x="676" y="1450" name="Anchor-9"/>
  <anchor x="1161" y="0" name="Anchor-8"/>
  <anchor x="676" y="0" name="Anchor-7"/>
  <outline>
    <contour>
      <point x="1161" y="0" type="line"/>
      <point x="1004" y="-113"/>
      <point x="1004" y="-186" type="qcurve" smooth="yes"/>
      <point x="1004" y="-258"/>
      <point x="1159" y="-264" type="qcurve"/>
      <point x="1112" y="-397" type="line"/>
      <point x="972" y="-386"/>
      <point x="856" y="-289"/>
      <point x="856" y="-223" type="qcurve" smooth="yes"/>
      <point x="856" y="-106"/>
      <point x="995" y="0" type="qcurve"/>
      <point x="164" y="0" type="line"/>
      <point x="164" y="1454" type="line"/>
      <point x="1143" y="1454" type="line"/>
      <point x="1143" y="1251" type="line"/>
      <point x="393" y="1251" type="line"/>
      <point x="393" y="838" type="line"/>
      <point x="1042" y="838" type="line"/>
      <point x="1042" y="647" type="line"/>
      <point x="393" y="647" type="line"/>
      <point x="393" y="203" type="line"/>
      <point x="1161" y="203" type="line"/>
    </contour>
  </outline>
</glyph>
<glyph name="eogonek" format="2">
  <advance width="1218"/>
  <unicode hex="0119"/>
  <anchor x="0" y="0" name="Anchor-11"/>
  <anchor x="0" y="0" name="Anchor-10"/>
  <anchor x="616" y="1071" name="Anchor-9"/>
  <anchor x="776" y="0" name="Anchor-8"/>
  <anchor x="618" y="0" name="Anchor-7"/>
  <outline>
    <contour>
      <point x="1169" y="543" type="qcurve" smooth="yes"/>
      <point x="1169" y="515"/>
      <point x="1163" y="461" type="qcurve"/>
      <point x="305" y="461" type="line"/>
      <point x="315" y="322"/>
      <point x="502" y="145"/>
      <point x="629" y="145" type="qcurve" smooth="yes"/>
      <point x="721" y="145"/>
      <point x="879" y="236"/>
      <point x="909" y="309" type="qcurve"/>
      <point x="1102" y="254" type="line"/>
      <point x="1061" y="163"/>
      <point x="887" y="27"/>
      <point x="774" y="-2" type="qcurve"/>
      <point x="618" y="-114"/>
      <point x="618" y="-258"/>
      <point x="774" y="-264" type="qcurve"/>
      <point x="727" y="-397" type="line"/>
      <point x="587" y="-386"/>
      <point x="471" y="-289"/>
      <point x="471" y="-223" type="qcurve" smooth="yes"/>
      <point x="471" y="-117"/>
      <point x="586" y="-20" type="qcurve"/>
      <point x="433" y="-11"/>
      <point x="194" y="143"/>
      <point x="66" y="388"/>
      <point x="66" y="532" type="qcurve" smooth="yes"/>
      <point x="66" y="645"/>
      <point x="147" y="849"/>
      <point x="289" y="1001"/>
      <point x="500" y="1090"/>
      <point x="746" y="1090"/>
      <point x="953" y="1000"/>
      <point x="1092" y="849"/>
      <point x="1169" y="651"/>
    </contour>
    <contour>
      <point x="299" y="610" type="qcurve"/>
      <point x="946" y="610" type="line"/>
      <point x="934" y="749"/>
      <point x="751" y="924"/>
      <point x="621" y="924" type="qcurve" smooth="yes"/>
      <point x="492" y="924"/>
      <point x="308" y="747"/>
    </contour>
  </outline>
</glyph>
<glyph name="Ecaron" format="2">
  <advance width="1234"/>
  <unicode hex="011A"/>
  <anchor x="0" y="0" name="Anchor-11"/>
  <anchor x="0" y="0" name="Anchor-10"/>
  <anchor x="676" y="1874" name="Anchor-9"/>
  <anchor x="1161" y="0" name="Anchor-8"/>
  <anchor x="676" y="0" name="Anchor-7"/>
  <outline>
    <contour>
      <point x="502" y="1874" type="line"/>
      <point x="676" y="1745" type="line"/>
      <point x="850" y="1874" type="line"/>
      <point x="971" y="1817" type="line"/>
      <point x="758" y="1622" type="line"/>
      <point x="596" y="1622" type="line"/>
      <point x="383" y="1817" type="line"/>
    </contour>
    <contour>
      <point x="1161" y="203" type="line"/>
      <point x="1161" y="0" type="line"/>
      <point x="164" y="0" type="line"/>
      <point x="164" y="1454" type="line"/>
      <point x="1143" y="1454" type="line"/>
      <point x="1143" y="1251" type="line"/>
      <point x="393" y="1251" type="line"/>
      <point x="393" y="838" type="line"/>
      <point x="1042" y="838" type="line"/>
      <point x="1042" y="647" type="line"/>
      <point x="393" y="647" type="line"/>
      <point x="393" y="203" type="line"/>
    </contour>
  </outline>
</glyph>
<glyph name="gbreve" format="2">
  <advance width="1288"/>
  <unicode hex="011F"/>
  <anchor x="0" y="0" name="Anchor-11"/>
  <anchor x="0" y="0" name="Anchor-10"/>
  <anchor x="627" y="1495" name="Anchor-9"/>
  <anchor x="0" y="0" name="Anchor-8"/>
  <anchor x="0" y="0" name="Anchor-7"/>
  <outline>
    <contour>
      <point x="745" y="1495" type="qcurve"/>
      <point x="870" y="1495" type="line"/>
      <point x="870" y="1388"/>
      <point x="731" y="1245"/>
      <point x="523" y="1245"/>
      <point x="383" y="1388"/>
      <point x="383" y="1495" type="qcurve"/>
      <point x="508" y="1495" type="line"/>
      <point x="508" y="1437"/>
      <point x="580" y="1350"/>
      <point x="627" y="1350" type="qcurve" smooth="yes"/>
      <point x="671" y="1350"/>
      <point x="739" y="1432"/>
    </contour>
    <contour>
      <point x="70" y="535" type="qcurve" smooth="yes"/>
      <point x="70" y="687"/>
      <point x="195" y="940"/>
      <point x="424" y="1090"/>
      <point x="567" y="1090" type="qcurve" smooth="yes"/>
      <point x="691" y="1090"/>
      <point x="888" y="971"/>
      <point x="954" y="868" type="qcurve"/>
      <point x="954" y="1071" type="line"/>
      <point x="1153" y="1071" type="line"/>
      <point x="1153" y="31" type="line" smooth="yes"/>
      <point x="1153" y="-120"/>
      <point x="1003" y="-344"/>
      <point x="747" y="-457"/>
      <point x="584" y="-457" type="qcurve" smooth="yes"/>
      <point x="260" y="-457"/>
      <point x="90" y="-227" type="qcurve"/>
      <point x="217" y="-109" type="line"/>
      <point x="277" y="-194"/>
      <point x="472" y="-285"/>
      <point x="584" y="-285" type="qcurve" smooth="yes"/>
      <point x="679" y="-285"/>
      <point x="831" y="-220"/>
      <point x="928" y="-73"/>
      <point x="928" y="31" type="qcurve" smooth="yes"/>
      <point x="928" y="195" type="line"/>
      <point x="872" y="100"/>
      <point x="671" y="-10"/>
      <point x="559" y="-10" type="qcurve" smooth="yes"/>
      <point x="419" y="-10"/>
      <point x="192" y="142"/>
      <point x="70" y="390"/>
    </contour>
    <contour>
      <point x="928" y="385" type="qcurve"/>
      <point x="928" y="666" type="line"/>
      <point x="888" y="767"/>
      <point x="712" y="897"/>
      <point x="616" y="897" type="qcurve" smooth="yes"/>
      <point x="522" y="897"/>
      <point x="374" y="788"/>
      <point x="299" y="621"/>
      <point x="299" y="528" type="qcurve" smooth="yes"/>
      <point x="299" y="381"/>
      <point x="493" y="172"/>
      <point x="633" y="172" type="qcurve" smooth="yes"/>
      <point x="732" y="172"/>
      <point x="903" y="298"/>
    </contour>
  </outline>
</glyph>
<glyph name="gdot" format="2">
  <advance width="1288"/>
  <unicode hex="0121"/>
  <anchor x="0" y="0" name="Anchor-11"/>
  <anchor x="0" y="0" name="Anchor-10"/>
  <anchor x="627" y="1495" name="Anchor-9"/>
  <anchor x="0" y="0" name="Anchor-8"/>
  <anchor x="0" y="0" name="Anchor-7"/>
  <outline>
    <contour>
      <point x="524" y="1260" type="line"/>
      <point x="524" y="1495" type="line"/>
      <point x="727" y="1495" type="line"/>
      <point x="727" y="1260" type="line"/>
    </contour>
    <contour>
      <point x="70" y="535" type="qcurve" smooth="yes"/>
      <point x="70" y="687"/>
      <point x="195" y="940"/>
      <point x="424" y="1090"/>
      <point x="567" y="1090" type="qcurve" smooth="yes"/>
      <point x="691" y="1090"/>
      <point x="888" y="971"/>
      <point x="954" y="868" type="qcurve"/>
      <point x="954" y="1071" type="line"/>
      <point x="1153" y="1071" type="line"/>
      <point x="1153" y="31" type="line" smooth="yes"/>
      <point x="1153" y="-120"/>
      <point x="1003" y="-344"/>
      <point x="747" y="-457"/>
      <point x="584" y="-457" type="qcurve" smooth="yes"/>
      <point x="260" y="-457"/>
      <point x="90" y="-227" type="qcurve"/>
      <point x="217" y="-109" type="line"/>
      <point x="277" y="-194"/>
      <point x="472" y="-285"/>
      <point x="584" y="-285" type="qcurve" smooth="yes"/>
      <point x="679" y="-285"/>
      <point x="831" y="-220"/>
      <point x="928" y="-73"/>
      <point x="928" y="31" type="qcurve" smooth="yes"/>
      <point x="928" y="195" type="line"/>
      <point x="872" y="100"/>
      <point x="671" y="-10"/>
      <point x="559" y="-10" type="qcurve" smooth="yes"/>
      <point x="419" y="-10"/>
      <point x="192" y="142"/>
      <point x="70" y="390"/>
    </contour>
    <contour>
      <point x="928" y="385" type="qcurve"/>
      <point x="928" y="666" type="line"/>
      <point x="888" y="767"/>
      <point x="712" y="897"/>
      <point x="616" y="897" type="qcurve" smooth="yes"/>
      <point x="522" y="897"/>
      <point x="374" y="788"/>
      <point x="299" y="621"/>
      <point x="299" y="528" type="qcurve" smooth="yes"/>
      <point x="299" y="381"/>
      <point x="493" y="172"/>
      <point x="633" y="172" type="qcurve" smooth="yes"/>
      <point x="732" y="172"/>
      <point x="903" y="298"/>
    </contour>
  </outline>
</glyph>
<glyph name="Hcircumflex" format="2">
  <advance width="1521"/>
  <unicode hex="0124"/>
  <anchor x="0" y="0" name="Anchor-11"/>
  <anchor x="762" y="727" name="Anchor-10"/>
  <anchor x="766" y="1874" name="Anchor-9"/>
  <anchor x="0" y="0" name="Anchor-8"/>
  <anchor x="762" y="0" name="Anchor-7"/>
  <outline>
    <contour>
      <point x="473" y="1679" type="line"/>
      <point x="686" y="1874" type="line"/>
      <point x="848" y="1874" type="line"/>
      <point x="1061" y="1679" type="line"/>
      <point x="940" y="1622" type="line"/>
      <point x="766" y="1751" type="line"/>
      <point x="592" y="1622" type="line"/>
    </contour>
    <contour>
      <point x="1358" y="1454" type="line"/>
      <point x="1358" y="0" type="line"/>
      <point x="1126" y="0" type="line"/>
      <point x="1126" y="641" type="line"/>
      <point x="393" y="641" type="line"/>
      <point x="393" y="0" type="line"/>
      <point x="164" y="0" type="line"/>
      <point x="164" y="1454" type="line"/>
      <point x="393" y="1454" type="line"/>
      <point x="393" y="846" type="line"/>
      <point x="1126" y="846" type="line"/>
      <point x="1126" y="1454" type="line"/>
    </contour>
  </outline>
</glyph>
<glyph name="Hbar" format="2">
  <advance width="1540"/>
  <unicode hex="0126"/>
  <anchor x="0" y="0" name="Anchor-11"/>
  <anchor x="772" y="727" name="Anchor-10"/>
  <anchor x="776" y="1450" name="Anchor-9"/>
  <anchor x="0" y="0" name="Anchor-8"/>
  <anchor x="772" y="0" name="Anchor-7"/>
  <outline>
    <contour>
      <point x="1470" y="1233" type="line"/>
      <point x="1470" y="1087" type="line"/>
      <point x="1368" y="1087" type="line"/>
      <point x="1368" y="0" type="line"/>
      <point x="1137" y="0" type="line"/>
      <point x="1137" y="641" type="line"/>
      <point x="403" y="641" type="line"/>
      <point x="403" y="0" type="line"/>
      <point x="174" y="0" type="line"/>
      <point x="174" y="1087" type="line"/>
      <point x="70" y="1087" type="line"/>
      <point x="70" y="1233" type="line"/>
      <point x="174" y="1233" type="line"/>
      <point x="174" y="1454" type="line"/>
      <point x="403" y="1454" type="line"/>
      <point x="403" y="1233" type="line"/>
      <point x="1137" y="1233" type="line"/>
      <point x="1137" y="1454" type="line"/>
      <point x="1368" y="1454" type="line"/>
      <point x="1368" y="1233" type="line"/>
    </contour>
    <contour>
      <point x="1137" y="846" type="line"/>
      <point x="1137" y="1087" type="line"/>
      <point x="403" y="1087" type="line"/>
      <point x="403" y="846" type="line"/>
    </contour>
  </outline>
</glyph>
<glyph name="hbar" format="2">
  <advance width="1222"/>
  <unicode hex="0127"/>
  <anchor x="0" y="0" name="Anchor-11"/>
  <anchor x="610" y="535" name="Anchor-10"/>
  <anchor x="651" y="1454" name="Anchor-9"/>
  <anchor x="0" y="0" name="Anchor-8"/>
  <anchor x="610" y="0" name="Anchor-7"/>
  <outline>
    <contour>
      <point x="758" y="1090" type="qcurve" smooth="yes"/>
      <point x="1096" y="1090"/>
      <point x="1096" y="653" type="qcurve" smooth="yes"/>
      <point x="1096" y="0" type="line"/>
      <point x="870" y="0" type="line"/>
      <point x="870" y="600" type="line" smooth="yes"/>
      <point x="870" y="744"/>
      <point x="766" y="889"/>
      <point x="668" y="889" type="qcurve" smooth="yes"/>
      <point x="574" y="889"/>
      <point x="393" y="745"/>
      <point x="360" y="637" type="qcurve"/>
      <point x="360" y="0" type="line"/>
      <point x="135" y="0" type="line"/>
      <point x="135" y="1237" type="line"/>
      <point x="33" y="1237" type="line"/>
      <point x="33" y="1376" type="line"/>
      <point x="135" y="1376" type="line"/>
      <point x="135" y="1495" type="line"/>
      <point x="360" y="1495" type="line"/>
      <point x="360" y="1376" type="line"/>
      <point x="608" y="1376" type="line"/>
      <point x="608" y="1237" type="line"/>
      <point x="360" y="1237" type="line"/>
      <point x="360" y="856" type="line"/>
      <point x="422" y="965"/>
      <point x="634" y="1090"/>
    </contour>
  </outline>
</glyph>
<glyph name="Itilde" format="2">
  <advance width="557"/>
  <unicode hex="0128"/>
  <anchor x="0" y="0" name="Anchor-11"/>
  <anchor x="0" y="0" name="Anchor-10"/>
  <anchor x="279" y="1874" name="Anchor-9"/>
  <anchor x="393" y="0" name="Anchor-8"/>
  <anchor x="279" y="0" name="Anchor-7"/>
  <outline>
    <contour>
      <point x="143" y="1726" type="qcurve" smooth="yes"/>
      <point x="111" y="1726"/>
      <point x="67" y="1699"/>
      <point x="49" y="1660"/>
      <point x="43" y="1635"/>
      <point x="43" y="1628" type="qcurve"/>
      <point x="-84" y="1628" type="line"/>
      <point x="-84" y="1643"/>
      <point x="-72" y="1695"/>
      <point x="-39" y="1764"/>
      <point x="8" y="1823"/>
      <point x="87" y="1864"/>
      <point x="135" y="1864" type="qcurve" smooth="yes"/>
      <point x="186" y="1864"/>
      <point x="278" y="1819"/>
      <point x="362" y="1774"/>
      <point x="403" y="1774" type="qcurve" smooth="yes"/>
      <point x="431" y="1774"/>
      <point x="474" y="1794"/>
      <point x="497" y="1820"/>
      <point x="511" y="1851"/>
      <point x="514" y="1869"/>
      <point x="514" y="1874" type="qcurve"/>
      <point x="643" y="1874" type="line"/>
      <point x="643" y="1861"/>
      <point x="630" y="1811"/>
      <point x="596" y="1741"/>
      <point x="546" y="1681"/>
      <point x="461" y="1638"/>
      <point x="410" y="1638" type="qcurve" smooth="yes"/>
      <point x="357" y="1638"/>
      <point x="261" y="1682"/>
      <point x="179" y="1726"/>
    </contour>
    <contour>
      <point x="164" y="0" type="line"/>
      <point x="164" y="1454" type="line"/>
      <point x="393" y="1454" type="line"/>
      <point x="393" y="0" type="line"/>
    </contour>
  </outline>
</glyph>
<glyph name="itilde" format="2">
  <advance width="495"/>
  <unicode hex="0129"/>
  <anchor x="0" y="0" name="Anchor-11"/>
  <anchor x="0" y="0" name="Anchor-10"/>
  <anchor x="248" y="1495" name="Anchor-9"/>
  <anchor x="0" y="0" name="Anchor-8"/>
  <anchor x="0" y="0" name="Anchor-7"/>
  <outline>
    <contour>
      <point x="113" y="1348" type="qcurve" smooth="yes"/>
      <point x="87" y="1348"/>
      <point x="48" y="1329"/>
      <point x="27" y="1303"/>
      <point x="15" y="1271"/>
      <point x="12" y="1254"/>
      <point x="12" y="1249" type="qcurve"/>
      <point x="-115" y="1249" type="line"/>
      <point x="-115" y="1264"/>
      <point x="-103" y="1316"/>
      <point x="-70" y="1385"/>
      <point x="-23" y="1444"/>
      <point x="56" y="1485"/>
      <point x="104" y="1485" type="qcurve" smooth="yes"/>
      <point x="145" y="1485"/>
      <point x="221" y="1457"/>
      <point x="272" y="1423"/>
      <point x="340" y="1395"/>
      <point x="373" y="1395" type="qcurve" smooth="yes"/>
      <point x="401" y="1395"/>
      <point x="444" y="1415"/>
      <point x="466" y="1441"/>
      <point x="480" y="1472"/>
      <point x="483" y="1490"/>
      <point x="483" y="1495" type="qcurve"/>
      <point x="612" y="1495" type="line"/>
      <point x="612" y="1482"/>
      <point x="599" y="1432"/>
      <point x="565" y="1363"/>
      <point x="515" y="1302"/>
      <point x="430" y="1260"/>
      <point x="379" y="1260" type="qcurve" smooth="yes"/>
      <point x="326" y="1260"/>
      <point x="230" y="1304"/>
      <point x="149" y="1348"/>
    </contour>
    <contour>
      <point x="135" y="0" type="line"/>
      <point x="135" y="1071" type="line"/>
      <point x="360" y="1071" type="line"/>
      <point x="360" y="0" type="line"/>
    </contour>
  </outline>
</glyph>
<glyph name="Imacron" format="2">
  <advance width="557"/>
  <unicode hex="012A"/>
  <anchor x="0" y="0" name="Anchor-11"/>
  <anchor x="0" y="0" name="Anchor-10"/>
  <anchor x="281" y="1841" name="Anchor-9"/>
  <anchor x="393" y="0" name="Anchor-8"/>
  <anchor x="279" y="0" name="Anchor-7"/>
  <outline>
    <contour>
      <point x="-23" y="1698" type="line"/>
      <point x="-23" y="1841" type="line"/>
      <point x="584" y="1841" type="line"/>
      <point x="584" y="1698" type="line"/>
    </contour>
    <contour>
      <point x="164" y="0" type="line"/>
      <point x="164" y="1454" type="line"/>
      <point x="393" y="1454" type="line"/>
      <point x="393" y="0" type="line"/>
    </contour>
  </outline>
</glyph>
<glyph name="imacron" format="2">
  <advance width="495"/>
  <unicode hex="012B"/>
  <anchor x="0" y="0" name="Anchor-11"/>
  <anchor x="0" y="0" name="Anchor-10"/>
  <anchor x="250" y="1462" name="Anchor-9"/>
  <anchor x="0" y="0" name="Anchor-8"/>
  <anchor x="0" y="0" name="Anchor-7"/>
  <outline>
    <contour>
      <point x="-53" y="1319" type="line"/>
      <point x="-53" y="1462" type="line"/>
      <point x="553" y="1462" type="line"/>
      <point x="553" y="1319" type="line"/>
    </contour>
    <contour>
      <point x="135" y="0" type="line"/>
      <point x="135" y="1071" type="line"/>
      <point x="360" y="1071" type="line"/>
      <point x="360" y="0" type="line"/>
    </contour>
  </outline>
</glyph>
<glyph name="Ibreve" format="2">
  <advance width="557"/>
  <unicode hex="012C"/>
  <anchor x="0" y="0" name="Anchor-11"/>
  <anchor x="0" y="0" name="Anchor-10"/>
  <anchor x="279" y="1874" name="Anchor-9"/>
  <anchor x="393" y="0" name="Anchor-8"/>
  <anchor x="279" y="0" name="Anchor-7"/>
  <outline>
    <contour>
      <point x="397" y="1874" type="qcurve"/>
      <point x="522" y="1874" type="line"/>
      <point x="522" y="1767"/>
      <point x="383" y="1624"/>
      <point x="175" y="1624"/>
      <point x="35" y="1767"/>
      <point x="35" y="1874" type="qcurve"/>
      <point x="160" y="1874" type="line"/>
      <point x="160" y="1816"/>
      <point x="232" y="1729"/>
      <point x="279" y="1729" type="qcurve" smooth="yes"/>
      <point x="323" y="1729"/>
      <point x="391" y="1811"/>
    </contour>
    <contour>
      <point x="164" y="0" type="line"/>
      <point x="164" y="1454" type="line"/>
      <point x="393" y="1454" type="line"/>
      <point x="393" y="0" type="line"/>
    </contour>
  </outline>
</glyph>
<glyph name="ibreve" format="2">
  <advance width="495"/>
  <unicode hex="012D"/>
  <anchor x="0" y="0" name="Anchor-11"/>
  <anchor x="0" y="0" name="Anchor-10"/>
  <anchor x="248" y="1495" name="Anchor-9"/>
  <anchor x="0" y="0" name="Anchor-8"/>
  <anchor x="0" y="0" name="Anchor-7"/>
  <outline>
    <contour>
      <point x="367" y="1495" type="qcurve"/>
      <point x="492" y="1495" type="line"/>
      <point x="492" y="1388"/>
      <point x="352" y="1245"/>
      <point x="144" y="1245"/>
      <point x="4" y="1388"/>
      <point x="4" y="1495" type="qcurve"/>
      <point x="129" y="1495" type="line"/>
      <point x="129" y="1437"/>
      <point x="201" y="1350"/>
      <point x="248" y="1350" type="qcurve" smooth="yes"/>
      <point x="293" y="1350"/>
      <point x="361" y="1432"/>
    </contour>
    <contour>
      <point x="135" y="0" type="line"/>
      <point x="135" y="1071" type="line"/>
      <point x="360" y="1071" type="line"/>
      <point x="360" y="0" type="line"/>
    </contour>
  </outline>
</glyph>
<glyph name="Iogonek" format="2">
  <advance width="557"/>
  <unicode hex="012E"/>
  <anchor x="0" y="0" name="Anchor-11"/>
  <anchor x="0" y="0" name="Anchor-10"/>
  <anchor x="279" y="1450" name="Anchor-9"/>
  <anchor x="393" y="0" name="Anchor-8"/>
  <anchor x="279" y="0" name="Anchor-7"/>
  <outline>
    <contour>
      <point x="393" y="0" type="line"/>
      <point x="236" y="-113"/>
      <point x="236" y="-186" type="qcurve" smooth="yes"/>
      <point x="236" y="-258"/>
      <point x="391" y="-264" type="qcurve"/>
      <point x="344" y="-397" type="line"/>
      <point x="204" y="-386"/>
      <point x="88" y="-289"/>
      <point x="88" y="-223" type="qcurve" smooth="yes"/>
      <point x="88" y="-106"/>
      <point x="227" y="0" type="qcurve"/>
      <point x="164" y="0" type="line"/>
      <point x="164" y="1454" type="line"/>
      <point x="393" y="1454" type="line"/>
    </contour>
  </outline>
</glyph>
<glyph name="iogonek" format="2">
  <advance width="495"/>
  <unicode hex="012F"/>
  <anchor x="0" y="0" name="Anchor-11"/>
  <anchor x="0" y="0" name="Anchor-10"/>
  <anchor x="0" y="0" name="Anchor-9"/>
  <anchor x="360" y="0" name="Anchor-8"/>
  <anchor x="248" y="0" name="Anchor-7"/>
  <outline>
    <contour>
      <point x="135" y="1495" type="line"/>
      <point x="360" y="1495" type="line"/>
      <point x="360" y="1247" type="line"/>
      <point x="135" y="1247" type="line"/>
    </contour>
    <contour>
      <point x="135" y="0" type="line"/>
      <point x="135" y="1071" type="line"/>
      <point x="360" y="1071" type="line"/>
      <point x="360" y="0" type="line"/>
      <point x="203" y="-113"/>
      <point x="203" y="-186" type="qcurve" smooth="yes"/>
      <point x="203" y="-258"/>
      <point x="358" y="-264" type="qcurve"/>
      <point x="311" y="-397" type="line"/>
      <point x="171" y="-386"/>
      <point x="55" y="-289"/>
      <point x="55" y="-223" type="qcurve" smooth="yes"/>
      <point x="55" y="-107"/>
      <point x="195" y="0" type="qcurve"/>
    </contour>
  </outline>
</glyph>
<glyph name="Idotaccent" format="2">
  <advance width="557"/>
  <unicode hex="0130"/>
  <anchor x="0" y="0" name="Anchor-11"/>
  <anchor x="0" y="0" name="Anchor-10"/>
  <anchor x="279" y="1874" name="Anchor-9"/>
  <anchor x="393" y="0" name="Anchor-8"/>
  <anchor x="279" y="0" name="Anchor-7"/>
  <outline>
    <contour>
      <point x="176" y="1638" type="line"/>
      <point x="176" y="1874" type="line"/>
      <point x="379" y="1874" type="line"/>
      <point x="379" y="1638" type="line"/>
    </contour>
    <contour>
      <point x="164" y="0" type="line"/>
      <point x="164" y="1454" type="line"/>
      <point x="393" y="1454" type="line"/>
      <point x="393" y="0" type="line"/>
    </contour>
  </outline>
</glyph>
<glyph name="dotlessi" format="2">
  <advance width="495"/>
  <unicode hex="0131"/>
  <anchor x="0" y="0" name="Anchor-11"/>
  <anchor x="0" y="0" name="Anchor-10"/>
  <anchor x="248" y="1071" name="Anchor-9"/>
  <anchor x="0" y="0" name="Anchor-8"/>
  <anchor x="0" y="0" name="Anchor-7"/>
  <outline>
    <contour>
      <point x="135" y="0" type="line"/>
      <point x="135" y="1071" type="line"/>
      <point x="360" y="1071" type="line"/>
      <point x="360" y="0" type="line"/>
    </contour>
  </outline>
</glyph>
<glyph name="Kcedilla" format="2">
  <advance width="1351"/>
  <unicode hex="0136"/>
  <anchor x="0" y="0" name="Anchor-11"/>
  <anchor x="0" y="0" name="Anchor-10"/>
  <anchor x="0" y="0" name="Anchor-9"/>
  <anchor x="0" y="0" name="Anchor-8"/>
  <anchor x="707" y="0" name="Anchor-7"/>
  <outline>
    <contour>
      <point x="164" y="0" type="line"/>
      <point x="164" y="1452" type="line"/>
      <point x="393" y="1452" type="line"/>
      <point x="393" y="705" type="line"/>
      <point x="1077" y="1454" type="line"/>
      <point x="1331" y="1454" type="line"/>
      <point x="758" y="811" type="line"/>
      <point x="1364" y="0" type="line"/>
      <point x="1104" y="0" type="line"/>
      <point x="612" y="666" type="line"/>
      <point x="393" y="438" type="line"/>
      <point x="393" y="0" type="line"/>
    </contour>
    <contour>
      <point x="621" y="-436" type="line"/>
      <point x="668" y="-279" type="line"/>
      <point x="602" y="-279" type="line"/>
      <point x="602" y="-98" type="line"/>
      <point x="797" y="-98" type="line"/>
      <point x="797" y="-279" type="line"/>
      <point x="725" y="-436" type="line"/>
    </contour>
  </outline>
</glyph>
<glyph name="kgreenlandic" format="2">
  <advance width="1122"/>
  <unicode hex="0138"/>
  <outline>
    <contour>
      <point x="881" y="0" type="line"/>
      <point x="539" y="494" type="line"/>
      <point x="360" y="326" type="line"/>
      <point x="360" y="0" type="line"/>
      <point x="135" y="0" type="line"/>
      <point x="135" y="1071" type="line"/>
      <point x="360" y="1071" type="line"/>
      <point x="360" y="547" type="line"/>
      <point x="852" y="1069" type="line"/>
      <point x="1098" y="1069" type="line"/>
      <point x="682" y="621" type="line"/>
      <point x="1120" y="0" type="line"/>
    </contour>
  </outline>
</glyph>
<glyph name="Lacute" format="2">
  <advance width="1196"/>
  <unicode hex="0139"/>
  <anchor x="788" y="1077" name="Anchor-11"/>
  <anchor x="598" y="727" name="Anchor-10"/>
  <anchor x="371" y="1874" name="Anchor-9"/>
  <anchor x="0" y="0" name="Anchor-8"/>
  <anchor x="686" y="0" name="Anchor-7"/>
  <outline>
    <contour>
      <point x="352" y="1604" type="line"/>
      <point x="205" y="1649" type="line"/>
      <point x="322" y="1874" type="line"/>
      <point x="537" y="1874" type="line"/>
    </contour>
    <contour>
      <point x="164" y="0" type="line"/>
      <point x="164" y="1454" type="line"/>
      <point x="393" y="1454" type="line"/>
      <point x="393" y="203" type="line"/>
      <point x="1174" y="203" type="line"/>
      <point x="1174" y="0" type="line"/>
    </contour>
  </outline>
</glyph>
<glyph name="Lcaron" format="2">
  <advance width="1196"/>
  <unicode hex="013D"/>
  <anchor x="788" y="1077" name="Anchor-11"/>
  <anchor x="598" y="727" name="Anchor-10"/>
  <anchor x="274" y="1450" name="Anchor-9"/>
  <anchor x="0" y="0" name="Anchor-8"/>
  <anchor x="686" y="0" name="Anchor-7"/>
  <outline>
    <contour>
      <point x="897" y="1231" type="line"/>
      <point x="750" y="1276" type="line"/>
      <point x="866" y="1501" type="line"/>
      <point x="1081" y="1501" type="line"/>
    </contour>
    <contour>
      <point x="164" y="0" type="line"/>
      <point x="164" y="1454" type="line"/>
      <point x="393" y="1454" type="line"/>
      <point x="393" y="203" type="line"/>
      <point x="1174" y="203" type="line"/>
      <point x="1174" y="0" type="line"/>
    </contour>
  </outline>
</glyph>
<glyph name="Ldot" format="2">
  <advance width="1196"/>
  <unicode hex="013F"/>
  <anchor x="788" y="1077" name="Anchor-11"/>
  <anchor x="598" y="727" name="Anchor-10"/>
  <anchor x="274" y="1450" name="Anchor-9"/>
  <anchor x="0" y="0" name="Anchor-8"/>
  <anchor x="686" y="0" name="Anchor-7"/>
  <outline>
    <contour>
      <point x="164" y="0" type="line"/>
      <point x="164" y="1454" type="line"/>
      <point x="393" y="1454" type="line"/>
      <point x="393" y="203" type="line"/>
      <point x="1174" y="203" type="line"/>
      <point x="1174" y="0" type="line"/>
    </contour>
    <contour>
      <point x="750" y="690" type="line"/>
      <point x="750" y="971" type="line"/>
      <point x="936" y="971" type="line"/>
      <point x="936" y="690" type="line"/>
    </contour>
  </outline>
</glyph>
<glyph name="Lslash" format="2">
  <advance width="1212"/>
  <unicode hex="0141"/>
  <anchor x="805" y="1077" name="Anchor-11"/>
  <anchor x="614" y="727" name="Anchor-10"/>
  <anchor x="291" y="1450" name="Anchor-9"/>
  <anchor x="0" y="0" name="Anchor-8"/>
  <anchor x="702" y="0" name="Anchor-7"/>
  <outline>
    <contour>
      <point x="410" y="203" type="line"/>
      <point x="1190" y="203" type="line"/>
      <point x="1190" y="0" type="line"/>
      <point x="180" y="0" type="line"/>
      <point x="180" y="563" type="line"/>
      <point x="70" y="485" type="line"/>
      <point x="8" y="610" type="line"/>
      <point x="180" y="731" type="line"/>
      <point x="180" y="1454" type="line"/>
      <point x="410" y="1454" type="line"/>
      <point x="410" y="891" type="line"/>
      <point x="670" y="1073" type="line"/>
      <point x="729" y="950" type="line"/>
      <point x="410" y="725" type="line"/>
    </contour>
  </outline>
</glyph>
<glyph name="lslash" format="2">
  <advance width="665"/>
  <unicode hex="0142"/>
  <anchor x="532" y="1071" name="Anchor-11"/>
  <anchor x="356" y="535" name="Anchor-10"/>
  <anchor x="297" y="1454" name="Anchor-9"/>
  <anchor x="0" y="0" name="Anchor-8"/>
  <anchor x="424" y="0" name="Anchor-7"/>
  <outline>
    <contour>
      <point x="635" y="211" type="qcurve"/>
      <point x="668" y="33" type="line"/>
      <point x="619" y="11"/>
      <point x="485" y="-16"/>
      <point x="430" y="-16" type="qcurve" smooth="yes"/>
      <point x="314" y="-16"/>
      <point x="184" y="112"/>
      <point x="184" y="227" type="qcurve" smooth="yes"/>
      <point x="184" y="641" type="line"/>
      <point x="70" y="565" type="line"/>
      <point x="8" y="690" type="line"/>
      <point x="184" y="807" type="line"/>
      <point x="184" y="1495" type="line"/>
      <point x="410" y="1495" type="line"/>
      <point x="410" y="954" type="line"/>
      <point x="586" y="1071" type="line"/>
      <point x="649" y="948" type="line"/>
      <point x="410" y="791" type="line"/>
      <point x="410" y="309" type="line" smooth="yes"/>
      <point x="410" y="233"/>
      <point x="453" y="182"/>
      <point x="496" y="182" type="qcurve" smooth="yes"/>
      <point x="572" y="182"/>
    </contour>
  </outline>
</glyph>
<glyph name="Nacute" format="2">
  <advance width="1570"/>
  <unicode hex="0143"/>
  <anchor x="0" y="0" name="Anchor-11"/>
  <anchor x="0" y="0" name="Anchor-10"/>
  <anchor x="883" y="1874" name="Anchor-9"/>
  <anchor x="0" y="0" name="Anchor-8"/>
  <anchor x="786" y="0" name="Anchor-7"/>
  <outline>
    <contour>
      <point x="864" y="1604" type="line"/>
      <point x="717" y="1649" type="line"/>
      <point x="834" y="1874" type="line"/>
      <point x="1049" y="1874" type="line"/>
    </contour>
    <contour>
      <point x="393" y="1028" type="line"/>
      <point x="393" y="0" type="line"/>
      <point x="164" y="0" type="line"/>
      <point x="164" y="1454" type="line"/>
      <point x="352" y="1454" type="line"/>
      <point x="1176" y="403" type="line"/>
      <point x="1176" y="1452" type="line"/>
      <point x="1407" y="1452" type="line"/>
      <point x="1407" y="0" type="line"/>
      <point x="1206" y="0" type="line"/>
    </contour>
  </outline>
</glyph>
<glyph name="nacute" format="2">
  <advance width="1222"/>
  <unicode hex="0144"/>
  <anchor x="0" y="0" name="Anchor-11"/>
  <anchor x="0" y="0" name="Anchor-10"/>
  <anchor x="729" y="1495" name="Anchor-9"/>
  <anchor x="0" y="0" name="Anchor-8"/>
  <anchor x="610" y="0" name="Anchor-7"/>
  <outline>
    <contour>
      <point x="711" y="1225" type="line"/>
      <point x="563" y="1270" type="line"/>
      <point x="680" y="1495" type="line"/>
      <point x="895" y="1495" type="line"/>
    </contour>
    <contour>
      <point x="1096" y="0" type="line"/>
      <point x="870" y="0" type="line"/>
      <point x="870" y="600" type="line" smooth="yes"/>
      <point x="870" y="749"/>
      <point x="775" y="889"/>
      <point x="680" y="889" type="qcurve" smooth="yes"/>
      <point x="582" y="889"/>
      <point x="395" y="744"/>
      <point x="360" y="637" type="qcurve"/>
      <point x="360" y="0" type="line"/>
      <point x="135" y="0" type="line"/>
      <point x="135" y="1071" type="line"/>
      <point x="340" y="1071" type="line"/>
      <point x="340" y="856" type="line"/>
      <point x="402" y="964"/>
      <point x="636" y="1090"/>
      <point x="776" y="1090" type="qcurve" smooth="yes"/>
      <point x="851" y="1090"/>
      <point x="964" y="1044"/>
      <point x="1035" y="966"/>
      <point x="1079" y="851"/>
      <point x="1096" y="728"/>
      <point x="1096" y="653" type="qcurve" smooth="yes"/>
    </contour>
  </outline>
</glyph>
<glyph name="Ncedilla" format="2">
  <advance width="1570"/>
  <unicode hex="0145"/>
  <anchor x="0" y="0" name="Anchor-11"/>
  <anchor x="0" y="0" name="Anchor-10"/>
  <anchor x="786" y="1450" name="Anchor-9"/>
  <anchor x="0" y="0" name="Anchor-8"/>
  <anchor x="786" y="0" name="Anchor-7"/>
  <outline>
    <contour>
      <point x="393" y="1028" type="line"/>
      <point x="393" y="0" type="line"/>
      <point x="164" y="0" type="line"/>
      <point x="164" y="1454" type="line"/>
      <point x="352" y="1454" type="line"/>
      <point x="1176" y="403" type="line"/>
      <point x="1176" y="1452" type="line"/>
      <point x="1407" y="1452" type="line"/>
      <point x="1407" y="0" type="line"/>
      <point x="1206" y="0" type="line"/>
    </contour>
    <contour>
      <point x="700" y="-436" type="line"/>
      <point x="748" y="-279" type="line"/>
      <point x="682" y="-279" type="line"/>
      <point x="682" y="-98" type="line"/>
      <point x="877" y="-98" type="line"/>
      <point x="877" y="-279" type="line"/>
      <point x="805" y="-436" type="line"/>
    </contour>
  </outline>
</glyph>
<glyph name="ncedilla" format="2">
  <advance width="1222"/>
  <unicode hex="0146"/>
  <anchor x="0" y="0" name="Anchor-11"/>
  <anchor x="0" y="0" name="Anchor-10"/>
  <anchor x="633" y="1071" name="Anchor-9"/>
  <anchor x="0" y="0" name="Anchor-8"/>
  <anchor x="610" y="0" name="Anchor-7"/>
  <outline>
    <contour>
      <point x="1096" y="0" type="line"/>
      <point x="870" y="0" type="line"/>
      <point x="870" y="600" type="line" smooth="yes"/>
      <point x="870" y="749"/>
      <point x="775" y="889"/>
      <point x="680" y="889" type="qcurve" smooth="yes"/>
      <point x="582" y="889"/>
      <point x="395" y="744"/>
      <point x="360" y="637" type="qcurve"/>
      <point x="360" y="0" type="line"/>
      <point x="135" y="0" type="line"/>
      <point x="135" y="1071" type="line"/>
      <point x="340" y="1071" type="line"/>
      <point x="340" y="856" type="line"/>
      <point x="402" y="964"/>
      <point x="636" y="1090"/>
      <point x="776" y="1090" type="qcurve" smooth="yes"/>
      <point x="851" y="1090"/>
      <point x="964" y="1044"/>
      <point x="1035" y="966"/>
      <point x="1079" y="851"/>
      <point x="1096" y="728"/>
      <point x="1096" y="653" type="qcurve" smooth="yes"/>
    </contour>
    <contour>
      <point x="524" y="-436" type="line"/>
      <point x="571" y="-279" type="line"/>
      <point x="506" y="-279" type="line"/>
      <point x="506" y="-98" type="line"/>
      <point x="700" y="-98" type="line"/>
      <point x="700" y="-279" type="line"/>
      <point x="629" y="-436" type="line"/>
    </contour>
  </outline>
</glyph>
<glyph name="Ncaron" format="2">
  <advance width="1570"/>
  <unicode hex="0147"/>
  <anchor x="0" y="0" name="Anchor-11"/>
  <anchor x="0" y="0" name="Anchor-10"/>
  <anchor x="786" y="1874" name="Anchor-9"/>
  <anchor x="0" y="0" name="Anchor-8"/>
  <anchor x="786" y="0" name="Anchor-7"/>
  <outline>
    <contour>
      <point x="612" y="1874" type="line"/>
      <point x="786" y="1745" type="line"/>
      <point x="961" y="1874" type="line"/>
      <point x="1081" y="1817" type="line"/>
      <point x="868" y="1622" type="line"/>
      <point x="707" y="1622" type="line"/>
      <point x="494" y="1817" type="line"/>
    </contour>
    <contour>
      <point x="393" y="1028" type="line"/>
      <point x="393" y="0" type="line"/>
      <point x="164" y="0" type="line"/>
      <point x="164" y="1454" type="line"/>
      <point x="352" y="1454" type="line"/>
      <point x="1176" y="403" type="line"/>
      <point x="1176" y="1452" type="line"/>
      <point x="1407" y="1452" type="line"/>
      <point x="1407" y="0" type="line"/>
      <point x="1206" y="0" type="line"/>
    </contour>
  </outline>
</glyph>
<glyph name="ncaron" format="2">
  <advance width="1222"/>
  <unicode hex="0148"/>
  <anchor x="0" y="0" name="Anchor-11"/>
  <anchor x="0" y="0" name="Anchor-10"/>
  <anchor x="633" y="1495" name="Anchor-9"/>
  <anchor x="0" y="0" name="Anchor-8"/>
  <anchor x="610" y="0" name="Anchor-7"/>
  <outline>
    <contour>
      <point x="459" y="1495" type="line"/>
      <point x="633" y="1366" type="line"/>
      <point x="807" y="1495" type="line"/>
      <point x="928" y="1438" type="line"/>
      <point x="715" y="1243" type="line"/>
      <point x="553" y="1243" type="line"/>
      <point x="340" y="1438" type="line"/>
    </contour>
    <contour>
      <point x="1096" y="0" type="line"/>
      <point x="870" y="0" type="line"/>
      <point x="870" y="600" type="line" smooth="yes"/>
      <point x="870" y="749"/>
      <point x="775" y="889"/>
      <point x="680" y="889" type="qcurve" smooth="yes"/>
      <point x="582" y="889"/>
      <point x="395" y="744"/>
      <point x="360" y="637" type="qcurve"/>
      <point x="360" y="0" type="line"/>
      <point x="135" y="0" type="line"/>
      <point x="135" y="1071" type="line"/>
      <point x="340" y="1071" type="line"/>
      <point x="340" y="856" type="line"/>
      <point x="402" y="964"/>
      <point x="636" y="1090"/>
      <point x="776" y="1090" type="qcurve" smooth="yes"/>
      <point x="851" y="1090"/>
      <point x="964" y="1044"/>
      <point x="1035" y="966"/>
      <point x="1079" y="851"/>
      <point x="1096" y="728"/>
      <point x="1096" y="653" type="qcurve" smooth="yes"/>
    </contour>
  </outline>
</glyph>
<glyph name="Eng" format="2">
  <advance width="1548"/>
  <unicode hex="014A"/>
  <outline>
    <contour>
      <point x="393" y="1020" type="line"/>
      <point x="393" y="0" type="line"/>
      <point x="164" y="0" type="line"/>
      <point x="164" y="1454" type="line"/>
      <point x="340" y="1454" type="line"/>
      <point x="1153" y="418" type="line"/>
      <point x="1153" y="1452" type="line"/>
      <point x="1384" y="1452" type="line"/>
      <point x="1384" y="-31" type="line" smooth="yes"/>
      <point x="1384" y="-188"/>
      <point x="1176" y="-391"/>
      <point x="1032" y="-391" type="qcurve" smooth="yes"/>
      <point x="876" y="-391"/>
      <point x="774" y="-299" type="qcurve"/>
      <point x="874" y="-147" type="line"/>
      <point x="925" y="-195"/>
      <point x="1006" y="-195" type="qcurve" smooth="yes"/>
      <point x="1067" y="-195"/>
      <point x="1159" y="-105"/>
      <point x="1159" y="-39" type="qcurve" smooth="yes"/>
      <point x="1159" y="43" type="line"/>
    </contour>
  </outline>
</glyph>
<glyph name="eng" format="2">
  <advance width="1220"/>
  <unicode hex="014B"/>
  <outline>
    <contour>
      <point x="485" y="-299" type="qcurve"/>
      <point x="586" y="-147" type="line"/>
      <point x="640" y="-195"/>
      <point x="719" y="-195" type="qcurve" smooth="yes"/>
      <point x="780" y="-195"/>
      <point x="870" y="-105"/>
      <point x="870" y="-39" type="qcurve" smooth="yes"/>
      <point x="870" y="600" type="line" smooth="yes"/>
      <point x="870" y="749"/>
      <point x="775" y="889"/>
      <point x="680" y="889" type="qcurve" smooth="yes"/>
      <point x="582" y="889"/>
      <point x="395" y="744"/>
      <point x="360" y="637" type="qcurve"/>
      <point x="360" y="0" type="line"/>
      <point x="135" y="0" type="line"/>
      <point x="135" y="1071" type="line"/>
      <point x="340" y="1071" type="line"/>
      <point x="340" y="856" type="line"/>
      <point x="402" y="964"/>
      <point x="636" y="1090"/>
      <point x="776" y="1090" type="qcurve" smooth="yes"/>
      <point x="869" y="1090"/>
      <point x="999" y="1022"/>
      <point x="1067" y="896"/>
      <point x="1096" y="748"/>
      <point x="1096" y="653" type="qcurve" smooth="yes"/>
      <point x="1096" y="-23" type="line" smooth="yes"/>
      <point x="1096" y="-182"/>
      <point x="889" y="-391"/>
      <point x="745" y="-391" type="qcurve" smooth="yes"/>
      <point x="587" y="-391"/>
    </contour>
  </outline>
</glyph>
<glyph name="OE" format="2">
  <advance width="2271"/>
  <unicode hex="0152"/>
  <outline>
    <contour>
      <point x="2200" y="203" type="line"/>
      <point x="2200" y="0" type="line"/>
      <point x="1223" y="0" type="line"/>
      <point x="1223" y="270" type="line"/>
      <point x="1151" y="145"/>
      <point x="906" y="-10"/>
      <point x="760" y="-10" type="qcurve" smooth="yes"/>
      <point x="611" y="-10"/>
      <point x="350" y="115"/>
      <point x="173" y="322"/>
      <point x="72" y="587"/>
      <point x="72" y="727" type="qcurve" smooth="yes"/>
      <point x="72" y="871"/>
      <point x="178" y="1140"/>
      <point x="359" y="1342"/>
      <point x="619" y="1464"/>
      <point x="764" y="1464" type="qcurve" smooth="yes"/>
      <point x="911" y="1464"/>
      <point x="1152" y="1309"/>
      <point x="1223" y="1184" type="qcurve"/>
      <point x="1223" y="1454" type="line"/>
      <point x="2181" y="1454" type="line"/>
      <point x="2181" y="1251" type="line"/>
      <point x="1454" y="1251" type="line"/>
      <point x="1454" y="842" type="line"/>
      <point x="2071" y="842" type="line"/>
      <point x="2071" y="639" type="line"/>
      <point x="1454" y="639" type="line"/>
      <point x="1454" y="203" type="line"/>
    </contour>
    <contour>
      <point x="1214" y="729" type="qcurve" smooth="yes"/>
      <point x="1214" y="867"/>
      <point x="1103" y="1107"/>
      <point x="892" y="1257"/>
      <point x="760" y="1257" type="qcurve" smooth="yes"/>
      <point x="657" y="1257"/>
      <point x="482" y="1165"/>
      <point x="368" y="1015"/>
      <point x="305" y="826"/>
      <point x="305" y="727" type="qcurve" smooth="yes"/>
      <point x="305" y="588"/>
      <point x="414" y="349"/>
      <point x="626" y="197"/>
      <point x="762" y="197" type="qcurve" smooth="yes"/>
      <point x="865" y="197"/>
      <point x="1039" y="289"/>
      <point x="1152" y="440"/>
      <point x="1214" y="629"/>
    </contour>
  </outline>
</glyph>
<glyph name="oe" format="2">
  <advance width="2088"/>
  <unicode hex="0153"/>
  <outline>
    <contour>
      <point x="66" y="532" type="qcurve" smooth="yes"/>
      <point x="66" y="770"/>
      <point x="380" y="1090"/>
      <point x="614" y="1090" type="qcurve" smooth="yes"/>
      <point x="758" y="1090"/>
      <point x="984" y="942"/>
      <point x="1051" y="807" type="qcurve"/>
      <point x="1120" y="946"/>
      <point x="1344" y="1090"/>
      <point x="1491" y="1090" type="qcurve" smooth="yes"/>
      <point x="1726" y="1090"/>
      <point x="2028" y="784"/>
      <point x="2038" y="535" type="qcurve" smooth="yes"/>
      <point x="2038" y="479"/>
      <point x="2034" y="461" type="qcurve"/>
      <point x="1176" y="461" type="line"/>
      <point x="1187" y="325"/>
      <point x="1378" y="141"/>
      <point x="1511" y="141" type="qcurve" smooth="yes"/>
      <point x="1606" y="141"/>
      <point x="1767" y="236"/>
      <point x="1796" y="309" type="qcurve"/>
      <point x="1982" y="254" type="line"/>
      <point x="1924" y="130"/>
      <point x="1661" y="-20"/>
      <point x="1503" y="-20" type="qcurve" smooth="yes"/>
      <point x="1367" y="-20"/>
      <point x="1137" y="122"/>
      <point x="1051" y="254" type="qcurve"/>
      <point x="880" y="-20"/>
      <point x="614" y="-20" type="qcurve" smooth="yes"/>
      <point x="459" y="-20"/>
      <point x="208" y="124"/>
      <point x="66" y="377"/>
    </contour>
    <contour>
      <point x="1812" y="604" type="line"/>
      <point x="1802" y="744"/>
      <point x="1615" y="924"/>
      <point x="1485" y="924" type="qcurve" smooth="yes"/>
      <point x="1356" y="924"/>
      <point x="1178" y="744"/>
      <point x="1169" y="604" type="qcurve"/>
    </contour>
    <contour>
      <point x="936" y="535" type="qcurve" smooth="yes"/>
      <point x="936" y="689"/>
      <point x="753" y="897"/>
      <point x="618" y="897" type="qcurve" smooth="yes"/>
      <point x="482" y="897"/>
      <point x="297" y="685"/>
      <point x="297" y="530" type="qcurve" smooth="yes"/>
      <point x="297" y="377"/>
      <point x="481" y="172"/>
      <point x="616" y="172" type="qcurve" smooth="yes"/>
      <point x="753" y="172"/>
      <point x="936" y="380"/>
    </contour>
  </outline>
</glyph>
<glyph name="racute" format="2">
  <advance width="765"/>
  <unicode hex="0155"/>
  <anchor x="0" y="0" name="Anchor-11"/>
  <anchor x="0" y="0" name="Anchor-10"/>
  <anchor x="532" y="1495" name="Anchor-9"/>
  <anchor x="0" y="0" name="Anchor-8"/>
  <anchor x="240" y="0" name="Anchor-7"/>
  <outline>
    <contour>
      <point x="514" y="1225" type="line"/>
      <point x="367" y="1270" type="line"/>
      <point x="483" y="1495" type="line"/>
      <point x="698" y="1495" type="line"/>
    </contour>
    <contour>
      <point x="737" y="877" type="line"/>
      <point x="605" y="874"/>
      <point x="402" y="757"/>
      <point x="360" y="655" type="qcurve"/>
      <point x="360" y="0" type="line"/>
      <point x="135" y="0" type="line"/>
      <point x="135" y="1071" type="line"/>
      <point x="344" y="1071" type="line"/>
      <point x="344" y="831" type="line"/>
      <point x="400" y="941"/>
      <point x="579" y="1075"/>
      <point x="680" y="1081" type="qcurve" smooth="yes"/>
      <point x="723" y="1081"/>
      <point x="737" y="1079" type="qcurve"/>
    </contour>
  </outline>
</glyph>
<glyph name="rcedilla" format="2">
  <advance width="765"/>
  <unicode hex="0157"/>
  <anchor x="0" y="0" name="Anchor-11"/>
  <anchor x="0" y="0" name="Anchor-10"/>
  <anchor x="436" y="1071" name="Anchor-9"/>
  <anchor x="0" y="0" name="Anchor-8"/>
  <anchor x="240" y="0" name="Anchor-7"/>
  <outline>
    <contour>
      <point x="737" y="877" type="line"/>
      <point x="605" y="874"/>
      <point x="402" y="757"/>
      <point x="360" y="655" type="qcurve"/>
      <point x="360" y="0" type="line"/>
      <point x="135" y="0" type="line"/>
      <point x="135" y="1071" type="line"/>
      <point x="344" y="1071" type="line"/>
      <point x="344" y="831" type="line"/>
      <point x="400" y="941"/>
      <point x="579" y="1075"/>
      <point x="680" y="1081" type="qcurve" smooth="yes"/>
      <point x="723" y="1081"/>
      <point x="737" y="1079" type="qcurve"/>
    </contour>
    <contour>
      <point x="154" y="-436" type="line"/>
      <point x="201" y="-279" type="line"/>
      <point x="135" y="-279" type="line"/>
      <point x="135" y="-98" type="line"/>
      <point x="330" y="-98" type="line"/>
      <point x="330" y="-279" type="line"/>
      <point x="258" y="-436" type="line"/>
    </contour>
  </outline>
</glyph>
<glyph name="rcaron" format="2">
  <advance width="765"/>
  <unicode hex="0159"/>
  <anchor x="0" y="0" name="Anchor-11"/>
  <anchor x="0" y="0" name="Anchor-10"/>
  <anchor x="436" y="1495" name="Anchor-9"/>
  <anchor x="0" y="0" name="Anchor-8"/>
  <anchor x="240" y="0" name="Anchor-7"/>
  <outline>
    <contour>
      <point x="262" y="1495" type="line"/>
      <point x="436" y="1366" type="line"/>
      <point x="610" y="1495" type="line"/>
      <point x="731" y="1438" type="line"/>
      <point x="518" y="1243" type="line"/>
      <point x="356" y="1243" type="line"/>
      <point x="143" y="1438" type="line"/>
    </contour>
    <contour>
      <point x="737" y="877" type="line"/>
      <point x="605" y="874"/>
      <point x="402" y="757"/>
      <point x="360" y="655" type="qcurve"/>
      <point x="360" y="0" type="line"/>
      <point x="135" y="0" type="line"/>
      <point x="135" y="1071" type="line"/>
      <point x="344" y="1071" type="line"/>
      <point x="344" y="831" type="line"/>
      <point x="400" y="941"/>
      <point x="579" y="1075"/>
      <point x="680" y="1081" type="qcurve" smooth="yes"/>
      <point x="723" y="1081"/>
      <point x="737" y="1079" type="qcurve"/>
    </contour>
  </outline>
</glyph>
